<svg width="230" height="178" viewBox="0 0 230 178" fill="none" xmlns="http://www.w3.org/2000/svg">
<line y1="-1" x2="11.6139" y2="-1" transform="matrix(-0.186378 0.982478 0.985154 0.171675 229.988 1.06441)" stroke="#6F6F6F" stroke-width="2"/>
<line y1="-1" x2="13.1801" y2="-1" transform="matrix(-0.328487 0.944508 0.952568 0.304327 225.653 23.8875)" stroke="#6F6F6F" stroke-width="2"/>
<line y1="-1" x2="13.1298" y2="-1" transform="matrix(-0.422618 0.906308 0.920808 0.390017 216.988 50)" stroke="#6F6F6F" stroke-width="2"/>
<line y1="-1" x2="11.2375" y2="-1" transform="matrix(-0.5 0.866025 0.886282 0.463146 204.988 74)" stroke="#6F6F6F" stroke-width="2"/>
<path d="M190.629 95.0884L182.51 103.385" stroke="#6F6F6F" stroke-width="2"/>
<line y1="-1" x2="12.0024" y2="-1" transform="matrix(-0.829037 0.559193 0.587014 0.809577 171.551 113.237)" stroke="#6F6F6F" stroke-width="2"/>
<path d="M147.501 127L145.51 128.341L141.993 130.467L138.926 131.929L135.789 132.913" stroke="#6F6F6F" stroke-width="2"/>
<line y1="-1" x2="11.9061" y2="-1" transform="matrix(-0.951056 0.309017 0.309017 0.951056 98.9883 148)" stroke="#6F6F6F" stroke-width="2"/>
<line y1="-1" x2="11.9061" y2="-1" transform="matrix(-0.961262 0.275637 0.275637 0.961262 69.9883 157)" stroke="#6F6F6F" stroke-width="2"/>
<line y1="-1" x2="11.9061" y2="-1" transform="matrix(-0.981627 0.190809 0.190809 0.981627 42.8809 162.864)" stroke="#6F6F6F" stroke-width="2"/>
<line y1="-1" x2="11.9061" y2="-1" transform="matrix(-1 0 0 1 14.9883 167)" stroke="#6F6F6F" stroke-width="2"/>
<path d="M14.9882 153L1.99976 165.449L14.9882 176.86" stroke="#6F6F6F" stroke-width="2"/>
<path d="M124.812 137.508L123.675 138.279C122.553 139.038 121.374 139.713 120.149 140.297L119.021 140.834L118.976 140.855C117.03 141.782 115.011 142.554 112.938 143.164V143.164" stroke="#6F6F6F" stroke-width="2"/>
</svg>
