<svg width="95" height="74" viewBox="0 0 95 74" fill="none" xmlns="http://www.w3.org/2000/svg">
<line y1="-0.413136" x2="4.7981" y2="-0.413136" transform="matrix(-0.186378 0.982478 0.985154 0.171675 94.8086 0.80835)" stroke="#6F6F6F" stroke-width="0.826271"/>
<line y1="-0.413136" x2="5.44516" y2="-0.413136" transform="matrix(-0.328487 0.944508 0.952568 0.304327 93.0176 10.2373)" stroke="#6F6F6F" stroke-width="0.826271"/>
<line y1="-0.413136" x2="5.42441" y2="-0.413136" transform="matrix(-0.422618 0.906308 0.920808 0.390017 89.4375 21.0254)" stroke="#6F6F6F" stroke-width="0.826271"/>
<line y1="-0.413136" x2="4.64259" y2="-0.413136" transform="matrix(-0.5 0.866025 0.886282 0.463146 84.4805 30.9407)" stroke="#6F6F6F" stroke-width="0.826271"/>
<path d="M78.5485 39.6531L75.1942 43.0806" stroke="#6F6F6F" stroke-width="0.826271"/>
<line y1="-0.413136" x2="4.95861" y2="-0.413136" transform="matrix(-0.829037 0.559193 0.587014 0.809577 70.666 47.1509)" stroke="#6F6F6F" stroke-width="0.826271"/>
<path d="M60.7305 52.8369L59.9078 53.3909L58.4549 54.2692L57.1877 54.8731L55.8916 55.2799" stroke="#6F6F6F" stroke-width="0.826271"/>
<line y1="-0.413136" x2="4.91882" y2="-0.413136" transform="matrix(-0.951056 0.309017 0.309017 0.951056 40.6875 61.5127)" stroke="#6F6F6F" stroke-width="0.826271"/>
<line y1="-0.413136" x2="4.91882" y2="-0.413136" transform="matrix(-0.961262 0.275637 0.275637 0.961262 28.707 65.231)" stroke="#6F6F6F" stroke-width="0.826271"/>
<line y1="-0.413136" x2="4.91882" y2="-0.413136" transform="matrix(-0.981627 0.190809 0.190809 0.981627 17.5078 67.6536)" stroke="#6F6F6F" stroke-width="0.826271"/>
<line y1="-0.413136" x2="4.91882" y2="-0.413136" transform="matrix(-1 0 0 1 5.98438 69.3623)" stroke="#6F6F6F" stroke-width="0.826271"/>
<path d="M5.98416 63.5784L0.618164 68.7214L5.98416 73.4358" stroke="#6F6F6F" stroke-width="0.826271"/>
<path d="M51.3565 57.1781L50.8865 57.4965C50.4232 57.8103 49.9363 58.089 49.4298 58.3303L48.9641 58.5521L48.9455 58.5609C48.1416 58.9439 47.3073 59.2629 46.4507 59.5149V59.5149" stroke="#6F6F6F" stroke-width="0.826271"/>
</svg>
