<svg width="95" height="74" viewBox="0 0 95 74" fill="none" xmlns="http://www.w3.org/2000/svg">
<line y1="-0.413136" x2="4.7981" y2="-0.413136" transform="matrix(0.186378 0.982478 -0.985154 0.171675 0.205078 0.32959)" stroke="#6F6F6F" stroke-width="0.826271"/>
<line y1="-0.413136" x2="5.44516" y2="-0.413136" transform="matrix(0.328487 0.944508 -0.952568 0.304327 1.99707 9.75854)" stroke="#6F6F6F" stroke-width="0.826271"/>
<line y1="-0.413136" x2="5.42441" y2="-0.413136" transform="matrix(0.422618 0.906308 -0.920808 0.390017 5.57617 20.5466)" stroke="#6F6F6F" stroke-width="0.826271"/>
<line y1="-0.413136" x2="4.64259" y2="-0.413136" transform="matrix(0.5 0.866025 -0.886282 0.463146 10.5342 30.4619)" stroke="#6F6F6F" stroke-width="0.826271"/>
<path d="M16.4662 39.1743L19.8205 42.6019" stroke="#6F6F6F" stroke-width="0.826271"/>
<line y1="-0.413136" x2="4.95861" y2="-0.413136" transform="matrix(0.829037 0.559193 -0.587014 0.809577 24.3477 46.6721)" stroke="#6F6F6F" stroke-width="0.826271"/>
<path d="M34.2832 52.3582L35.1059 52.9121L36.5588 53.7904L37.826 54.3943L39.1221 54.8012" stroke="#6F6F6F" stroke-width="0.826271"/>
<line x1="54.4538" y1="60.641" x2="59.1319" y2="62.161" stroke="#6F6F6F" stroke-width="0.826271"/>
<line x1="66.4215" y1="64.3551" x2="71.1498" y2="65.7109" stroke="#6F6F6F" stroke-width="0.826271"/>
<line x1="77.5847" y1="66.7693" x2="82.4131" y2="67.7078" stroke="#6F6F6F" stroke-width="0.826271"/>
<line x1="89.0293" y1="68.4704" x2="93.9481" y2="68.4704" stroke="#6F6F6F" stroke-width="0.826271"/>
<path d="M89.0295 63.0996L94.3955 68.2426L89.0295 72.957" stroke="#6F6F6F" stroke-width="0.826271"/>
<path d="M43.6571 56.6994L44.1272 57.0177C44.5905 57.3315 45.0774 57.6103 45.5839 57.8515L46.0496 58.0733L46.0681 58.0822C46.8721 58.4651 47.7064 58.7841 48.563 59.0362V59.0362" stroke="#6F6F6F" stroke-width="0.826271"/>
</svg>
