<svg width="230" height="178" viewBox="0 0 230 178" fill="none" xmlns="http://www.w3.org/2000/svg">
<line y1="-1" x2="11.6139" y2="-1" transform="matrix(0.186378 0.982478 -0.985154 0.171675 0 1.06441)" stroke="#6F6F6F" stroke-width="2"/>
<line y1="-1" x2="13.1801" y2="-1" transform="matrix(0.328487 0.944508 -0.952568 0.304327 4.33545 23.8875)" stroke="#6F6F6F" stroke-width="2"/>
<line y1="-1" x2="13.1298" y2="-1" transform="matrix(0.422618 0.906308 -0.920808 0.390017 13 50)" stroke="#6F6F6F" stroke-width="2"/>
<line y1="-1" x2="11.2375" y2="-1" transform="matrix(0.5 0.866025 -0.886282 0.463146 25 74)" stroke="#6F6F6F" stroke-width="2"/>
<path d="M39.3588 95.0884L47.4779 103.385" stroke="#6F6F6F" stroke-width="2"/>
<line y1="-1" x2="12.0024" y2="-1" transform="matrix(0.829037 0.559193 -0.587014 0.809577 58.4375 113.237)" stroke="#6F6F6F" stroke-width="2"/>
<path d="M82.4871 127L84.4783 128.341L87.9951 130.467L91.0623 131.929L94.1997 132.913" stroke="#6F6F6F" stroke-width="2"/>
<line x1="131.309" y1="147.049" x2="142.632" y2="150.728" stroke="#6F6F6F" stroke-width="2"/>
<line x1="160.276" y1="156.039" x2="171.72" y2="159.32" stroke="#6F6F6F" stroke-width="2"/>
<line x1="187.298" y1="161.882" x2="198.986" y2="164.154" stroke="#6F6F6F" stroke-width="2"/>
<line x1="215" y1="166" x2="226.906" y2="166" stroke="#6F6F6F" stroke-width="2"/>
<path d="M215 153L227.989 165.449L215 176.86" stroke="#6F6F6F" stroke-width="2"/>
<path d="M105.176 137.508L106.314 138.279C107.435 139.038 108.614 139.713 109.84 140.297L110.967 140.834L111.012 140.855C112.958 141.782 114.977 142.554 117.051 143.164V143.164" stroke="#6F6F6F" stroke-width="2"/>
</svg>
