<svg width="20" height="21" viewBox="0 0 20 21" fill="none" xmlns="http://www.w3.org/2000/svg">
<path fill-rule="evenodd" clip-rule="evenodd" d="M2.5 6.35726C2.5 6.13625 2.5878 5.92428 2.74408 5.768C2.90036 5.61172 3.11232 5.52393 3.33333 5.52393H16.6667C16.8877 5.52393 17.0996 5.61172 17.2559 5.768C17.4122 5.92428 17.5 6.13625 17.5 6.35726C17.5 6.57827 17.4122 6.79023 17.2559 6.94651C17.0996 7.10279 16.8877 7.19059 16.6667 7.19059H3.33333C3.11232 7.19059 2.90036 7.10279 2.74408 6.94651C2.5878 6.79023 2.5 6.57827 2.5 6.35726ZM2.5 10.5239C2.5 10.3029 2.5878 10.091 2.74408 9.93467C2.90036 9.77839 3.11232 9.69059 3.33333 9.69059H16.6667C16.8877 9.69059 17.0996 9.77839 17.2559 9.93467C17.4122 10.091 17.5 10.3029 17.5 10.5239C17.5 10.7449 17.4122 10.9569 17.2559 11.1132C17.0996 11.2695 16.8877 11.3573 16.6667 11.3573H3.33333C3.11232 11.3573 2.90036 11.2695 2.74408 11.1132C2.5878 10.9569 2.5 10.7449 2.5 10.5239ZM2.5 14.6906C2.5 14.4696 2.5878 14.2576 2.74408 14.1013C2.90036 13.9451 3.11232 13.8573 3.33333 13.8573H16.6667C16.8877 13.8573 17.0996 13.9451 17.2559 14.1013C17.4122 14.2576 17.5 14.4696 17.5 14.6906C17.5 14.9116 17.4122 15.1236 17.2559 15.2798C17.0996 15.4361 16.8877 15.5239 16.6667 15.5239H3.33333C3.11232 15.5239 2.90036 15.4361 2.74408 15.2798C2.5878 15.1236 2.5 14.9116 2.5 14.6906Z" fill="white"/>
</svg>
