<svg width="150" height="150" viewBox="0 0 150 150" fill="none" xmlns="http://www.w3.org/2000/svg">
<g clip-path="url(#clip0_2577_5271)">
<path d="M94.038 33.2367C75.8141 33.2367 61.0409 48.01 61.0409 66.2338V73.5858L61.0503 73.585C61.0476 77.9619 63.6873 82.1414 69.0949 85.2636C81.0249 92.1516 101.864 91.2876 115.639 83.3344C123.174 78.9847 127.025 73.4156 127.026 68.1349L127.035 68.134V66.2341C127.035 48.01 112.262 33.2367 94.038 33.2367Z" fill="url(#paint0_linear_2577_5271)"/>
<path d="M68.1276 45.801H94.038L90.4005 33.4371C81.3859 34.4259 73.4634 39.0443 68.1276 45.801Z" fill="url(#paint1_linear_2577_5271)"/>
<path d="M94.0379 45.7966C105.7 45.7966 115.155 36.3422 115.155 24.6797C115.155 13.0172 105.7 3.56281 94.0379 3.56281C82.3754 3.56281 72.921 13.0172 72.921 24.6797C72.921 36.3422 82.3754 45.7966 94.0379 45.7966Z" fill="url(#paint2_radial_2577_5271)"/>
<path d="M48.7971 59.3177C30.5733 59.3177 15.8 74.0909 15.8 92.3148V99.6668L15.8094 99.6659C15.8068 104.043 18.4464 108.222 23.8541 111.344C35.784 118.232 56.6229 117.368 70.3986 109.415C77.9329 105.065 81.7845 99.4963 81.7848 94.2155L81.7942 94.2147V92.3148C81.7942 74.0909 67.0207 59.3177 48.7971 59.3177Z" fill="url(#paint3_linear_2577_5271)"/>
<path d="M22.8867 71.8822H48.7972L45.1597 59.5184C36.145 60.5068 28.2226 65.1252 22.8867 71.8822Z" fill="url(#paint4_linear_2577_5271)"/>
<path d="M48.7968 71.8776C60.4594 71.8776 69.9137 62.4232 69.9137 50.7607C69.9137 39.0981 60.4594 29.6438 48.7968 29.6438C37.1343 29.6438 27.6799 39.0981 27.6799 50.7607C27.6799 62.4232 37.1343 71.8776 48.7968 71.8776Z" fill="url(#paint5_radial_2577_5271)"/>
<path d="M107.098 66.092C88.8741 66.092 74.1008 80.8653 74.1008 99.0891V106.441L74.1102 106.44C74.1076 110.817 76.7472 114.997 82.1548 118.119C94.0848 125.007 114.924 124.143 128.699 116.189C136.234 111.84 140.085 106.271 140.086 100.99L140.095 100.989V99.0891C140.095 80.8653 125.322 66.092 107.098 66.092Z" fill="url(#paint6_linear_2577_5271)"/>
<path d="M81.1875 78.6563H107.098L103.46 66.2924C94.4458 67.2812 86.5233 71.8993 81.1875 78.6563Z" fill="url(#paint7_linear_2577_5271)"/>
<path d="M107.098 78.6519C118.76 78.6519 128.215 69.1975 128.215 57.535C128.215 45.8724 118.76 36.4181 107.098 36.4181C95.4353 36.4181 85.981 45.8724 85.981 57.535C85.981 69.1975 95.4353 78.6519 107.098 78.6519Z" fill="url(#paint8_radial_2577_5271)"/>
<path d="M9.22297 50.2353L0.850212 33.4541C0.243473 32.238 0.737419 30.7602 1.95353 30.1535C3.16965 29.5462 4.64738 30.0407 5.25412 31.2568L11.4296 43.6342L23.8072 37.4587C25.0236 36.8514 26.5014 37.3459 27.1078 38.562C27.7146 39.7781 27.2206 41.2559 26.0045 41.8626L9.22297 50.2353Z" fill="#193655"/>
<path d="M10.3255 49.3966C10.099 49.3966 9.86871 49.3649 9.6399 49.2987C8.33444 48.9208 7.58239 47.5562 7.96061 46.2507C13.9404 25.599 28.6589 8.8166 48.3422 0.206838C49.5871 -0.337498 51.0384 0.229983 51.5831 1.47539C52.1277 2.7208 51.5599 4.17158 50.3145 4.71621C31.9744 12.7383 18.2602 28.3761 12.6882 47.6194C12.3762 48.6964 11.3933 49.3966 10.3255 49.3966Z" fill="#193655"/>
<path d="M84.9669 150C84.5008 150 84.0294 149.868 83.6113 149.591C82.4781 148.841 82.167 147.315 82.9167 146.181L90.5482 134.645L79.0114 127.013C77.8782 126.263 77.5671 124.736 78.3168 123.603C79.0662 122.47 80.5926 122.158 81.7269 122.909L97.3686 133.255L87.0212 148.897C86.5483 149.612 85.7649 150 84.9669 150Z" fill="#193655"/>
<path d="M77.195 138.454C61.9683 138.454 47.0189 133.625 34.4825 124.391C33.3883 123.585 33.1545 122.044 33.9607 120.95C34.7667 119.856 36.3074 119.623 37.4017 120.428C53.5193 132.3 73.9176 136.358 93.3704 131.562C94.6882 131.236 96.0232 132.042 96.3487 133.362C96.6742 134.682 95.8683 136.015 94.5484 136.341C88.8021 137.758 82.9782 138.454 77.195 138.454Z" fill="#193655"/>
<path d="M126.511 36.7389C126.461 36.7389 126.411 36.7374 126.359 36.7342C125.003 36.6516 123.97 35.485 124.053 34.1282L125.193 15.4087L143.912 16.5483C145.269 16.631 146.302 17.7976 146.219 19.1543C146.137 20.5104 144.969 21.5458 143.614 21.4608L129.807 20.6203L128.966 34.4273C128.886 35.7331 127.802 36.7389 126.511 36.7389Z" fill="#193655"/>
<path d="M146.517 76.4894C146.425 76.4894 146.333 76.4845 146.24 76.4742C144.889 76.3233 143.917 75.1057 144.068 73.7552C146.291 53.8608 139.605 34.1648 125.726 19.7177C124.784 18.7377 124.816 17.1797 125.796 16.2381C126.776 15.2968 128.334 15.3281 129.275 16.3078C144.17 31.8123 151.345 52.9503 148.959 74.3013C148.818 75.5596 147.753 76.4894 146.517 76.4894Z" fill="#193655"/>
</g>
<defs>
<linearGradient id="paint0_linear_2577_5271" x1="61.0409" y1="61.575" x2="127.035" y2="61.575" gradientUnits="userSpaceOnUse">
<stop stop-color="#FD8356"/>
<stop offset="0.3492" stop-color="#FD8356"/>
<stop offset="1" stop-color="#FD8356"/>
</linearGradient>
<linearGradient id="paint1_linear_2577_5271" x1="95.0561" y1="39.6191" x2="69.5206" y2="39.6191" gradientUnits="userSpaceOnUse">
<stop offset="0.0319" stop-color="#8B451C"/>
<stop offset="1" stop-color="#8B451C" stop-opacity="0"/>
</linearGradient>
<radialGradient id="paint2_radial_2577_5271" cx="0" cy="0" r="1" gradientUnits="userSpaceOnUse" gradientTransform="translate(98.6056 17.0798) scale(29.9865)">
<stop stop-color="#E6997D"/>
<stop offset="0.1714" stop-color="#FD895E"/>
<stop offset="0.488" stop-color="#E19D83"/>
<stop offset="0.912" stop-color="#F3C2B0"/>
<stop offset="1" stop-color="#FEB89E"/>
</radialGradient>
<linearGradient id="paint3_linear_2577_5271" x1="48.7971" y1="115.994" x2="48.7971" y2="59.3177" gradientUnits="userSpaceOnUse">
<stop stop-color="#0054B5"/>
<stop offset="1" stop-color="#9CCAFF"/>
</linearGradient>
<linearGradient id="paint4_linear_2577_5271" x1="49.8149" y1="65.7003" x2="24.2795" y2="65.7003" gradientUnits="userSpaceOnUse">
<stop offset="0.0319" stop-color="#5D3645"/>
<stop offset="1" stop-color="#5D3645" stop-opacity="0"/>
</linearGradient>
<radialGradient id="paint5_radial_2577_5271" cx="0" cy="0" r="1" gradientUnits="userSpaceOnUse" gradientTransform="translate(53.3645 43.1608) scale(29.9865 29.9865)">
<stop stop-color="#95C3FF"/>
<stop offset="0.2328" stop-color="#88B0FF"/>
<stop offset="0.6609" stop-color="#66ADFF"/>
<stop offset="1" stop-color="#479DFF"/>
</radialGradient>
<linearGradient id="paint6_linear_2577_5271" x1="74.1008" y1="94.4303" x2="140.095" y2="94.4303" gradientUnits="userSpaceOnUse">
<stop stop-color="#2F878A"/>
<stop offset="0.3492" stop-color="#06DAAE"/>
<stop offset="1" stop-color="#9BF0E5"/>
</linearGradient>
<linearGradient id="paint7_linear_2577_5271" x1="108.116" y1="72.4744" x2="82.5806" y2="72.4744" gradientUnits="userSpaceOnUse">
<stop offset="0.0319" stop-color="#1A4C4E"/>
<stop offset="1" stop-color="#1A4C4E" stop-opacity="0"/>
</linearGradient>
<radialGradient id="paint8_radial_2577_5271" cx="0" cy="0" r="1" gradientUnits="userSpaceOnUse" gradientTransform="translate(111.666 49.9348) scale(29.9865 29.9865)">
<stop stop-color="#9BF0DF"/>
<stop offset="0.1381" stop-color="#8EEEDB"/>
<stop offset="0.3932" stop-color="#6CE9D0"/>
<stop offset="0.7344" stop-color="#35E1BE"/>
<stop offset="1" stop-color="#06DABE"/>
</radialGradient>
<clipPath id="clip0_2577_5271">
<rect width="150" height="150" fill="white"/>
</clipPath>
</defs>
</svg>
