<svg width="150" height="150" viewBox="0 0 150 150" fill="none" xmlns="http://www.w3.org/2000/svg">
<g clip-path="url(#clip0_2577_5215)">
<path d="M98.6267 84.956H51.3732C51.36 84.956 51.3465 84.956 51.3333 84.956C44.7295 84.8959 38.5309 82.28 33.8791 77.5898C29.2239 72.8962 26.6601 66.67 26.6601 60.0586V48.3398C26.6601 21.6853 48.3454 0 74.9999 0C101.655 0 123.34 21.6853 123.34 48.3398V60.0586C123.34 66.67 120.776 72.8962 116.12 77.5898C111.469 82.28 105.27 84.8959 98.6663 84.956C98.6531 84.956 98.6399 84.956 98.6267 84.956ZM122.64 150H27.3603L17.9364 95.9698C17.4676 93.2815 19.5366 90.8203 22.2656 90.8203H127.734C130.463 90.8203 132.532 93.2815 132.064 95.9698L122.64 150Z" fill="url(#paint0_linear_2577_5215)"/>
<path d="M44.2383 68.8476V45.4102C44.2383 42.9832 46.2059 41.0156 48.6328 41.0156C55.7241 41.0156 62.0077 36.7614 64.6412 30.1772L65.0604 29.1293C65.6411 27.6776 66.9498 26.6437 68.4967 26.4146C70.0436 26.1858 71.5954 26.7955 72.5722 28.0163C79.181 36.2777 89.0391 41.0156 99.6185 41.0156H101.367C103.794 41.0156 105.762 42.9832 105.762 45.4102V68.8476C105.762 77.4475 102.213 85.2325 96.5051 90.8203H53.4949C47.787 85.2325 44.2383 77.4475 44.2383 68.8476ZM129.081 113.07L122.64 150H135.84C143.66 150 150 143.66 150 135.84C150 131.383 147.901 127.186 144.336 124.512L129.081 113.07ZM0 135.84C0 143.66 6.33984 150 14.1601 150H27.3604L20.9191 113.07L5.66396 124.512C2.09854 127.186 0 131.383 0 135.84ZM88.1836 120.703C88.1836 118.276 86.216 116.309 83.7891 116.309H66.2109C63.784 116.309 61.8164 118.276 61.8164 120.703C61.8164 123.13 63.784 125.098 66.2109 125.098H83.7891C86.216 125.098 88.1836 123.13 88.1836 120.703Z" fill="url(#paint1_linear_2577_5215)"/>
</g>
<defs>
<linearGradient id="paint0_linear_2577_5215" x1="74.9999" y1="150" x2="74.9999" y2="0" gradientUnits="userSpaceOnUse">
<stop stop-color="#000608"/>
<stop offset="1" stop-color="#9CCAFF"/>
</linearGradient>
<linearGradient id="paint1_linear_2577_5215" x1="75" y1="150" x2="75" y2="26.3672" gradientUnits="userSpaceOnUse">
<stop stop-color="#093669"/>
<stop offset="0.537147" stop-color="#FFCFC2"/>
<stop offset="0.9973" stop-color="#FFB09E"/>
</linearGradient>
<clipPath id="clip0_2577_5215">
<rect width="150" height="150" fill="white"/>
</clipPath>
</defs>
</svg>
