<svg width="150" height="150" viewBox="0 0 150 150" fill="none" xmlns="http://www.w3.org/2000/svg">
<g clip-path="url(#clip0_2577_5188)">
<path d="M93.6806 30.0459C91.9765 34.1923 87.2123 36.1721 83.0703 34.4568L66.2029 27.4759C61.4915 25.5247 56.4953 24.5329 51.4885 24.4823L56.1765 8.83823C62.5009 9.59587 68.7473 11.185 74.7441 13.622L89.2703 19.5291C93.4065 21.2097 95.3803 25.9171 93.6806 30.0459Z" fill="url(#paint0_linear_2577_5188)"/>
<path d="M104.13 31.7956C102.188 35.7382 97.4023 37.3459 93.472 35.3771L77.4656 27.365C71.2356 24.2447 64.3415 22.9006 57.5097 23.3644L51.7156 7.22617C63.7065 6.57882 75.7759 8.99176 86.7359 14.3906L100.528 21.1876C104.454 23.1218 106.067 27.87 104.13 31.7956Z" fill="url(#paint1_linear_2577_5188)"/>
<path d="M112.379 29.8156C110.447 33.8612 105.581 35.5744 101.54 33.6323L85.0854 25.7288C78.681 22.6506 71.6216 21.3915 64.6498 21.9726L58.5168 5.63117C70.7554 4.78117 83.1148 7.04588 94.3807 12.3691L108.557 19.0712C112.594 20.9779 114.304 25.7873 112.379 29.8156Z" fill="url(#paint2_linear_2577_5188)"/>
<path d="M74.9999 100C94.736 100 110.735 84.0008 110.735 64.2647C110.735 44.5286 94.736 28.5294 74.9999 28.5294C55.2639 28.5294 39.2646 44.5286 39.2646 64.2647C39.2646 84.0008 55.2639 100 74.9999 100Z" fill="url(#paint3_linear_2577_5188)"/>
<path d="M75 93.0882C90.9188 93.0882 103.824 80.1835 103.824 64.2647C103.824 48.3459 90.9188 35.4412 75 35.4412C59.0812 35.4412 46.1765 48.3459 46.1765 64.2647C46.1765 80.1835 59.0812 93.0882 75 93.0882Z" fill="url(#paint4_linear_2577_5188)"/>
<path d="M74.9999 89.5588C88.9695 89.5588 100.294 78.2343 100.294 64.2647C100.294 50.2952 88.9695 38.9706 74.9999 38.9706C61.0304 38.9706 49.7058 50.2952 49.7058 64.2647C49.7058 78.2343 61.0304 89.5588 74.9999 89.5588Z" fill="url(#paint5_linear_2577_5188)"/>
<path d="M77.8469 59.5685V50.9976C81.6628 51.2912 82.7781 53.1697 84.7151 53.1697C87.2981 53.1697 88.3549 49.9409 88.3549 48.3559C88.3549 44.3053 81.4866 43.3662 77.8469 43.2488V41.7812C77.8469 40.9594 76.7316 40.1962 75.6163 40.1962C74.3249 40.1962 73.3857 40.9594 73.3857 41.7812V43.425C67.1631 44.3056 61.6448 47.8865 61.6448 55.3418C61.6448 62.8559 67.9848 65.38 73.3857 67.4347V76.9447C69.0416 76.1815 67.0457 72.7179 64.5801 72.7179C62.3496 72.7179 60.5884 75.6529 60.5884 77.6491C60.5884 81.4062 66.3413 85.0459 73.3857 85.2806V86.7482C73.3857 87.5703 74.3249 88.3332 75.6163 88.3332C76.7316 88.3332 77.8469 87.57 77.8469 86.7482V85.0459C84.7151 83.9306 89.4116 79.5276 89.4116 72.2485C89.4116 64.3232 83.189 61.5641 77.8469 59.5685ZM73.9725 58.1594C71.7419 57.22 70.2154 56.1635 70.2154 54.4609C70.2154 53.0521 71.331 51.7018 73.9725 51.1735V58.1594ZM77.2601 76.8859V69.0197C79.3734 70.0176 80.841 71.2503 80.841 73.1876C80.8407 75.3009 79.2557 76.4162 77.2601 76.8859Z" fill="url(#paint6_linear_2577_5188)"/>
<path d="M39.2917 65.5882C39.9882 84.7109 55.7073 100 75 100C94.2926 100 110.012 84.7109 110.709 65.5882H39.2917Z" fill="url(#paint7_linear_2577_5188)"/>
<path d="M108.297 77.2618C108.173 77.5794 108.044 77.8941 107.912 78.2088C102.479 91.0177 89.7882 100 74.9999 100C55.2647 100 39.2646 84 39.2646 64.2647C39.2646 58.8971 40.447 53.8088 42.5705 49.2412C43.0058 48.2941 43.4852 47.3735 44.0029 46.4765H77.5117L108.297 77.2618Z" fill="url(#paint8_linear_2577_5188)"/>
<path d="M109.389 34.31L102.861 29.08C102.574 28.8641 102.284 28.6521 101.993 28.4435C94.1339 22.8276 84.5033 20.2788 74.8633 20.89C66.8015 21.4012 63.5671 21.8624 53.0335 27.1115C51.1968 28.0268 50.8841 29.9685 52.3353 31.4194L52.733 31.8171C60.6547 35.3068 68.2312 39.5179 75.368 44.3935C79.4656 47.1929 80.425 52.8359 77.5047 56.8488C74.8468 60.5012 69.863 61.5429 65.953 59.2812C59.2394 55.3976 51.7856 52.9203 44.0512 52.0265C42.5733 51.8556 41.0815 51.8474 39.5977 51.9529C34.9233 52.2856 23.6082 53.0118 19.8424 52.5444C19.8077 52.54 19.7727 52.5359 19.7377 52.5315C9.88001 51.2926 2.0206 43.7009 0.408244 33.8962L0.312362 33.3126C-1.77264 20.6482 6.80854 8.68911 19.4759 6.60617L41.3494 3.00941L55.1227 0.876761C76.7353 -2.295 98.7265 3.21323 116.241 16.1847L120.484 19.5662C124.578 22.5974 125.423 28.3641 122.372 32.4488C119.311 36.5485 113.48 37.3832 109.389 34.31Z" fill="url(#paint9_linear_2577_5188)"/>
<path d="M77.5048 56.8494C74.8469 60.5018 69.8633 61.5435 65.9533 59.2815C58.5481 54.9976 50.2425 52.425 41.6525 51.8009C41.5233 51.7915 41.3945 51.7815 41.2657 51.7709C26.7516 50.5673 25.9678 29.6038 40.3504 27.3121C41.3839 27.1473 42.4433 27.2841 43.401 27.7062L52.7331 31.8173C60.6548 35.3071 68.2313 39.5182 75.3681 44.3941C79.466 47.1938 80.4251 52.8368 77.5048 56.8494Z" fill="url(#paint10_linear_2577_5188)"/>
<path d="M137.484 150H12.5159C8.85232 150 5.88232 147.03 5.88232 143.366V103.824H144.118V143.366C144.118 147.03 141.148 150 137.484 150Z" fill="url(#paint11_linear_2577_5188)"/>
<path d="M5.88232 103.824V115.588L40.2941 150H137.484C141.148 150 144.118 147.03 144.118 143.366V103.824H5.88232Z" fill="url(#paint12_linear_2577_5188)"/>
<path d="M5.88232 130.294V143.366C5.88232 147.03 8.85232 150 12.5159 150H137.484C141.148 150 144.118 147.03 144.118 143.366V130.294H5.88232Z" fill="url(#paint13_linear_2577_5188)"/>
<path d="M144.946 115.588H5.05441C2.26294 115.588 0 113.325 0 110.534V94.7059C0 91.9144 2.26294 89.6515 5.05441 89.6515H144.946C147.737 89.6515 150 91.9144 150 94.7059V110.534C150 113.325 147.737 115.588 144.946 115.588Z" fill="url(#paint14_linear_2577_5188)"/>
<path d="M0 100.588V110.534C0 113.325 2.26294 115.588 5.05441 115.588H144.946C147.737 115.588 150 113.325 150 110.534V100.588H0Z" fill="url(#paint15_linear_2577_5188)"/>
</g>
<defs>
<linearGradient id="paint0_linear_2577_5188" x1="71.2205" y1="32.4573" x2="73.0047" y2="24.9385" gradientUnits="userSpaceOnUse">
<stop stop-color="#FFEEE6"/>
<stop offset="1" stop-color="#FFB09E"/>
</linearGradient>
<linearGradient id="paint1_linear_2577_5188" x1="75.3014" y1="32.2702" x2="77.7596" y2="23.0546" gradientUnits="userSpaceOnUse">
<stop stop-color="#FFEEE6"/>
<stop offset="1" stop-color="#FFB09E"/>
</linearGradient>
<linearGradient id="paint2_linear_2577_5188" x1="81.2563" y1="31.9603" x2="84.3147" y2="21.2555" gradientUnits="userSpaceOnUse">
<stop stop-color="#FFEEE6"/>
<stop offset="1" stop-color="#FFB09E"/>
</linearGradient>
<linearGradient id="paint3_linear_2577_5188" x1="59.7058" y1="48.9706" x2="104.123" y2="93.3877" gradientUnits="userSpaceOnUse">
<stop stop-color="#FEE45A"/>
<stop offset="1" stop-color="#FE9738"/>
</linearGradient>
<linearGradient id="paint4_linear_2577_5188" x1="87.3359" y1="76.6006" x2="51.51" y2="40.7747" gradientUnits="userSpaceOnUse">
<stop stop-color="#FEE45A"/>
<stop offset="1" stop-color="#FE9738"/>
</linearGradient>
<linearGradient id="paint5_linear_2577_5188" x1="64.1746" y1="53.4394" x2="95.6138" y2="84.8785" gradientUnits="userSpaceOnUse">
<stop stop-color="#FEE45A"/>
<stop offset="1" stop-color="#FE9738"/>
</linearGradient>
<linearGradient id="paint6_linear_2577_5188" x1="63.8398" y1="55.7532" x2="91.9281" y2="75.9003" gradientUnits="userSpaceOnUse">
<stop stop-color="#FE9738"/>
<stop offset="1" stop-color="#F46700"/>
</linearGradient>
<linearGradient id="paint7_linear_2577_5188" x1="75" y1="73.9706" x2="75" y2="101.324" gradientUnits="userSpaceOnUse">
<stop stop-color="#FE7701" stop-opacity="0"/>
<stop offset="0.209" stop-color="#FA7303" stop-opacity="0.209"/>
<stop offset="0.4275" stop-color="#ED6809" stop-opacity="0.428"/>
<stop offset="0.6502" stop-color="#D85613" stop-opacity="0.65"/>
<stop offset="0.8745" stop-color="#BB3C21" stop-opacity="0.875"/>
<stop offset="1" stop-color="#A72B2B"/>
</linearGradient>
<linearGradient id="paint8_linear_2577_5188" x1="76.9249" y1="83.4571" x2="64.6841" y2="44.8647" gradientUnits="userSpaceOnUse">
<stop stop-color="#FE7701" stop-opacity="0"/>
<stop offset="0.1854" stop-color="#F87204" stop-opacity="0.185"/>
<stop offset="0.4314" stop-color="#E7630C" stop-opacity="0.431"/>
<stop offset="0.7114" stop-color="#CB4B19" stop-opacity="0.711"/>
<stop offset="1" stop-color="#A72B2B"/>
</linearGradient>
<linearGradient id="paint9_linear_2577_5188" x1="49.2268" y1="-8.90118" x2="67.4621" y2="45.5106" gradientUnits="userSpaceOnUse">
<stop stop-color="#FFEEE6"/>
<stop offset="1" stop-color="#FFB09E"/>
</linearGradient>
<linearGradient id="paint10_linear_2577_5188" x1="54.5716" y1="45.5668" x2="56.3363" y2="66.4491" gradientUnits="userSpaceOnUse">
<stop stop-color="#F89580" stop-opacity="0"/>
<stop offset="0.3577" stop-color="#E98A75" stop-opacity="0.359"/>
<stop offset="0.9972" stop-color="#C5715A"/>
</linearGradient>
<linearGradient id="paint11_linear_2577_5188" x1="66.2341" y1="105.412" x2="99.7617" y2="177.761" gradientUnits="userSpaceOnUse">
<stop stop-color="#B1C6EE"/>
<stop offset="1" stop-color="#4A76A0"/>
</linearGradient>
<linearGradient id="paint12_linear_2577_5188" x1="75" y1="155" x2="75" y2="66.6688" gradientUnits="userSpaceOnUse">
<stop stop-color="#334E74" stop-opacity="0"/>
<stop offset="1" stop-color="#335474"/>
</linearGradient>
<linearGradient id="paint13_linear_2577_5188" x1="75" y1="137.059" x2="75" y2="151.962" gradientUnits="userSpaceOnUse">
<stop stop-color="#335874" stop-opacity="0"/>
<stop offset="1" stop-color="#335774"/>
</linearGradient>
<linearGradient id="paint14_linear_2577_5188" x1="63.5847" y1="81.9571" x2="94.5315" y2="137.974" gradientUnits="userSpaceOnUse">
<stop stop-color="#B1D3EE"/>
<stop offset="1" stop-color="#4A75A0"/>
</linearGradient>
<linearGradient id="paint15_linear_2577_5188" x1="75" y1="105.294" x2="75" y2="120.366" gradientUnits="userSpaceOnUse">
<stop stop-color="#335674" stop-opacity="0"/>
<stop offset="1" stop-color="#335174"/>
</linearGradient>
<clipPath id="clip0_2577_5188">
<rect width="150" height="150" fill="white"/>
</clipPath>
</defs>
</svg>
