<svg width="45" height="46" viewBox="0 0 45 46" fill="none" xmlns="http://www.w3.org/2000/svg">
<g clip-path="url(#clip0_2577_6312)">
<path d="M22.5 45.5C34.9264 45.5 45 35.4264 45 23C45 10.5736 34.9264 0.5 22.5 0.5C10.0736 0.5 0 10.5736 0 23C0 35.4264 10.0736 45.5 22.5 45.5Z" fill="url(#paint0_linear_2577_6312)"/>
<path d="M17.0339 19.8773C17.0339 20.1732 17.2009 20.443 17.4656 20.5757L22.1508 22.9177C22.2606 22.9727 22.3803 23.0001 22.5001 23.0001C22.6199 23.0001 22.7395 22.9727 22.8494 22.9177L27.5347 20.5757C27.7993 20.4431 27.9663 20.1732 27.9663 19.8773V14.4126C27.9663 14.1168 27.7993 13.847 27.5347 13.7143L22.8494 11.3722C22.6298 11.2625 22.3705 11.2625 22.1509 11.3722L17.4657 13.7143C17.201 13.8469 17.034 14.1168 17.034 14.4126V19.8773H17.0339ZM20.6081 15.8092C20.7995 15.4243 21.2716 15.2695 21.6558 15.46L22.5 15.8817L23.3442 15.46C23.7301 15.2694 24.1998 15.4242 24.392 15.8092C24.5849 16.195 24.4286 16.6639 24.0427 16.8567L23.2809 17.2372V18.7283C23.2809 19.1599 22.9317 19.509 22.5 19.509C22.0684 19.509 21.7191 19.1598 21.7191 18.7283V17.2372L20.9574 16.8567C20.5714 16.6639 20.4152 16.195 20.6081 15.8092ZM30.3088 23.7806H14.6913C14.2597 23.7806 13.9104 24.1298 13.9104 24.5613C13.9104 24.9928 14.2597 25.3419 14.6913 25.3419H15.4722V27.684C15.4722 27.9447 15.6025 28.1886 15.8199 28.3335L20.1574 31.2244V35.4907C20.1574 35.7613 20.2977 36.0121 20.528 36.1547C20.7534 36.2949 21.0404 36.3117 21.2876 36.189L24.4111 34.6276C24.6757 34.495 24.8428 34.225 24.8428 33.9292V31.2243L29.1802 28.3334C29.3976 28.1885 29.5279 27.9445 29.5279 27.6839V25.3418H30.3088C30.7405 25.3418 31.0898 24.9927 31.0898 24.5612C31.0897 24.1298 30.7404 23.7806 30.3088 23.7806ZM31.8705 11.2899C31.4389 11.2899 31.0896 11.6391 31.0896 12.0705V16.7546C31.0896 17.1861 31.4389 17.5352 31.8705 17.5352C32.3021 17.5352 32.6514 17.186 32.6514 16.7546V12.0705C32.6514 11.639 32.3021 11.2899 31.8705 11.2899ZM13.9104 12.0705C13.9104 11.639 13.5611 11.2899 13.1295 11.2899C12.6978 11.2899 12.3486 11.6391 12.3486 12.0705V16.7546C12.3486 17.1861 12.6978 17.5352 13.1295 17.5352C13.5611 17.5352 13.9104 17.186 13.9104 16.7546V12.0705ZM28.747 12.8512C29.1787 12.8512 29.5279 12.502 29.5279 12.0705V10.5092C29.5279 10.0776 29.1787 9.72852 28.747 9.72852C28.3154 9.72852 27.9661 10.0777 27.9661 10.5092V12.0705C27.9661 12.5021 28.3154 12.8512 28.747 12.8512ZM16.253 12.8512C16.6847 12.8512 17.0339 12.502 17.0339 12.0705V10.5092C17.0339 10.0776 16.6847 9.72852 16.253 9.72852C15.8214 9.72852 15.4721 10.0777 15.4721 10.5092V12.0705C15.4722 12.5021 15.8214 12.8512 16.253 12.8512Z" fill="url(#paint1_linear_2577_6312)"/>
</g>
<defs>
<linearGradient id="paint0_linear_2577_6312" x1="22.5" y1="45.5" x2="22.5" y2="0.5" gradientUnits="userSpaceOnUse">
<stop stop-color="#FFBEF9"/>
<stop offset="1" stop-color="#FFF1FF"/>
</linearGradient>
<linearGradient id="paint1_linear_2577_6312" x1="22.5" y1="36.2715" x2="22.5" y2="9.72852" gradientUnits="userSpaceOnUse">
<stop stop-color="#FF81FF"/>
<stop offset="1" stop-color="#A93AFF"/>
</linearGradient>
<clipPath id="clip0_2577_6312">
<rect width="45" height="45" fill="white" transform="translate(0 0.5)"/>
</clipPath>
</defs>
</svg>
