<svg width="45" height="46" viewBox="0 0 45 46" fill="none" xmlns="http://www.w3.org/2000/svg">
<g clip-path="url(#clip0_2577_6323)">
<path d="M22.5 45.5C34.9264 45.5 45 35.4264 45 23C45 10.5736 34.9264 0.5 22.5 0.5C10.0736 0.5 0 10.5736 0 23C0 35.4264 10.0736 45.5 22.5 45.5Z" fill="url(#paint0_linear_2577_6323)"/>
<path d="M33.4386 20.6671C33.2931 20.6671 33.1508 20.6812 33.0125 20.7068L29.7416 15.0414C30.0907 14.6335 30.3021 14.1046 30.3021 13.527C30.3021 12.2406 29.2556 11.1941 27.9693 11.1941C26.9555 11.1941 26.0911 11.8442 25.7701 12.7493H19.2298C18.9088 11.8442 18.0444 11.1941 17.0307 11.1941C15.7443 11.1941 14.6978 12.2406 14.6978 13.527C14.6978 14.1047 14.9093 14.6336 15.2583 15.0414L11.9874 20.7068C11.8492 20.6812 11.7069 20.6671 11.5614 20.6671C10.275 20.6671 9.22852 21.7136 9.22852 23C9.22852 24.2864 10.275 25.3329 11.5614 25.3329C11.7069 25.3329 11.8492 25.3188 11.9874 25.2932L15.2583 30.9586C14.9093 31.3665 14.6978 31.8954 14.6978 32.473C14.6978 33.7594 15.7443 34.8059 17.0307 34.8059C18.0444 34.8059 18.9088 34.1557 19.2298 33.2506H25.7701C26.0911 34.1557 26.9555 34.8059 27.9693 34.8059C29.2556 34.8059 30.3021 33.7594 30.3021 32.473C30.3021 31.8953 30.0906 31.3664 29.7416 30.9586L33.0125 25.2932C33.1508 25.3188 33.293 25.3329 33.4386 25.3329C34.725 25.3329 35.7715 24.2864 35.7715 23C35.7715 21.7136 34.725 20.6671 33.4386 20.6671ZM29.9718 22.2223C30.1675 22.6861 30.2763 23.1951 30.2763 23.7292C30.2763 23.7454 30.2752 23.7614 30.2751 23.7776H31.2395C31.3361 24.0499 31.482 24.299 31.6663 24.5144L28.3954 30.1799C28.2571 30.1542 28.1149 30.1401 27.9693 30.1401C27.8236 30.1401 27.6814 30.1542 27.5432 30.1799L26.0637 27.6173H24.2678L26.1969 30.9586C26.0126 31.174 25.8667 31.423 25.7701 31.6954H19.2298C19.1332 31.423 18.9873 31.174 18.803 30.9586L20.7321 27.6173H18.9362L17.4567 30.1799C17.3185 30.1542 17.1763 30.1401 17.0307 30.1401C16.8852 30.1401 16.7429 30.1542 16.6047 30.1799L13.3338 24.5144C13.5181 24.299 13.664 24.0499 13.7606 23.7776H14.725C14.7248 23.7614 14.7238 23.7454 14.7238 23.7292C14.7238 23.1951 14.8327 22.6861 15.0284 22.2223H13.7605C13.6639 21.95 13.518 21.7009 13.3337 21.4855L16.6046 15.82C16.7429 15.8457 16.8851 15.8598 17.0307 15.8598C17.1762 15.8598 17.3185 15.8457 17.4567 15.82L18.7294 18.0243C19.1756 17.7501 19.6876 17.5731 20.2358 17.5232L18.803 15.0414C18.9873 14.826 19.1332 14.5769 19.2298 14.3045H25.7701C25.8667 14.5769 26.0126 14.826 26.1969 15.0414L25.1337 16.883C25.6436 17.0304 26.1107 17.2796 26.5115 17.607L27.5432 15.8201C27.6814 15.8458 27.8237 15.8599 27.9693 15.8599C28.1148 15.8599 28.2571 15.8458 28.3954 15.8201L31.6663 21.4856C31.482 21.701 31.3361 21.9501 31.2395 22.2224H29.9718V22.2223ZM28.721 23.7293C28.721 25.0177 27.6765 26.0622 26.3881 26.0622H18.6118C17.3234 26.0622 16.2789 25.0177 16.2789 23.7293C16.2789 22.4409 17.3234 21.3964 18.6118 21.3964C18.6251 21.3964 18.638 21.3982 18.6512 21.3985C18.6254 21.2722 18.6118 21.1416 18.6118 21.0076C18.6118 19.9339 19.4822 19.0636 20.5559 19.0636C21.0972 19.0636 21.586 19.2856 21.9385 19.6426C22.3082 18.8424 23.1158 18.2859 24.0551 18.2859C25.3435 18.2859 26.388 19.3304 26.388 20.6188C26.388 20.8945 26.3377 21.1579 26.2499 21.4034C26.2958 21.4007 26.3413 21.3964 26.388 21.3964C27.6766 21.3964 28.721 22.4408 28.721 23.7293Z" fill="url(#paint1_linear_2577_6323)"/>
</g>
<defs>
<linearGradient id="paint0_linear_2577_6323" x1="22.5" y1="-0.25" x2="21.75" y2="45.5" gradientUnits="userSpaceOnUse">
<stop stop-color="#FEF8EA"/>
<stop offset="1" stop-color="#FEE9BC"/>
</linearGradient>
<linearGradient id="paint1_linear_2577_6323" x1="9.46263" y1="15.2581" x2="23.0579" y2="38.1525" gradientUnits="userSpaceOnUse">
<stop stop-color="#EFA401"/>
<stop offset="1" stop-color="#F5B938"/>
</linearGradient>
<clipPath id="clip0_2577_6323">
<rect width="45" height="45" fill="white" transform="translate(0 0.5)"/>
</clipPath>
</defs>
</svg>
