<svg width="45" height="46" viewBox="0 0 45 46" fill="none" xmlns="http://www.w3.org/2000/svg">
<g clip-path="url(#clip0_2577_6339)">
<path d="M22.5 45.5C34.9264 45.5 45 35.4264 45 23C45 10.5736 34.9264 0.5 22.5 0.5C10.0736 0.5 0 10.5736 0 23C0 35.4264 10.0736 45.5 22.5 45.5Z" fill="url(#paint0_linear_2577_6339)"/>
<path d="M28.8036 20.7333C29.0679 20.7333 29.3283 20.7496 29.5867 20.7731V15.2309C29.5867 14.933 29.4192 14.6612 29.1539 14.5277L19.7578 9.81144C19.5376 9.70087 19.2776 9.70087 19.0574 9.81144L9.66141 14.5277C9.39607 14.6613 9.22864 14.9331 9.22864 15.2309V26.2356C9.22864 26.5334 9.39607 26.8052 9.66141 26.9387L19.0574 31.655C19.1676 31.7103 19.2876 31.7379 19.4077 31.7379C19.5277 31.7379 19.6478 31.7103 19.7579 31.655L20.4182 31.3236C20.2741 30.6976 20.1907 30.0489 20.1907 29.3797C20.1906 24.612 24.0544 20.7333 28.8036 20.7333ZM19.4076 28.223C18.9748 28.223 18.6246 27.8715 18.6246 27.437V20.4332L13.1627 17.6912C12.7758 17.497 12.619 17.0249 12.8125 16.6365C13.0059 16.2481 13.4769 16.0915 13.8631 16.2849L19.4076 19.0683L24.9521 16.2849C25.3398 16.0915 25.8085 16.2481 26.0027 16.6365C26.1962 17.0249 26.0395 17.497 25.6525 17.6912L20.1906 20.4332V27.437C20.1906 27.8715 19.8404 28.223 19.4076 28.223ZM28.7883 23.0899C28.3697 23.2184 27.41 25.397 27.2665 28.5938H30.3408C30.1971 25.397 29.2353 23.2184 28.7883 23.0899ZM28.8189 35.6698C29.2376 35.5413 30.1972 33.3627 30.3408 30.1659H27.2666C27.4103 33.3627 28.372 35.5413 28.8189 35.6698ZM35.7715 28.5938C35.4343 25.5846 33.2395 23.1415 30.3468 22.4883C31.3131 23.8451 31.8178 26.3928 31.9157 28.5938H35.7715ZM21.8358 30.1659C22.173 33.1751 24.3679 35.6182 27.2605 36.2714C26.2942 34.9146 25.7894 32.3669 25.6916 30.1659H21.8358ZM30.3467 36.2714C33.2394 35.6182 35.4344 33.1751 35.7715 30.1659H31.9157C31.8178 32.3669 31.313 34.9146 30.3467 36.2714ZM25.6916 28.5938C25.7895 26.3929 26.2943 23.8451 27.2605 22.4883C24.3678 23.1415 22.1729 25.5846 21.8358 28.5938H25.6916Z" fill="url(#paint1_linear_2577_6339)"/>
</g>
<defs>
<linearGradient id="paint0_linear_2577_6339" x1="22.5" y1="45.5" x2="22.5" y2="0.5" gradientUnits="userSpaceOnUse">
<stop stop-color="#FFC2CC"/>
<stop offset="1" stop-color="#FFF2F4"/>
</linearGradient>
<linearGradient id="paint1_linear_2577_6339" x1="22.5" y1="36.2714" x2="22.5" y2="9.72847" gradientUnits="userSpaceOnUse">
<stop stop-color="#FFA68D"/>
<stop offset="1" stop-color="#FD3A84"/>
</linearGradient>
<clipPath id="clip0_2577_6339">
<rect width="45" height="45" fill="white" transform="translate(0 0.5)"/>
</clipPath>
</defs>
</svg>
