<svg width="45" height="46" viewBox="0 0 45 46" fill="none" xmlns="http://www.w3.org/2000/svg">
<g clip-path="url(#clip0_2577_6350)">
<path d="M22.5 45.5C34.9264 45.5 45 35.4264 45 23C45 10.5736 34.9264 0.5 22.5 0.5C10.0736 0.5 0 10.5736 0 23C0 35.4264 10.0736 45.5 22.5 45.5Z" fill="url(#paint0_linear_2577_6350)"/>
<path d="M34.9908 27.6802H10.0092C9.57762 27.6802 9.22852 28.029 9.22852 28.4602C9.22852 30.6106 10.9797 32.3604 13.1319 32.3604H31.8682C34.0204 32.3604 35.7716 30.6106 35.7716 28.4602C35.7715 28.029 35.4223 27.6802 34.9908 27.6802ZM27.9647 23H29.5261V16.7598H27.9647V23ZM21.7194 23H23.2807V19.8799H21.7194V23ZM15.4739 23H17.0353V21.4399H15.4739V23ZM34.2101 15.9797C34.2101 14.6893 33.1596 13.6396 31.8681 13.6396H13.1319C11.8404 13.6396 10.7899 14.6893 10.7899 15.9797V26.1201H34.2102V15.9797H34.2101ZM18.5966 23.78C18.5966 24.2112 18.2474 24.5601 17.816 24.5601H14.6933C14.2617 24.5601 13.9126 24.2112 13.9126 23.78V20.6599C13.9126 20.2287 14.2618 19.8799 14.6933 19.8799H17.816C18.2475 19.8799 18.5966 20.2287 18.5966 20.6599V23.78ZM24.842 23.78C24.842 24.2112 24.4928 24.5601 24.0614 24.5601H20.9387C20.5072 24.5601 20.1581 24.2112 20.1581 23.78V19.0999C20.1581 18.6687 20.5073 18.3198 20.9387 18.3198H24.0614C24.4929 18.3198 24.842 18.6687 24.842 19.0999V23.78ZM31.0874 23.78C31.0874 24.2112 30.7383 24.5601 30.3068 24.5601H27.1841C26.7526 24.5601 26.4035 24.2112 26.4035 23.78V15.9797C26.4035 15.5485 26.7527 15.1997 27.1841 15.1997H30.3068C30.7383 15.1997 31.0874 15.5485 31.0874 15.9797V23.78Z" fill="url(#paint1_linear_2577_6350)"/>
</g>
<defs>
<linearGradient id="paint0_linear_2577_6350" x1="22.5" y1="45.5" x2="22.5" y2="0.5" gradientUnits="userSpaceOnUse">
<stop stop-color="#ADDCFF"/>
<stop offset="0.5028" stop-color="#EAF6FF"/>
<stop offset="1" stop-color="#EAF6FF"/>
</linearGradient>
<linearGradient id="paint1_linear_2577_6350" x1="22.5" y1="32.3604" x2="22.5" y2="13.6396" gradientUnits="userSpaceOnUse">
<stop stop-color="#00C0FF"/>
<stop offset="1" stop-color="#5558FF"/>
</linearGradient>
<clipPath id="clip0_2577_6350">
<rect width="45" height="45" fill="white" transform="translate(0 0.5)"/>
</clipPath>
</defs>
</svg>
