<svg width="45" height="46" viewBox="0 0 45 46" fill="none" xmlns="http://www.w3.org/2000/svg">
<g clip-path="url(#clip0_2577_6361)">
<path d="M22.5 45.5C34.9264 45.5 45 35.4264 45 23C45 10.5736 34.9264 0.5 22.5 0.5C10.0736 0.5 0 10.5736 0 23C0 35.4264 10.0736 45.5 22.5 45.5Z" fill="url(#paint0_linear_2577_6361)"/>
<path d="M22.5 45.5C34.9264 45.5 45 35.4264 45 23C45 10.5736 34.9264 0.5 22.5 0.5C10.0736 0.5 0 10.5736 0 23C0 35.4264 10.0736 45.5 22.5 45.5Z" fill="url(#paint1_linear_2577_6361)"/>
<path d="M21.7194 26.1289C21.7194 26.5605 22.07 26.9111 22.5 26.9111C22.93 26.9111 23.2806 26.5605 23.2806 26.1289V25.3467H22.5C22.07 25.3467 21.7194 25.6973 21.7194 26.1289ZM33.4295 14.3955H18.5966V13.6133C18.5966 12.3193 17.546 11.2666 16.2546 11.2666H11.5705C10.2791 11.2666 9.22852 12.3193 9.22852 13.6133V17.5244H35.7715V16.7422C35.7715 15.4482 34.7209 14.3955 33.4295 14.3955ZM9.22852 32.3867C9.22852 33.6807 10.2791 34.7334 11.5705 34.7334H33.4295C34.7209 34.7334 35.7715 33.6807 35.7715 32.3867V19.0889H9.22852V32.3867ZM22.5 20.6533C25.5129 20.6533 27.9648 23.11 27.9648 26.1289C27.9648 27.4229 26.9142 28.4756 25.6228 28.4756C25.0208 28.4756 24.4767 28.2405 24.0614 27.8652C23.6461 28.2405 23.1021 28.4756 22.5 28.4756C21.2085 28.4756 20.158 27.4229 20.158 26.1289C20.158 24.8349 21.2085 23.7822 22.5 23.7822H24.0614C24.4929 23.7822 24.842 24.1321 24.842 24.5645V26.1289C24.842 26.5605 25.1927 26.9111 25.6227 26.9111C26.0526 26.9111 26.4033 26.5605 26.4033 26.1289C26.4033 23.9724 24.6529 22.2178 22.4999 22.2178C20.3469 22.2178 18.5965 23.9724 18.5965 26.1289C18.5965 28.2854 20.3469 30.04 22.4999 30.04C22.9467 30.04 23.3858 29.9652 23.802 29.8178C24.2106 29.6734 24.6544 29.8857 24.7992 30.2944C24.9426 30.7016 24.7291 31.1484 24.3235 31.292C23.7379 31.4998 23.125 31.6045 22.4998 31.6045C19.4869 31.6045 17.035 29.1479 17.035 26.1289C17.0352 23.11 19.4871 20.6533 22.5 20.6533Z" fill="url(#paint2_linear_2577_6361)"/>
</g>
<defs>
<linearGradient id="paint0_linear_2577_6361" x1="22.5" y1="45.5" x2="22.5" y2="0.5" gradientUnits="userSpaceOnUse">
<stop stop-color="#FFE59A"/>
<stop offset="1" stop-color="#FFFFD5"/>
</linearGradient>
<linearGradient id="paint1_linear_2577_6361" x1="22.5" y1="-0.25" x2="21.75" y2="45.5" gradientUnits="userSpaceOnUse">
<stop stop-color="#FEF8EA"/>
<stop offset="1" stop-color="#FEE9BC"/>
</linearGradient>
<linearGradient id="paint2_linear_2577_6361" x1="9.46263" y1="15.3056" x2="22.9345" y2="38.1323" gradientUnits="userSpaceOnUse">
<stop stop-color="#EFA401"/>
<stop offset="1" stop-color="#F5B938"/>
</linearGradient>
<clipPath id="clip0_2577_6361">
<rect width="45" height="45" fill="white" transform="translate(0 0.5)"/>
</clipPath>
</defs>
</svg>
