<svg width="45" height="46" viewBox="0 0 45 46" fill="none" xmlns="http://www.w3.org/2000/svg">
<g clip-path="url(#clip0_2577_6372)">
<path d="M22.5 45.5C34.9264 45.5 45 35.4264 45 23C45 10.5736 34.9264 0.5 22.5 0.5C10.0736 0.5 0 10.5736 0 23C0 35.4264 10.0736 45.5 22.5 45.5Z" fill="url(#paint0_linear_2577_6372)"/>
<path d="M22.5 25.3643C26.4096 25.3643 29.5898 22.1827 29.5898 18.2715C29.5898 14.3604 26.4095 11.1787 22.5 11.1787C18.5904 11.1787 15.4101 14.3603 15.4101 18.2715C15.4101 22.1827 18.5903 25.3643 22.5 25.3643ZM21.7122 15.1191C21.7122 14.6835 22.0646 14.331 22.5 14.331C22.9354 14.331 23.2877 14.6834 23.2877 15.1191V17.4834H25.651C26.0864 17.4834 26.4388 17.8358 26.4388 18.2715C26.4388 18.7072 26.0864 19.0596 25.651 19.0596H22.5C22.0646 19.0596 21.7122 18.7072 21.7122 18.2715V15.1191ZM34.9708 31.6689H10.0292C9.51764 31.6689 9.10403 32.16 9.26302 32.6464C9.67523 33.9078 10.8628 34.8213 12.259 34.8213H32.741C34.1373 34.8213 35.3248 33.9078 35.737 32.6464C35.8959 32.16 35.4824 31.6689 34.9708 31.6689ZM34.3164 19.8476C34.3164 18.5439 33.2563 17.4834 31.9531 17.4834H31.1255C31.149 17.7433 31.1654 18.0054 31.1654 18.2715C31.1654 23.0516 27.2773 26.9405 22.5 26.9405C17.7226 26.9405 13.8346 23.0516 13.8346 18.2715C13.8346 18.0055 13.8509 17.7433 13.8745 17.4834H13.0468C11.7436 17.4834 10.6835 18.5439 10.6835 19.8476V30.0928H34.3165V19.8476H34.3164Z" fill="url(#paint1_linear_2577_6372)"/>
</g>
<defs>
<linearGradient id="paint0_linear_2577_6372" x1="23.25" y1="0.5" x2="23.25" y2="43.25" gradientUnits="userSpaceOnUse">
<stop stop-color="#EAFFFC"/>
<stop offset="1" stop-color="#BCFFF6"/>
</linearGradient>
<linearGradient id="paint1_linear_2577_6372" x1="12.8372" y1="7.63855" x2="35.282" y2="26.7022" gradientUnits="userSpaceOnUse">
<stop stop-color="#3FFFE5"/>
<stop offset="1" stop-color="#08C5AC"/>
</linearGradient>
<clipPath id="clip0_2577_6372">
<rect width="45" height="45" fill="white" transform="translate(0 0.5)"/>
</clipPath>
</defs>
</svg>
