<svg width="45" height="46" viewBox="0 0 45 46" fill="none" xmlns="http://www.w3.org/2000/svg">
<g clip-path="url(#clip0_2577_6225)">
<path d="M22.4993 45.5015C34.9257 45.5015 44.9993 35.4279 44.9993 23.0015C44.9993 10.5751 34.9257 0.501465 22.4993 0.501465C10.0729 0.501465 -0.000671387 10.5751 -0.000671387 23.0015C-0.000671387 35.4279 10.0729 45.5015 22.4993 45.5015Z" fill="url(#paint0_linear_2577_6225)"/>
<path d="M44.3627 28.3348C42.1786 37.3216 34.5963 44.1981 25.2447 45.3354L12.142 32.2301L17.1518 17.6402L30.9233 14.8945L44.3627 28.3348Z" fill="url(#paint1_linear_2577_6225)"/>
<path d="M21.8364 11.488C15.2384 11.488 9.89029 15.7947 9.89029 21.098C9.89029 23.1643 10.7006 25.0768 12.0796 26.6439L11.5831 31.1395C11.5571 31.3743 11.599 31.6116 11.7036 31.8234C11.8082 32.0352 11.9713 32.2126 12.1735 32.3347C12.3757 32.4568 12.6086 32.5184 12.8448 32.5124C13.0809 32.5063 13.3104 32.4328 13.5061 32.3005L17.0543 29.9046C18.5916 30.4398 20.2085 30.7108 21.8364 30.7062C28.4343 30.7062 33.7834 26.4048 33.7834 21.098C33.7834 15.7912 28.4343 11.488 21.8364 11.488Z" fill="url(#paint2_linear_2577_6225)"/>
<path d="M26.129 18.5193C31.1554 18.5193 35.2292 21.7958 35.2292 25.8379C35.2292 27.4112 34.6139 28.8684 33.5592 30.062L33.9372 33.4897C33.9572 33.6686 33.9255 33.8494 33.8459 34.0109C33.7664 34.1723 33.6422 34.3076 33.4882 34.4007C33.3342 34.4938 33.1567 34.5408 32.9768 34.5362C32.7968 34.5316 32.622 34.4756 32.4729 34.3748L29.7703 32.5493C28.5992 32.9573 27.3674 33.1638 26.1272 33.1601C21.1016 33.1601 17.027 29.8835 17.027 25.8415C17.027 21.7994 21.1034 18.5193 26.129 18.5193Z" fill="url(#paint3_linear_2577_6225)"/>
<path d="M29.4519 22.9585H22.7784C22.4046 22.9585 22.1017 23.2615 22.1017 23.6353C22.1017 24.009 22.4046 24.312 22.7784 24.312H29.4519C29.8257 24.312 30.1287 24.009 30.1287 23.6353C30.1287 23.2615 29.8257 22.9585 29.4519 22.9585Z" fill="url(#paint4_linear_2577_6225)"/>
<path d="M29.4662 25.3508H22.7926C22.4189 25.3508 22.1159 25.6538 22.1159 26.0276C22.1159 26.4013 22.4189 26.7043 22.7926 26.7043H29.4662C29.8399 26.7043 30.1429 26.4013 30.1429 26.0276C30.1429 25.6538 29.8399 25.3508 29.4662 25.3508Z" fill="url(#paint5_linear_2577_6225)"/>
<path d="M29.4827 27.7429H22.8092C22.4354 27.7429 22.1324 28.0459 22.1324 28.4197C22.1324 28.7934 22.4354 29.0964 22.8092 29.0964H29.4827C29.8565 29.0964 30.1595 28.7934 30.1595 28.4197C30.1595 28.0459 29.8565 27.7429 29.4827 27.7429Z" fill="url(#paint6_linear_2577_6225)"/>
</g>
<defs>
<linearGradient id="paint0_linear_2577_6225" x1="6.58937" y1="7.0915" x2="38.4093" y2="38.9114" gradientUnits="userSpaceOnUse">
<stop stop-color="#FFEAEA"/>
<stop offset="1" stop-color="#FFBCBC"/>
</linearGradient>
<linearGradient id="paint1_linear_2577_6225" x1="16.3818" y1="18.4137" x2="37.6443" y2="39.6753" gradientUnits="userSpaceOnUse">
<stop stop-color="#A01C52"/>
<stop offset="1" stop-color="#A01C52" stop-opacity="0"/>
</linearGradient>
<linearGradient id="paint2_linear_2577_6225" x1="12.7661" y1="14.8375" x2="28.0977" y2="30.1692" gradientUnits="userSpaceOnUse">
<stop stop-color="#FEE1E1"/>
<stop offset="1" stop-color="#F82626"/>
</linearGradient>
<linearGradient id="paint3_linear_2577_6225" x1="20.2904" y1="20.0011" x2="34.1086" y2="33.8202" gradientUnits="userSpaceOnUse">
<stop stop-color="#FA8383"/>
<stop offset="1" stop-color="#F61717"/>
</linearGradient>
<linearGradient id="paint4_linear_2577_6225" x1="23.9685" y1="21.4881" x2="28.2619" y2="25.7815" gradientUnits="userSpaceOnUse">
<stop stop-color="#FEE1E1"/>
<stop offset="1" stop-color="#FC8383"/>
</linearGradient>
<linearGradient id="paint5_linear_2577_6225" x1="23.9827" y1="23.8804" x2="28.2761" y2="28.1739" gradientUnits="userSpaceOnUse">
<stop stop-color="#FEE1E1"/>
<stop offset="1" stop-color="#FC8383"/>
</linearGradient>
<linearGradient id="paint6_linear_2577_6225" x1="23.9992" y1="26.2725" x2="28.2927" y2="30.566" gradientUnits="userSpaceOnUse">
<stop stop-color="#FEE1E1"/>
<stop offset="1" stop-color="#FC8383"/>
</linearGradient>
<clipPath id="clip0_2577_6225">
<rect width="45" height="45" fill="white" transform="translate(0 0.5)"/>
</clipPath>
</defs>
</svg>
