<svg width="45" height="46" viewBox="0 0 45 46" fill="none" xmlns="http://www.w3.org/2000/svg">
<g clip-path="url(#clip0_2577_6240)">
<path d="M22.4974 45.499C34.9238 45.499 44.9974 35.4254 44.9974 22.999C44.9974 10.5726 34.9238 0.499023 22.4974 0.499023C10.071 0.499023 -0.00262451 10.5726 -0.00262451 22.999C-0.00262451 35.4254 10.071 45.499 22.4974 45.499Z" fill="url(#paint0_linear_2577_6240)"/>
<path d="M22.4978 12.8514C23.46 12.8514 24.3382 12.2484 24.6843 11.3518C24.8856 10.8297 24.8836 10.2768 24.7088 9.72876H20.2941C20.0771 10.4191 20.1322 11.1177 20.4859 11.7094C20.9136 12.4245 21.6653 12.8514 22.4978 12.8514ZM14.691 19.0968H17.0331V22.2196H27.9625V19.0968H30.3045C30.7361 19.0968 31.0852 18.7477 31.0852 18.3162V13.6322C31.0852 11.48 29.334 9.72876 27.1818 9.72876H26.3135C26.4591 10.4612 26.4144 11.2037 26.1412 11.913C25.5648 13.408 24.1002 14.4129 22.4977 14.4129C21.1316 14.4129 19.847 13.684 19.1456 12.51C18.6382 11.6609 18.5038 10.6918 18.6941 9.72885H17.8137C15.6615 9.72885 13.9103 11.4801 13.9103 13.6322V18.3163C13.9104 18.7477 14.2596 19.0968 14.691 19.0968ZM35.6382 28.8126L32.5155 24.1286C32.3589 23.9846 32.2275 23.781 31.8659 23.781H13.1297C12.7707 23.781 12.6367 23.9848 12.4802 24.1286L9.35756 28.8126C9.11815 29.1717 9.215 29.6559 9.57404 29.8952C9.93931 30.1373 10.4214 30.0321 10.6566 29.6786L12.3491 27.1399V33.9296C12.3491 35.2211 13.3997 36.2716 14.6911 36.2716H30.3046C31.5961 36.2716 32.6466 35.2211 32.6466 33.9296V27.1399L34.3392 29.6786C34.5744 30.0322 35.0566 30.1371 35.4217 29.8952C35.7807 29.6559 35.8776 29.1717 35.6382 28.8126ZM29.5239 32.3683C29.5239 32.7999 29.1747 33.149 28.7432 33.149H24.0592C23.6277 33.149 23.2786 32.7998 23.2786 32.3683V29.2457C23.2786 28.8141 23.6277 28.465 24.0592 28.465H28.7432C29.1748 28.465 29.5239 28.8142 29.5239 29.2457V32.3683ZM24.8398 31.5877H27.9626V30.0263H24.8398V31.5877Z" fill="url(#paint1_linear_2577_6240)"/>
</g>
<defs>
<linearGradient id="paint0_linear_2577_6240" x1="22.4974" y1="45.499" x2="22.4974" y2="0.499023" gradientUnits="userSpaceOnUse">
<stop stop-color="#FFBEF9"/>
<stop offset="1" stop-color="#FFF1FF"/>
</linearGradient>
<linearGradient id="paint1_linear_2577_6240" x1="22.4978" y1="36.2717" x2="22.4978" y2="9.72876" gradientUnits="userSpaceOnUse">
<stop stop-color="#C081FF"/>
<stop offset="1" stop-color="#9D3AFF"/>
</linearGradient>
<clipPath id="clip0_2577_6240">
<rect width="45" height="45" fill="white" transform="translate(0 0.5)"/>
</clipPath>
</defs>
</svg>
