<svg width="45" height="46" viewBox="0 0 45 46" fill="none" xmlns="http://www.w3.org/2000/svg">
<g opacity="0.84" clip-path="url(#clip0_2577_6252)">
<path d="M22.5 45.5C34.9264 45.5 45 35.4264 45 23C45 10.5736 34.9264 0.5 22.5 0.5C10.0736 0.5 0 10.5736 0 23C0 35.4264 10.0736 45.5 22.5 45.5Z" fill="url(#paint0_linear_2577_6252)"/>
<path d="M23.0001 10.2559H21.9999C19.1943 10.2559 16.9198 12.5303 16.9198 15.3359V21.8943C16.9198 24.7 19.1943 26.9744 21.9999 26.9744H23.0001C25.8058 26.9744 28.0802 24.7 28.0802 21.8943V15.3359C28.0802 12.5303 25.8058 10.2559 23.0001 10.2559Z" fill="url(#paint1_linear_2577_6252)"/>
<path d="M25.9937 13.5352H24.5971C24.1209 13.5352 23.7349 13.921 23.7349 14.3969C23.7349 14.8729 24.1209 15.2587 24.5971 15.2587H25.9937C26.4698 15.2587 26.8559 14.8729 26.8559 14.3969C26.8559 13.921 26.4698 13.5352 25.9937 13.5352Z" fill="url(#paint2_linear_2577_6252)"/>
<path d="M25.9937 16.2834H24.5971C24.1209 16.2834 23.7349 16.6693 23.7349 17.1452C23.7349 17.6212 24.1209 18.007 24.5971 18.007H25.9937C26.4698 18.007 26.8559 17.6212 26.8559 17.1452C26.8559 16.6693 26.4698 16.2834 25.9937 16.2834Z" fill="url(#paint3_linear_2577_6252)"/>
<path d="M25.9937 19.0317H24.5971C24.1209 19.0317 23.7349 19.4176 23.7349 19.8935C23.7349 20.3694 24.1209 20.7553 24.5971 20.7553H25.9937C26.4698 20.7553 26.8559 20.3694 26.8559 19.8935C26.8559 19.4176 26.4698 19.0317 25.9937 19.0317Z" fill="url(#paint4_linear_2577_6252)"/>
<path d="M25.9937 21.781H24.5971C24.1209 21.781 23.7349 22.1668 23.7349 22.6428C23.7349 23.1187 24.1209 23.5045 24.5971 23.5045H25.9937C26.4698 23.5045 26.8559 23.1187 26.8559 22.6428C26.8559 22.1668 26.4698 21.781 25.9937 21.781Z" fill="url(#paint5_linear_2577_6252)"/>
<path d="M20.4029 13.5352H19.0063C18.5302 13.5352 18.1441 13.921 18.1441 14.3969C18.1441 14.8729 18.5302 15.2587 19.0063 15.2587H20.4029C20.8791 15.2587 21.2651 14.8729 21.2651 14.3969C21.2651 13.921 20.8791 13.5352 20.4029 13.5352Z" fill="url(#paint6_linear_2577_6252)"/>
<path d="M20.4029 16.2834H19.0063C18.5302 16.2834 18.1441 16.6693 18.1441 17.1452C18.1441 17.6212 18.5302 18.007 19.0063 18.007H20.4029C20.8791 18.007 21.2651 17.6212 21.2651 17.1452C21.2651 16.6693 20.8791 16.2834 20.4029 16.2834Z" fill="url(#paint7_linear_2577_6252)"/>
<path d="M20.4029 19.0317H19.0063C18.5302 19.0317 18.1441 19.4176 18.1441 19.8935C18.1441 20.3694 18.5302 20.7553 19.0063 20.7553H20.4029C20.8791 20.7553 21.2651 20.3694 21.2651 19.8935C21.2651 19.4176 20.8791 19.0317 20.4029 19.0317Z" fill="url(#paint8_linear_2577_6252)"/>
<path d="M20.4029 21.781H19.0063C18.5302 21.781 18.1441 22.1668 18.1441 22.6428C18.1441 23.1187 18.5302 23.5045 19.0063 23.5045H20.4029C20.8791 23.5045 21.2651 23.1187 21.2651 22.6428C21.2651 22.1668 20.8791 21.781 20.4029 21.781Z" fill="url(#paint9_linear_2577_6252)"/>
<path d="M31.0781 21.6755H30.0586C29.8845 21.6758 29.7163 21.7393 29.5855 21.8542C29.4547 21.9692 29.3702 22.1278 29.3476 22.3005C29.1278 23.9602 28.3124 25.4835 27.0532 26.5869C25.794 27.6903 24.1769 28.2986 22.5026 28.2986C20.8284 28.2986 19.2112 27.6903 17.9521 26.5869C16.6929 25.4835 15.8775 23.9602 15.6577 22.3005C15.6351 22.1278 15.5506 21.9692 15.4197 21.8542C15.2889 21.7393 15.1208 21.6758 14.9467 21.6755H13.9219C13.8204 21.6757 13.72 21.6974 13.6275 21.7391C13.5349 21.7808 13.4523 21.8416 13.3849 21.9176C13.3176 21.9936 13.2671 22.083 13.2368 22.1798C13.2065 22.2767 13.197 22.3789 13.2091 22.4797C13.451 24.5263 14.3606 26.4361 15.7972 27.9137C17.2337 29.3912 19.1172 30.3542 21.1562 30.6536V33.0574H18.6952C18.5938 33.0574 18.4933 33.0774 18.3996 33.1162C18.3058 33.155 18.2207 33.2119 18.1489 33.2837C18.0772 33.3554 18.0203 33.4406 17.9815 33.5343C17.9426 33.628 17.9227 33.7285 17.9227 33.8299V34.9725C17.9225 35.074 17.9424 35.1745 17.9812 35.2683C18.02 35.3621 18.0769 35.4473 18.1487 35.5191C18.2204 35.5908 18.3057 35.6477 18.3994 35.6865C18.4932 35.7253 18.5937 35.7452 18.6952 35.7451H26.3101C26.4115 35.7452 26.5121 35.7253 26.6058 35.6865C26.6996 35.6477 26.7848 35.5908 26.8566 35.5191C26.9284 35.4473 26.9853 35.3621 27.024 35.2683C27.0628 35.1745 27.0827 35.074 27.0826 34.9725V33.8299C27.0826 33.7285 27.0626 33.628 27.0238 33.5343C26.985 33.4406 26.9281 33.3554 26.8563 33.2837C26.7846 33.2119 26.6994 33.155 26.6057 33.1162C26.512 33.0774 26.4115 33.0574 26.3101 33.0574H23.8491V30.6518C25.8881 30.3524 27.7715 29.3895 29.2081 27.9119C30.6447 26.4344 31.5543 24.5246 31.7962 22.478C31.808 22.3769 31.7982 22.2744 31.7675 22.1774C31.7368 22.0803 31.6858 21.9909 31.6179 21.9151C31.55 21.8392 31.4668 21.7786 31.3737 21.7373C31.2807 21.696 31.1799 21.675 31.0781 21.6755Z" fill="url(#paint10_linear_2577_6252)"/>
</g>
<defs>
<linearGradient id="paint0_linear_2577_6252" x1="22.5" y1="-0.25" x2="21.75" y2="45.5" gradientUnits="userSpaceOnUse">
<stop stop-color="#FEF8EA"/>
<stop offset="1" stop-color="#FEE9BC"/>
</linearGradient>
<linearGradient id="paint1_linear_2577_6252" x1="17.0183" y1="13.1334" x2="27.9817" y2="24.0969" gradientUnits="userSpaceOnUse">
<stop stop-color="#EFA401"/>
<stop offset="1" stop-color="#F5B938"/>
</linearGradient>
<linearGradient id="paint2_linear_2577_6252" x1="24.336" y1="13.4376" x2="26.2538" y2="15.3554" gradientUnits="userSpaceOnUse">
<stop stop-color="#F2F2F2"/>
<stop offset="1" stop-color="#E6E6E6"/>
</linearGradient>
<linearGradient id="paint3_linear_2577_6252" x1="24.336" y1="16.1859" x2="26.2538" y2="18.1037" gradientUnits="userSpaceOnUse">
<stop stop-color="#F2F2F2"/>
<stop offset="1" stop-color="#E6E6E6"/>
</linearGradient>
<linearGradient id="paint4_linear_2577_6252" x1="24.336" y1="18.9342" x2="26.2538" y2="20.852" gradientUnits="userSpaceOnUse">
<stop stop-color="#F2F2F2"/>
<stop offset="1" stop-color="#E6E6E6"/>
</linearGradient>
<linearGradient id="paint5_linear_2577_6252" x1="24.336" y1="21.6834" x2="26.2538" y2="23.6012" gradientUnits="userSpaceOnUse">
<stop stop-color="#F2F2F2"/>
<stop offset="1" stop-color="#E6E6E6"/>
</linearGradient>
<linearGradient id="paint6_linear_2577_6252" x1="18.7453" y1="13.4376" x2="20.6631" y2="15.3554" gradientUnits="userSpaceOnUse">
<stop stop-color="#F2F2F2"/>
<stop offset="1" stop-color="#E6E6E6"/>
</linearGradient>
<linearGradient id="paint7_linear_2577_6252" x1="18.7453" y1="16.1859" x2="20.6631" y2="18.1037" gradientUnits="userSpaceOnUse">
<stop stop-color="#F2F2F2"/>
<stop offset="1" stop-color="#E6E6E6"/>
</linearGradient>
<linearGradient id="paint8_linear_2577_6252" x1="18.7453" y1="18.9342" x2="20.6631" y2="20.852" gradientUnits="userSpaceOnUse">
<stop stop-color="#F2F2F2"/>
<stop offset="1" stop-color="#E6E6E6"/>
</linearGradient>
<linearGradient id="paint9_linear_2577_6252" x1="18.7453" y1="21.6834" x2="20.6631" y2="23.6012" gradientUnits="userSpaceOnUse">
<stop stop-color="#F2F2F2"/>
<stop offset="1" stop-color="#E6E6E6"/>
</linearGradient>
<linearGradient id="paint10_linear_2577_6252" x1="15.7324" y1="19.5688" x2="29.2676" y2="33.104" gradientUnits="userSpaceOnUse">
<stop stop-color="#FFB81F"/>
<stop offset="1" stop-color="#EAB100"/>
</linearGradient>
<clipPath id="clip0_2577_6252">
<rect width="45" height="45" fill="white" transform="translate(0 0.5)"/>
</clipPath>
</defs>
</svg>
