<svg width="45" height="46" viewBox="0 0 45 46" fill="none" xmlns="http://www.w3.org/2000/svg">
<path fill-rule="evenodd" clip-rule="evenodd" d="M45 23C45 35.4264 34.9264 45.5 22.5 45.5C10.0736 45.5 0 35.4264 0 23C0 10.5736 10.0736 0.5 22.5 0.5C34.9264 0.5 45 10.5736 45 23Z" fill="url(#paint0_linear_2577_6271)"/>
<path d="M33.4385 13.3574H32.609V12.0614C32.609 10.775 31.5625 9.72852 30.2761 9.72852C28.9898 9.72852 27.9432 10.775 27.9432 12.0614V13.3574H29.4985V12.0614C29.4985 11.6326 29.8473 11.2837 30.2761 11.2837C30.7049 11.2837 31.0538 11.6326 31.0538 12.0614V13.3574H29.4986V15.1719C29.4986 15.6008 29.8474 15.9496 30.2762 15.9496C30.7056 15.9496 31.0539 16.2977 31.0539 16.7272C31.0539 17.1568 30.7057 17.5049 30.2762 17.5049C28.9898 17.5049 27.9433 16.4584 27.9433 15.172V13.3575H24.8328V12.0615C24.8328 10.775 23.7863 9.72852 22.4999 9.72852C21.2135 9.72852 20.167 10.775 20.167 12.0614V13.3574H21.7223V12.0614C21.7223 11.6326 22.0711 11.2837 22.4999 11.2837C22.9287 11.2837 23.2776 11.6326 23.2776 12.0614V13.3574H21.7223V15.1719C21.7223 15.6008 22.0712 15.9496 22.5 15.9496C22.9294 15.9496 23.2777 16.2977 23.2777 16.7272C23.2777 17.1568 22.9295 17.5049 22.5 17.5049C21.2136 17.5049 20.1671 16.4584 20.1671 15.172V13.3575H17.0566V12.0615C17.0566 10.7751 16.0101 9.7286 14.7237 9.7286C13.4373 9.7286 12.3908 10.7751 12.3908 12.0615V13.3575H13.946V12.0615C13.946 11.6327 14.2949 11.2838 14.7237 11.2838C15.1525 11.2838 15.5014 11.6327 15.5014 12.0615V13.3575H13.9461V15.172C13.9461 15.6008 14.295 15.9497 14.7238 15.9497C15.1532 15.9497 15.5014 16.2978 15.5014 16.7273C15.5014 17.1569 15.1533 17.505 14.7238 17.505C13.4374 17.505 12.3909 16.4585 12.3909 15.1721V13.3576H11.5614C10.275 13.3576 9.22852 14.4041 9.22852 15.6905V33.9388C9.22843 35.225 10.2749 36.2715 11.5613 36.2715H33.4385C34.7249 36.2715 35.7714 35.225 35.7714 33.9386V15.6903C35.7714 14.4039 34.7249 13.3574 33.4385 13.3574ZM31.5722 23.5702C31.5722 25.7142 29.8281 27.4583 27.6841 27.4583H17.3158C17.0496 27.4583 16.7895 27.4314 16.5381 27.3801V32.9018C16.5381 33.3312 16.19 33.6794 15.7605 33.6794C15.3309 33.6794 14.9828 33.3313 14.9828 32.9018V26.6787C14.039 25.9686 13.4276 24.8396 13.4276 23.5703V20.4598C13.4276 20.0304 13.7757 19.6821 14.2052 19.6821H19.3894C20.6598 19.6821 21.7899 20.2946 22.4999 21.2398C23.2099 20.2946 24.3399 19.6821 25.6104 19.6821H30.7946C31.224 19.6821 31.5722 20.0303 31.5722 20.4598V23.5702ZM23.2776 23.5702C23.2776 23.9997 22.9294 24.3479 22.4999 24.3479C22.0705 24.3479 21.7223 23.9998 21.7223 23.5702C21.7223 22.2839 20.6757 21.2374 19.3894 21.2374H14.9828V23.5702C14.9828 24.8566 16.0293 25.9031 17.3157 25.9031H27.6841C28.9704 25.9031 30.0169 24.8566 30.0169 23.5702V21.2374H25.6104C24.3241 21.2374 23.2776 22.2839 23.2776 23.5702ZM19.3894 24.3479H17.3157C16.8862 24.3479 16.538 23.9998 16.538 23.5702C16.538 23.1407 16.8862 22.7926 17.3157 22.7926H19.3894C19.8188 22.7926 20.167 23.1407 20.167 23.5702C20.167 23.9998 19.8189 24.3479 19.3894 24.3479ZM28.4617 23.5702C28.4617 23.9997 28.1136 24.3479 27.6841 24.3479H25.6104C25.1809 24.3479 24.8327 23.9998 24.8327 23.5702C24.8327 23.1407 25.1808 22.7926 25.6104 22.7926H27.6841C28.1136 22.7926 28.4617 23.1408 28.4617 23.5702Z" fill="url(#paint1_linear_2577_6271)"/>
<defs>
<linearGradient id="paint0_linear_2577_6271" x1="22.5" y1="45.5" x2="22.5" y2="0.5" gradientUnits="userSpaceOnUse">
<stop stop-color="#FFC3AD"/>
<stop offset="0.5028" stop-color="#FFF0EA"/>
<stop offset="1" stop-color="#FFF0EA"/>
</linearGradient>
<linearGradient id="paint1_linear_2577_6271" x1="22.4999" y1="36.2715" x2="22.4999" y2="9.72852" gradientUnits="userSpaceOnUse">
<stop stop-color="#FF4400"/>
<stop offset="1" stop-color="#FF8255"/>
</linearGradient>
</defs>
</svg>
