<svg width="45" height="46" viewBox="0 0 45 46" fill="none" xmlns="http://www.w3.org/2000/svg">
<g clip-path="url(#clip0_2577_6278)">
<path d="M22.5 45.5C34.9264 45.5 45 35.4264 45 23C45 10.5736 34.9264 0.5 22.5 0.5C10.0736 0.5 0 10.5736 0 23C0 35.4264 10.0736 45.5 22.5 45.5Z" fill="url(#paint0_linear_2577_6278)"/>
<path d="M12.7278 24.7367C12.7278 22.8041 14.2945 21.2374 16.2271 21.2374C18.1596 21.2374 19.7263 22.8042 19.7263 24.7367C19.7263 26.6693 18.1596 28.236 16.2271 28.236C14.2945 28.236 12.7278 26.6693 12.7278 24.7367ZM19.7151 28.3917C18.8074 29.2583 17.5783 29.7913 16.2272 29.7913C14.876 29.7913 13.647 29.2583 12.7392 28.3917C10.6427 29.6019 9.22852 31.8672 9.22852 34.457V35.4938C9.22852 35.9233 9.57665 36.2715 10.0062 36.2715H22.4481C22.8776 36.2715 23.2258 35.9233 23.2258 35.4938V34.457C23.2258 31.8672 21.8116 29.6019 19.7151 28.3917ZM29.5505 15.6903C29.5505 15.2615 29.2017 14.9127 28.7728 14.9127H27.9952V16.4679H28.7728C29.2017 16.468 29.5505 16.1191 29.5505 15.6903ZM35.7715 17.2455C35.7715 21.3049 32.5367 24.6232 28.5096 24.7583L25.0776 27.2099C24.5629 27.5775 23.848 27.2096 23.848 26.5771V23.3292C21.8924 21.9143 20.7374 19.671 20.7374 17.2455C20.7374 13.1006 24.1095 9.72852 28.2545 9.72852C32.3994 9.72852 35.7715 13.1006 35.7715 17.2455ZM31.6241 18.8008C31.6241 18.0554 31.2722 17.3909 30.7261 16.9635C30.9657 16.5971 31.1056 16.1598 31.1056 15.6903C31.1056 14.4916 30.1968 13.5016 29.0319 13.3722V13.0982C29.0319 12.6688 28.6838 12.3206 28.2543 12.3206C27.8248 12.3206 27.4766 12.6687 27.4766 13.0982V13.3574H26.1806C25.7512 13.3574 25.4029 13.7056 25.4029 14.1351C25.4029 14.5646 25.7511 14.9127 26.1806 14.9127H26.4398V19.5785H26.1806C25.7512 19.5785 25.4029 19.9266 25.4029 20.3562C25.4029 20.7857 25.7511 21.1338 26.1806 21.1338H27.4766V21.393C27.4766 21.8224 27.8248 22.1707 28.2543 22.1707C28.6838 22.1707 29.0319 21.8225 29.0319 21.393V21.1338H29.2911C30.5776 21.1337 31.6241 20.0871 31.6241 18.8008ZM29.2913 18.0232H27.9953V19.5784H29.2913C29.7201 19.5784 30.069 19.2296 30.069 18.8008C30.069 18.3719 29.72 18.0232 29.2913 18.0232Z" fill="url(#paint1_linear_2577_6278)"/>
</g>
<defs>
<linearGradient id="paint0_linear_2577_6278" x1="23.25" y1="0.5" x2="23.25" y2="43.25" gradientUnits="userSpaceOnUse">
<stop stop-color="#EAFFFC"/>
<stop offset="1" stop-color="#BCFFF6"/>
</linearGradient>
<linearGradient id="paint1_linear_2577_6278" x1="12.8372" y1="5.75406" x2="37.4095" y2="24.3442" gradientUnits="userSpaceOnUse">
<stop stop-color="#3FFFE5"/>
<stop offset="1" stop-color="#08C5AC"/>
</linearGradient>
<clipPath id="clip0_2577_6278">
<rect width="45" height="45" fill="white" transform="translate(0 0.5)"/>
</clipPath>
</defs>
</svg>
