<svg width="45" height="46" viewBox="0 0 45 46" fill="none" xmlns="http://www.w3.org/2000/svg">
<g clip-path="url(#clip0_2577_6467)">
<path d="M22.5 45.5C34.9264 45.5 45 35.4264 45 23C45 10.5736 34.9264 0.5 22.5 0.5C10.0736 0.5 0 10.5736 0 23C0 35.4264 10.0736 45.5 22.5 45.5Z" fill="url(#paint0_linear_2577_6467)"/>
<path d="M22.5 45.5C34.9264 45.5 45 35.4264 45 23C45 10.5736 34.9264 0.5 22.5 0.5C10.0736 0.5 0 10.5736 0 23C0 35.4264 10.0736 45.5 22.5 45.5Z" fill="url(#paint1_linear_2577_6467)"/>
<path d="M9.22852 15.9721V29.2469C9.22852 29.6785 9.57771 30.0277 10.0092 30.0277H12.3512V32.3704C12.3512 32.6861 12.541 32.9713 12.833 33.0918C13.1207 33.2118 13.4584 33.1479 13.6838 32.9225L16.5778 30.0277H28.7453C29.1769 30.0277 29.526 29.6785 29.526 29.2469C29.526 28.9932 29.526 15.9861 29.526 15.1913C29.526 14.3089 29.8312 13.5032 30.3266 12.8486H12.3512C10.629 12.8486 9.22852 14.2494 9.22852 15.9721ZM25.6227 26.9043H13.1319C12.7004 26.9043 12.3513 26.555 12.3513 26.1234C12.3513 25.6917 12.7005 25.3425 13.1319 25.3425H25.6228C26.0543 25.3425 26.4034 25.6918 26.4034 26.1234C26.4034 26.5551 26.0542 26.9043 25.6227 26.9043ZM22.5 15.9721H25.6227C26.0542 15.9721 26.4033 16.3214 26.4033 16.753C26.4033 17.1846 26.0541 17.5339 25.6227 17.5339H22.5C22.0685 17.5339 21.7194 17.1846 21.7194 16.753C21.7194 16.3214 22.0685 15.9721 22.5 15.9721ZM22.5 19.0956H25.6227C26.0542 19.0956 26.4033 19.4449 26.4033 19.8765C26.4033 20.3081 26.0541 20.6574 25.6227 20.6574H22.5C22.0685 20.6574 21.7194 20.3081 21.7194 19.8765C21.7194 19.4448 22.0685 19.0956 22.5 19.0956ZM22.5 22.2191H25.6227C26.0542 22.2191 26.4033 22.5684 26.4033 23C26.4033 23.4316 26.0541 23.7808 25.6227 23.7808H22.5C22.0685 23.7808 21.7194 23.4315 21.7194 23C21.7194 22.5685 22.0685 22.2191 22.5 22.2191ZM13.1319 15.9721H19.3773C19.8089 15.9721 20.158 16.3214 20.158 16.753V23C20.158 23.4316 19.8088 23.7808 19.3773 23.7808H13.1319C12.7004 23.7808 12.3513 23.4315 12.3513 23V16.753C12.3512 16.3214 12.7004 15.9721 13.1319 15.9721ZM18.5966 17.5339H13.9126V22.2191H18.5966V17.5339ZM33.4295 12.8486C32.138 12.8486 31.0874 13.8995 31.0874 15.1913V23.7808H34.9908C35.422 23.7808 35.7715 23.4312 35.7715 23V15.1913C35.7715 13.8995 34.7209 12.8486 33.4295 12.8486Z" fill="url(#paint2_linear_2577_6467)"/>
</g>
<defs>
<linearGradient id="paint0_linear_2577_6467" x1="22.5" y1="45.5" x2="22.5" y2="0.5" gradientUnits="userSpaceOnUse">
<stop stop-color="#FFE59A"/>
<stop offset="1" stop-color="#FFFFD5"/>
</linearGradient>
<linearGradient id="paint1_linear_2577_6467" x1="22.5" y1="45.5" x2="22.5" y2="0.5" gradientUnits="userSpaceOnUse">
<stop stop-color="#ADDCFF"/>
<stop offset="0.5028" stop-color="#EAF6FF"/>
<stop offset="1" stop-color="#EAF6FF"/>
</linearGradient>
<linearGradient id="paint2_linear_2577_6467" x1="22.5" y1="33.1514" x2="22.5" y2="12.8486" gradientUnits="userSpaceOnUse">
<stop stop-color="#388AF5"/>
<stop offset="1" stop-color="#3B85F9"/>
</linearGradient>
<clipPath id="clip0_2577_6467">
<rect width="45" height="45" fill="white" transform="translate(0 0.5)"/>
</clipPath>
</defs>
</svg>
