<svg width="45" height="46" viewBox="0 0 45 46" fill="none" xmlns="http://www.w3.org/2000/svg">
<g clip-path="url(#clip0_2577_6478)">
<path d="M45 23C45 35.4264 34.9264 45.5 22.5 45.5C10.0736 45.5 0 35.4264 0 23C0 10.5736 10.0736 0.5 22.5 0.5C34.9264 0.5 45 10.5736 45 23Z" fill="url(#paint0_linear_2577_6478)"/>
<path d="M45 23C45 35.4264 34.9264 45.5 22.5 45.5C10.0736 45.5 0 35.4264 0 23C0 10.5736 10.0736 0.5 22.5 0.5C34.9264 0.5 45 10.5736 45 23Z" fill="url(#paint1_linear_2577_6478)"/>
<path d="M15.2422 31.6057H32.0907V35.4938C32.0907 35.9233 31.7426 36.2715 31.3131 36.2715H15.2422C13.9538 36.2715 12.9093 35.227 12.9093 33.9386C12.9093 32.6502 13.9538 31.6057 15.2422 31.6057ZM22.5 18.0232C21.4996 18.0232 20.6855 18.8371 20.6855 19.8377C20.6855 20.8382 21.4995 21.6522 22.5 21.6522C23.5006 21.6522 24.3145 20.8382 24.3145 19.8377C24.3145 18.8371 23.5005 18.0232 22.5 18.0232ZM32.0907 10.5062V30.0505H15.2422C14.3676 30.0505 13.5596 30.341 12.9093 30.8303V12.5798C12.9093 11.0076 14.1884 9.72852 15.7606 9.72852H31.3131C31.7426 9.72852 32.0907 10.0767 32.0907 10.5062ZM27.425 27.4584C27.425 27.029 27.0768 26.6808 26.6473 26.6808H18.3526C17.9232 26.6808 17.575 27.0289 17.575 27.4584C17.575 27.8879 17.9231 28.2361 18.3526 28.2361H26.6473C27.0768 28.236 27.425 27.8879 27.425 27.4584ZM28.9802 16.7272C28.9802 15.4408 27.9337 14.3943 26.6473 14.3943H26.0266L25.2207 13.1853C25.0764 12.969 24.8337 12.8391 24.5736 12.8391H20.4262C20.1663 12.8391 19.9234 12.969 19.7792 13.1853L18.9732 14.3943H18.3525C17.0662 14.3943 16.0197 15.4408 16.0197 16.7272V20.8745C16.0197 22.1609 17.0662 23.2074 18.3525 23.2074H26.6472C27.9336 23.2074 28.9801 22.1609 28.9801 20.8745V16.7272H28.9802ZM26.6474 15.9495H25.6106C25.3506 15.9495 25.1077 15.8196 24.9635 15.6032L24.1575 14.3943H20.8425L20.0365 15.6032C19.8923 15.8196 19.6495 15.9495 19.3895 15.9495H18.3526C17.9238 15.9495 17.575 16.2983 17.575 16.7272V20.8745C17.575 21.3034 17.9238 21.6522 18.3526 21.6522H19.6627C19.3263 21.128 19.1303 20.5055 19.1303 19.8377C19.1303 17.9796 20.6419 16.468 22.5 16.468C24.3581 16.468 25.8697 17.9796 25.8697 19.8377C25.8697 20.5055 25.6737 21.1279 25.3373 21.6522H26.6474C27.0762 21.6522 27.4251 21.3034 27.4251 20.8745V16.7272C27.425 16.2983 27.0761 15.9495 26.6474 15.9495Z" fill="url(#paint2_linear_2577_6478)"/>
</g>
<defs>
<linearGradient id="paint0_linear_2577_6478" x1="22.5" y1="45.5" x2="22.5" y2="-6.99997" gradientUnits="userSpaceOnUse">
<stop stop-color="#FFC8D2"/>
<stop offset="1" stop-color="#FFF5F6"/>
</linearGradient>
<linearGradient id="paint1_linear_2577_6478" x1="22.5" y1="45.5" x2="22.5" y2="0.5" gradientUnits="userSpaceOnUse">
<stop stop-color="#D6ADFF"/>
<stop offset="0.5028" stop-color="#F5EAFF"/>
<stop offset="1" stop-color="#F5EAFF"/>
</linearGradient>
<linearGradient id="paint2_linear_2577_6478" x1="22.5" y1="36.2716" x2="22.5" y2="9.72852" gradientUnits="userSpaceOnUse">
<stop stop-color="#C081FF"/>
<stop offset="1" stop-color="#9D3AFF"/>
</linearGradient>
<clipPath id="clip0_2577_6478">
<rect width="45" height="45" fill="white" transform="translate(0 0.5)"/>
</clipPath>
</defs>
</svg>
