<svg width="45" height="46" viewBox="0 0 45 46" fill="none" xmlns="http://www.w3.org/2000/svg">
<g clip-path="url(#clip0_2577_6487)">
<path d="M22.5 45.5C34.9264 45.5 45 35.4264 45 23C45 10.5736 34.9264 0.5 22.5 0.5C10.0736 0.5 0 10.5736 0 23C0 35.4264 10.0736 45.5 22.5 45.5Z" fill="url(#paint0_linear_2577_6487)"/>
<path d="M20.9386 17.5352H23.2806V19.8772C23.2806 20.1929 23.4705 20.478 23.7625 20.5985C23.8593 20.6389 23.9607 20.658 24.0613 20.658C24.2641 20.658 24.4638 20.5787 24.6132 20.4293L27.5072 17.5353H28.7453C30.0368 17.5353 31.0874 16.4848 31.0874 15.1933V12.0705C31.0874 10.7791 30.0368 9.72852 28.7453 9.72852H20.9386C19.6472 9.72852 18.5966 10.7791 18.5966 12.0705V15.1933C18.5966 16.4847 19.6472 17.5352 20.9386 17.5352ZM34.9908 31.5874H10.0092C9.57762 31.5874 9.22852 31.9366 9.22852 32.3681V33.9295C9.22852 35.2209 10.2791 36.2715 11.5705 36.2715H33.4295C34.7209 36.2715 35.7715 35.2209 35.7715 33.9295V32.3681C35.7715 31.9366 35.4223 31.5874 34.9908 31.5874ZM17.816 20.658C17.3852 20.658 17.0353 21.0079 17.0353 21.4386C17.0353 21.8694 17.3852 22.2193 17.816 22.2193C18.2467 22.2193 18.5967 21.8694 18.5967 21.4386C18.5966 21.0079 18.2467 20.658 17.816 20.658ZM19.3773 25.342H16.2546C15.8238 25.342 15.4739 25.6919 15.4739 26.1227V26.9033H20.158V26.1227C20.158 25.6919 19.8081 25.342 19.3773 25.342ZM34.2101 18.316C34.2101 17.2585 33.5011 16.3729 32.5368 16.0829C32.1318 17.8061 30.5903 19.0966 28.7453 19.0966H28.1537L25.7171 21.5332C25.275 21.9754 24.6864 22.2194 24.0613 22.2194C23.7502 22.2194 23.4475 22.1592 23.1609 22.0394C22.2872 21.6788 21.7193 20.8295 21.7193 19.8773V19.0967H20.9386C19.0537 19.0967 17.477 17.7535 17.1142 15.974H13.1318C11.8404 15.974 10.7898 17.0246 10.7898 18.316V30.0262H34.2101V18.316ZM21.7194 27.684C21.7194 28.1155 21.3702 28.4647 20.9387 28.4647H14.6933C14.2617 28.4647 13.9126 28.1155 13.9126 27.684V26.1227C13.9126 24.8312 14.9632 23.7806 16.2547 23.7806H17.816C16.5246 23.7806 15.474 22.7301 15.474 21.4386C15.474 20.1472 16.5246 19.0966 17.816 19.0966C19.1075 19.0966 20.1581 20.1472 20.1581 21.4386C20.1581 22.7301 19.1075 23.7806 17.816 23.7806H19.3774C20.6689 23.7806 21.7194 24.8312 21.7194 26.1227V27.684H21.7194ZM28.7454 26.9034H25.6227C25.1912 26.9034 24.842 26.5542 24.842 26.1228C24.842 25.6913 25.1912 25.3421 25.6227 25.3421H28.7454C29.1769 25.3421 29.5261 25.6913 29.5261 26.1228C29.5261 26.5542 29.1769 26.9034 28.7454 26.9034ZM28.7454 23.7806H25.6227C25.1912 23.7806 24.842 23.4315 24.842 23C24.842 22.5685 25.1912 22.2194 25.6227 22.2194H28.7454C29.1769 22.2194 29.5261 22.5685 29.5261 23C29.5261 23.4315 29.1769 23.7806 28.7454 23.7806Z" fill="url(#paint1_linear_2577_6487)"/>
</g>
<defs>
<linearGradient id="paint0_linear_2577_6487" x1="23.25" y1="0.5" x2="23.25" y2="43.25" gradientUnits="userSpaceOnUse">
<stop stop-color="#EAFFFC"/>
<stop offset="1" stop-color="#BCFFF6"/>
</linearGradient>
<linearGradient id="paint1_linear_2577_6487" x1="12.8372" y1="5.75406" x2="37.4095" y2="24.3442" gradientUnits="userSpaceOnUse">
<stop stop-color="#3FFFE5"/>
<stop offset="1" stop-color="#08C5AC"/>
</linearGradient>
<clipPath id="clip0_2577_6487">
<rect width="45" height="45" fill="white" transform="translate(0 0.5)"/>
</clipPath>
</defs>
</svg>
