<svg width="45" height="46" viewBox="0 0 45 46" fill="none" xmlns="http://www.w3.org/2000/svg">
<g clip-path="url(#clip0_2577_6500)">
<path d="M22.5 45.5C34.9264 45.5 45 35.4264 45 23C45 10.5736 34.9264 0.5 22.5 0.5C10.0736 0.5 0 10.5736 0 23C0 35.4264 10.0736 45.5 22.5 45.5Z" fill="url(#paint0_linear_2577_6500)"/>
<path d="M24.6931 27.4877C23.1844 28.7622 20.8823 28.7238 19.4184 27.2599L18.3107 26.1522C17.3943 25.2358 17.3943 23.7457 18.3107 22.8292L21.2926 19.8597C20.6595 19.5609 19.9216 19.552 19.2889 19.8513L18.0943 18.6561L18.6429 18.1059C18.9514 17.7974 18.9514 17.2976 18.6429 16.9891L16.1 14.4462C15.7923 14.1369 15.2917 14.1377 14.9839 14.4454L9.46081 19.9533C9.14985 20.2627 9.15258 20.765 9.46002 21.0709L12.019 23.6291C12.3275 23.9392 12.8326 23.9377 13.1404 23.6253L13.6766 23.0873L14.8643 24.2751C14.4545 25.1458 14.6076 26.2184 15.3252 26.936L20.8339 32.46C21.7422 33.3698 23.2421 33.3856 24.1661 32.46L27.0222 29.604C26.7841 29.4913 26.5605 29.3457 26.3677 29.1553L24.6931 27.4877ZM35.5391 19.9534L30.016 14.4455C29.7082 14.1377 29.2076 14.137 28.8999 14.4463L26.357 16.9892C26.0485 17.2977 26.0485 17.7974 26.357 18.106L26.9054 18.6561L25.711 19.8506C24.8418 19.4407 23.7684 19.5938 23.053 20.3084L19.4138 23.9323C19.1053 24.2408 19.1053 24.7406 19.4138 25.0491L20.5215 26.1568C21.4356 27.0709 22.9242 27.0709 23.8385 26.1568L24.7017 25.2944L27.4656 28.0461C27.7793 28.3567 28.2817 28.3507 28.5854 28.0407L29.6748 26.9368C30.3924 26.2184 30.5455 25.1458 30.1357 24.2751L31.3234 23.0873L31.8596 23.6253C32.3188 24.0892 32.8274 23.7835 32.981 23.6291L35.54 21.0709C35.8472 20.7653 35.8502 20.263 35.5391 19.9534ZM20.3882 15.7437C20.6929 16.0484 21.1866 16.0484 21.4913 15.7437C21.796 15.439 21.796 14.9453 21.4913 14.6406L19.9311 13.0803C19.6264 12.7756 19.1327 12.7756 18.828 13.0803C18.5233 13.3851 18.5233 13.8787 18.828 14.1835L20.3882 15.7437ZM24.6117 15.7437L26.1718 14.1835C26.4765 13.8788 26.4765 13.3851 26.1718 13.0804C25.8671 12.7757 25.3735 12.7757 25.0687 13.0804L23.5085 14.6407C23.2038 14.9454 23.2038 15.4391 23.5085 15.7438C23.8133 16.0485 24.3069 16.0484 24.6117 15.7437Z" fill="url(#paint1_linear_2577_6500)"/>
</g>
<defs>
<linearGradient id="paint0_linear_2577_6500" x1="22.5" y1="-0.25" x2="21.75" y2="45.5" gradientUnits="userSpaceOnUse">
<stop stop-color="#FEF8EA"/>
<stop offset="1" stop-color="#FEE9BC"/>
</linearGradient>
<linearGradient id="paint1_linear_2577_6500" x1="9.46263" y1="16.3452" x2="20.2419" y2="37.4624" gradientUnits="userSpaceOnUse">
<stop stop-color="#EFA401"/>
<stop offset="1" stop-color="#F5B938"/>
</linearGradient>
<clipPath id="clip0_2577_6500">
<rect width="45" height="45" fill="white" transform="translate(0 0.5)"/>
</clipPath>
</defs>
</svg>
