<svg width="45" height="46" viewBox="0 0 45 46" fill="none" xmlns="http://www.w3.org/2000/svg">
<g clip-path="url(#clip0_2577_6512)">
<path d="M22.5 45.5C34.9264 45.5 45 35.4264 45 23C45 10.5736 34.9264 0.5 22.5 0.5C10.0736 0.5 0 10.5736 0 23C0 35.4264 10.0736 45.5 22.5 45.5Z" fill="url(#paint0_linear_2577_6512)"/>
<path d="M16.2145 18.4732L22.1112 15.0687C22.3517 14.9299 22.6482 14.9299 22.8888 15.0687L28.7855 18.4732L22.5 22.1021L16.2145 18.4732ZM21.7223 23.4489L15.4368 19.82V26.6289C15.4368 26.9067 15.585 27.1635 15.8257 27.3023L21.7223 30.7068V23.4489ZM23.2777 23.4489V30.7068L29.1743 27.3023C29.4149 27.1635 29.5632 26.9067 29.5632 26.6289V19.82L23.2777 23.4489ZM14.0055 27.9482C13.5777 27.9108 13.2006 28.2273 13.1631 28.6551L13.0517 29.9294C11.5799 27.932 10.7838 25.5275 10.7838 23C10.7838 16.5397 16.0397 11.2837 22.5001 11.2837C22.9295 11.2837 23.2777 10.9356 23.2777 10.5061C23.2777 10.0766 22.9294 9.72852 22.5 9.72852C18.9551 9.72852 15.6223 11.109 13.1157 13.6157C10.609 16.1223 9.22852 19.4551 9.22852 23C9.22852 25.8816 10.1421 28.622 11.8299 30.8933L10.6217 30.7875C10.1938 30.7501 9.81668 31.0666 9.77924 31.4945C9.7418 31.9223 10.0583 32.2994 10.4861 32.3369L13.5977 32.6092C14.0256 32.6466 14.4027 32.3301 14.4402 31.9023L14.7125 28.7907C14.7498 28.3628 14.4334 27.9857 14.0055 27.9482ZM33.1714 15.1068L34.3783 15.2124C34.8062 15.2498 35.1833 14.9333 35.2208 14.5055C35.2582 14.0776 34.9417 13.7005 34.5139 13.663L31.4023 13.3907C30.9744 13.3533 30.5973 13.6698 30.5598 14.0976L30.2876 17.2092C30.2502 17.6371 30.5667 18.0142 30.9945 18.0517C31.4224 18.0891 31.7995 17.7726 31.837 17.3448L31.9485 16.0701C33.4202 18.0677 34.2163 20.4724 34.2163 22.9999C34.2163 29.4602 28.9604 34.7162 22.5 34.7162C22.0706 34.7162 21.7223 35.0643 21.7223 35.4938C21.7223 35.9233 22.0706 36.2715 22.5 36.2715C26.0449 36.2715 29.3777 34.891 31.8843 32.3843C34.391 29.8777 35.7715 26.5449 35.7715 23C35.7715 20.1187 34.8589 17.378 33.1714 15.1068Z" fill="url(#paint1_linear_2577_6512)"/>
</g>
<defs>
<linearGradient id="paint0_linear_2577_6512" x1="22.5" y1="45.5" x2="22.5" y2="0.5" gradientUnits="userSpaceOnUse">
<stop stop-color="#D6ADFF"/>
<stop offset="0.5028" stop-color="#F5EAFF"/>
<stop offset="1" stop-color="#F5EAFF"/>
</linearGradient>
<linearGradient id="paint1_linear_2577_6512" x1="22.5" y1="36.2716" x2="22.5" y2="9.72852" gradientUnits="userSpaceOnUse">
<stop stop-color="#C081FF"/>
<stop offset="1" stop-color="#9D3AFF"/>
</linearGradient>
<clipPath id="clip0_2577_6512">
<rect width="45" height="45" fill="white" transform="translate(0 0.5)"/>
</clipPath>
</defs>
</svg>
