<svg width="45" height="46" viewBox="0 0 45 46" fill="none" xmlns="http://www.w3.org/2000/svg">
<g clip-path="url(#clip0_2577_6520)">
<path d="M22.5 45.5C34.9264 45.5 45 35.4264 45 23C45 10.5736 34.9264 0.5 22.5 0.5C10.0736 0.5 0 10.5736 0 23C0 35.4264 10.0736 45.5 22.5 45.5Z" fill="url(#paint0_linear_2577_6520)"/>
<path d="M25.5572 16.9477L34.7708 11.2666H19.7312L24.56 16.7964C24.8132 17.0859 25.231 17.1486 25.5572 16.9477ZM16.2549 22.2178H31.8681C32.2036 22.2178 32.5024 22.0024 32.6091 21.683L35.6423 12.5654L26.3745 18.2798C25.9934 18.5151 25.568 18.6296 25.1471 18.6296C24.4915 18.6296 23.845 18.3531 23.3861 17.8261L18.4954 12.2255L15.5139 21.188C15.4346 21.4263 15.4743 21.689 15.6222 21.893C15.7685 22.0971 16.0033 22.2178 16.2549 22.2178ZM10.0096 14.3955H14.6935C15.125 14.3955 15.4742 14.0456 15.4742 13.6133C15.4742 13.1809 15.125 12.8311 14.6935 12.8311H10.0096C9.57811 12.8311 9.22892 13.1809 9.22892 13.6133C9.22892 14.0456 9.57802 14.3955 10.0096 14.3955ZM35.7714 26.1289C35.7714 25.6966 35.4223 25.3467 34.9908 25.3467H30.3069C29.8754 25.3467 29.5262 25.6966 29.5262 26.1289C29.5262 26.5612 29.8754 26.9111 30.3069 26.9111H34.9908C35.4223 26.9111 35.7714 26.5612 35.7714 26.1289ZM10.0096 17.5244H13.1322C13.5637 17.5244 13.9129 17.1745 13.9129 16.7422C13.9129 16.3099 13.5637 15.96 13.1322 15.96H10.0096C9.57811 15.96 9.22892 16.3099 9.22892 16.7422C9.22892 17.1745 9.57802 17.5244 10.0096 17.5244ZM34.9908 28.4756H31.8681C31.4367 28.4756 31.0875 28.8255 31.0875 29.2578C31.0875 29.6901 31.4367 30.04 31.8681 30.04H34.9908C35.4223 30.04 35.7714 29.6901 35.7714 29.2578C35.7714 28.8255 35.4223 28.4756 34.9908 28.4756ZM10.0096 20.6533H11.5709C12.0024 20.6533 12.3516 20.3034 12.3516 19.8711C12.3516 19.4388 12.0024 19.0889 11.5709 19.0889H10.0096C9.57811 19.0889 9.22892 19.4388 9.22892 19.8711C9.22892 20.3034 9.57802 20.6533 10.0096 20.6533ZM34.9908 31.6045H33.4295C32.9981 31.6045 32.6489 31.9544 32.6489 32.3867C32.6489 32.8191 32.9981 33.1689 33.4295 33.1689H34.9908C35.4223 33.1689 35.7714 32.8191 35.7714 32.3867C35.7714 31.9544 35.4223 31.6045 34.9908 31.6045ZM15.4254 28.4756L15.9453 30.04H17.865L17.345 28.4756H15.4254ZM26.3638 24.317C26.2571 23.9976 25.9582 23.7822 25.6228 23.7822H10.0096C9.75802 23.7822 9.52318 23.9029 9.37684 24.1069C9.22892 24.3109 9.18928 24.5737 9.26856 24.812L12.3912 34.1987C12.498 34.518 12.7968 34.7334 13.1322 34.7334H28.7455C28.997 34.7334 29.2319 34.6127 29.3782 34.4087C29.5261 34.2047 29.5658 33.9419 29.4865 33.7037L26.3638 24.317ZM19.5803 31.2798C19.4339 31.4838 19.1991 31.6045 18.9476 31.6045H15.3828C15.0473 31.6045 14.7485 31.3891 14.6418 31.0698L13.6018 27.9409C13.5226 27.7018 13.5622 27.4397 13.7101 27.2358C13.8564 27.0318 14.0913 26.9111 14.3428 26.9111H17.9077C18.2431 26.9111 18.542 27.1266 18.6487 27.4459L19.6885 30.5748C19.7679 30.8138 19.7282 31.0758 19.5803 31.2798ZM24.0615 31.6045H22.5002C22.0687 31.6045 21.7196 31.2547 21.7196 30.8223C21.7196 30.3898 22.0688 30.04 22.5002 30.04H24.0615C24.4931 30.04 24.8422 30.3898 24.8422 30.8223C24.8422 31.2547 24.493 31.6045 24.0615 31.6045Z" fill="url(#paint1_linear_2577_6520)"/>
</g>
<defs>
<linearGradient id="paint0_linear_2577_6520" x1="22.5" y1="45.5" x2="22.5" y2="0.5" gradientUnits="userSpaceOnUse">
<stop stop-color="#ADDCFF"/>
<stop offset="0.5028" stop-color="#EAF6FF"/>
<stop offset="1" stop-color="#EAF6FF"/>
</linearGradient>
<linearGradient id="paint1_linear_2577_6520" x1="22.5" y1="34.7334" x2="22.5" y2="11.2666" gradientUnits="userSpaceOnUse">
<stop stop-color="#00C0FF"/>
<stop offset="1" stop-color="#5558FF"/>
</linearGradient>
<clipPath id="clip0_2577_6520">
<rect width="45" height="45" fill="white" transform="translate(0 0.5)"/>
</clipPath>
</defs>
</svg>
