<svg width="45" height="46" viewBox="0 0 45 46" fill="none" xmlns="http://www.w3.org/2000/svg">
<g clip-path="url(#clip0_2577_6534)">
<path d="M22.5 45.5C34.9264 45.5 45 35.4264 45 23C45 10.5736 34.9264 0.5 22.5 0.5C10.0736 0.5 0 10.5736 0 23C0 35.4264 10.0736 45.5 22.5 45.5Z" fill="url(#paint0_linear_2577_6534)"/>
<path d="M22.5 45.5C34.9264 45.5 45 35.4264 45 23C45 10.5736 34.9264 0.5 22.5 0.5C10.0736 0.5 0 10.5736 0 23C0 35.4264 10.0736 45.5 22.5 45.5Z" fill="url(#paint1_linear_2577_6534)"/>
<path d="M31.868 23.7806H31.0874V23C31.0874 20.6764 30.1562 18.5688 28.6518 17.0213L31.0273 14.25C31.2892 14.3515 31.5709 14.4126 31.8681 14.4126C33.1595 14.4126 34.2101 13.362 34.2101 12.0705C34.2101 10.7791 33.1595 9.72852 31.868 9.72852C30.5765 9.72852 29.526 10.7791 29.526 12.0705C29.526 12.4946 29.648 12.8872 29.8459 13.2307L27.4662 16.007C26.0624 15.0071 24.3509 14.4126 22.4999 14.4126C20.6489 14.4126 18.9375 15.0071 17.5337 16.007L15.1539 13.2307C15.3519 12.8872 15.4738 12.4946 15.4738 12.0705C15.4738 10.7791 14.4233 9.72852 13.1318 9.72852C11.8404 9.72852 10.7898 10.7791 10.7898 12.0705C10.7898 13.362 11.8404 14.4126 13.1318 14.4126C13.429 14.4126 13.7108 14.3515 13.9726 14.25L16.3481 17.0213C14.8438 18.5688 13.9126 20.6764 13.9126 23V23.7806H13.1319C10.9797 23.7806 9.22852 25.5318 9.22852 27.684V29.2454C9.22852 31.3976 10.9797 33.1488 13.1319 33.1488H14.6933C15.1248 33.1488 15.4739 32.7996 15.4739 32.3682V23C15.4739 21.8427 15.7819 20.7663 16.2796 19.8027C17.4901 20.5782 19.0725 20.6081 20.3121 19.7668C21.6035 18.89 23.3967 18.89 24.6881 19.7668C25.3148 20.1922 26.0292 20.398 26.7405 20.398C27.4364 20.398 28.1196 20.1829 28.7186 19.7993C29.2174 20.7637 29.5262 21.8413 29.5262 23V33.9295C29.5262 34.3602 29.1763 34.7101 28.7455 34.7101H23.2807V33.9295C23.2807 33.4979 22.9315 33.1488 22.5001 33.1488C22.0686 33.1488 21.7194 33.498 21.7194 33.9295V35.4908C21.7194 35.9224 22.0686 36.2715 22.5001 36.2715H28.7455C30.037 36.2715 31.0875 35.2209 31.0875 33.9295V33.1488H31.8682C34.0204 33.1488 35.7716 31.3976 35.7716 29.2454V27.684C35.7714 25.5319 34.0202 23.7806 31.868 23.7806Z" fill="url(#paint2_linear_2577_6534)"/>
</g>
<defs>
<linearGradient id="paint0_linear_2577_6534" x1="22.5" y1="45.5" x2="22.5" y2="0.5" gradientUnits="userSpaceOnUse">
<stop stop-color="#FFE59A"/>
<stop offset="1" stop-color="#FFFFD5"/>
</linearGradient>
<linearGradient id="paint1_linear_2577_6534" x1="22.5" y1="45.5" x2="22.5" y2="0.5" gradientUnits="userSpaceOnUse">
<stop stop-color="#ADDCFF"/>
<stop offset="0.5028" stop-color="#EAF6FF"/>
<stop offset="1" stop-color="#EAF6FF"/>
</linearGradient>
<linearGradient id="paint2_linear_2577_6534" x1="22.5" y1="36.2716" x2="22.5" y2="9.72852" gradientUnits="userSpaceOnUse">
<stop stop-color="#388AF5"/>
<stop offset="1" stop-color="#3B85F9"/>
</linearGradient>
<clipPath id="clip0_2577_6534">
<rect width="45" height="45" fill="white" transform="translate(0 0.5)"/>
</clipPath>
</defs>
</svg>
