<svg width="45" height="46" viewBox="0 0 45 46" fill="none" xmlns="http://www.w3.org/2000/svg">
<g clip-path="url(#clip0_2577_6545)">
<path d="M22.5 45.5C34.9264 45.5 45 35.4264 45 23C45 10.5736 34.9264 0.5 22.5 0.5C10.0736 0.5 0 10.5736 0 23C0 35.4264 10.0736 45.5 22.5 45.5Z" fill="url(#paint0_linear_2577_6545)"/>
<path d="M22.5 45.5C34.9264 45.5 45 35.4264 45 23C45 10.5736 34.9264 0.5 22.5 0.5C10.0736 0.5 0 10.5736 0 23C0 35.4264 10.0736 45.5 22.5 45.5Z" fill="url(#paint1_linear_2577_6545)"/>
<path d="M35.7715 28.2359V29.7911C35.7715 33.3643 32.8644 36.2713 29.2913 36.2713H15.7087C12.1355 36.2713 9.22852 33.3643 9.22852 29.7911V28.2359C9.22852 27.2354 10.0425 26.4214 11.043 26.4214H15.1903C16.1909 26.4214 17.0048 27.2354 17.0048 28.2359V30.3096C17.0048 30.7384 17.3537 31.0873 17.7825 31.0873H27.2177C27.6465 31.0873 27.9954 30.7384 27.9954 30.3096V28.2359C27.9954 27.2354 28.8093 26.4214 29.8099 26.4214H33.9572C34.9575 26.4215 35.7715 27.2354 35.7715 28.2359ZM12.9093 19.8376V12.5798C12.9093 11.005 14.1859 9.72852 15.7605 9.72852H29.2395C30.8142 9.72852 32.0907 11.005 32.0907 12.5798V19.8376C32.0907 21.4123 30.8142 22.6889 29.2395 22.6889H24.5681L23.2148 25.8465C22.9455 26.4749 22.0547 26.4749 21.7853 25.8465L20.432 22.6889H15.7606C14.1858 22.6889 12.9093 21.4123 12.9093 19.8376ZM16.5382 16.2086C16.5382 17.7808 17.8173 19.0599 19.3895 19.0599H25.6105C27.1826 19.0599 28.4617 17.7808 28.4617 16.2086C28.4617 14.6364 27.1826 13.3573 25.6105 13.3573H19.3895C17.8173 13.3573 16.5382 14.6364 16.5382 16.2086ZM19.3895 17.5047H21.7223V14.9127H19.3895C18.6748 14.9127 18.0934 15.4941 18.0934 16.2087C18.0934 16.9233 18.6748 17.5047 19.3895 17.5047ZM26.9066 16.2086C26.9066 15.494 26.3252 14.9126 25.6105 14.9126H23.2777V17.5046H25.6105C26.3252 17.5047 26.9066 16.9233 26.9066 16.2086Z" fill="url(#paint2_linear_2577_6545)"/>
</g>
<defs>
<linearGradient id="paint0_linear_2577_6545" x1="22.5" y1="45.5" x2="22.5" y2="-6.99997" gradientUnits="userSpaceOnUse">
<stop stop-color="#FFEDAD"/>
<stop offset="1" stop-color="#FFFFE5"/>
</linearGradient>
<linearGradient id="paint1_linear_2577_6545" x1="23.25" y1="0.5" x2="23.25" y2="43.25" gradientUnits="userSpaceOnUse">
<stop stop-color="#EAFFFC"/>
<stop offset="1" stop-color="#BCFFF6"/>
</linearGradient>
<linearGradient id="paint2_linear_2577_6545" x1="12.8372" y1="5.75408" x2="37.4094" y2="24.3442" gradientUnits="userSpaceOnUse">
<stop stop-color="#3FFFE5"/>
<stop offset="1" stop-color="#08C5AC"/>
</linearGradient>
<clipPath id="clip0_2577_6545">
<rect width="45" height="45" fill="white" transform="translate(0 0.5)"/>
</clipPath>
</defs>
</svg>
