<svg width="45" height="46" viewBox="0 0 45 46" fill="none" xmlns="http://www.w3.org/2000/svg">
<g clip-path="url(#clip0_2577_6553)">
<path d="M22.5 45.5C34.9264 45.5 45 35.4264 45 23C45 10.5736 34.9264 0.5 22.5 0.5C10.0736 0.5 0 10.5736 0 23C0 35.4264 10.0736 45.5 22.5 45.5Z" fill="url(#paint0_linear_2577_6553)"/>
<path d="M22.5 45.5C34.9264 45.5 45 35.4264 45 23C45 10.5736 34.9264 0.5 22.5 0.5C10.0736 0.5 0 10.5736 0 23C0 35.4264 10.0736 45.5 22.5 45.5Z" fill="url(#paint1_linear_2577_6553)"/>
<path d="M17.2705 25.0359V34.9531C17.2705 35.2289 17.4223 35.4821 17.6644 35.612C17.9081 35.7419 18.2 35.7273 18.4319 35.5748L21.7528 33.361V28.9766C21.7528 28.5637 22.087 28.2295 22.4999 28.2295C22.9128 28.2295 23.247 28.5637 23.247 28.9766V33.361L26.5679 35.5748C26.8006 35.7289 27.094 35.7406 27.3354 35.612C27.5776 35.4821 27.7293 35.2289 27.7293 34.9531V25.0381C26.2136 26.1405 24.4125 26.7354 22.5 26.7354C20.5886 26.7354 18.7886 26.141 17.2705 25.0359ZM13.8153 12.6409L12.5225 11.8939C12.1664 11.6903 11.7098 11.8085 11.5026 12.1675C11.2954 12.5242 11.418 12.9817 11.7754 13.1882C12.9908 13.8569 13.1004 14.0352 13.4417 14.0352C13.6985 14.0352 13.9496 13.9017 14.0882 13.6616C14.2953 13.3049 14.1728 12.8474 13.8153 12.6409ZM13.0682 23.0999L11.7754 23.847C11.418 24.0535 11.2954 24.5109 11.5026 24.8677C11.6412 25.1077 11.8922 25.2412 12.1489 25.2412C12.4913 25.2412 12.5978 25.064 13.8153 24.3942C14.1728 24.1878 14.2953 23.7303 14.0882 23.3735C13.881 23.0146 13.4198 22.8935 13.0682 23.0999ZM12.7881 18.5176C12.7881 18.1047 12.4539 17.7705 12.041 17.7705H10.5469C10.134 17.7705 9.7998 18.1047 9.7998 18.5176C9.7998 18.9305 10.134 19.2646 10.5469 19.2646H12.041C12.4539 19.2646 12.7881 18.9305 12.7881 18.5176ZM31.5582 14.0352C31.9005 14.0352 32.0063 13.8585 33.2245 13.1882C33.582 12.9817 33.7046 12.5242 33.4973 12.1675C33.2887 11.8078 32.829 11.6881 32.4774 11.8939L31.1847 12.6409C30.8272 12.8474 30.7046 13.3049 30.9118 13.6616C31.0504 13.9017 31.3015 14.0352 31.5582 14.0352ZM22.5 10.2998C18.3809 10.2998 15.0293 13.6514 15.0293 17.7705C15.0293 20.1058 16.1455 22.339 18.0191 23.7471C19.3061 24.7247 20.8556 25.2412 22.5 25.2412C24.1444 25.2412 25.694 24.7254 26.9824 23.7471C28.853 22.3398 29.9707 20.1058 29.9707 17.7705C29.9707 13.6514 26.6191 10.2998 22.5 10.2998ZM26.2354 21.5059C26.2354 21.9188 25.9012 22.2529 25.4883 22.2529H19.5117C19.0988 22.2529 18.7646 21.9188 18.7646 21.5059V20.0117C18.7646 18.7758 19.7699 17.7705 21.0059 17.7705H22.5C21.2641 17.7705 20.2588 16.7652 20.2588 15.5293C20.2588 14.2934 21.2641 13.2881 22.5 13.2881C23.7359 13.2881 24.7412 14.2934 24.7412 15.5293C24.7412 16.7652 23.7359 17.7705 22.5 17.7705H23.9941C25.2301 17.7705 26.2354 18.7758 26.2354 20.0117V21.5059ZM34.4531 17.7705H32.959C32.5461 17.7705 32.2119 18.1047 32.2119 18.5176C32.2119 18.9305 32.5461 19.2646 32.959 19.2646H34.4531C34.866 19.2646 35.2002 18.9305 35.2002 18.5176C35.2002 18.1047 34.866 17.7705 34.4531 17.7705ZM22.5 14.7822C22.0885 14.7822 21.7529 15.1171 21.7529 15.5293C21.7529 15.9415 22.0885 16.2764 22.5 16.2764C22.9115 16.2764 23.2471 15.9415 23.2471 15.5293C23.2471 15.1171 22.9115 14.7822 22.5 14.7822ZM33.2245 23.847L31.9317 23.0999C31.5743 22.8957 31.119 23.016 30.9118 23.3735C30.7047 23.7303 30.8272 24.1878 31.1847 24.3942C32.4 25.0629 32.5098 25.2412 32.851 25.2412C33.1078 25.2412 33.3587 25.1077 33.4973 24.8677C33.7046 24.5109 33.582 24.0535 33.2245 23.847ZM23.9941 19.2646H21.0059C20.5944 19.2646 20.2588 19.5995 20.2588 20.0117V20.7588H24.7412V20.0117C24.7412 19.5995 24.4056 19.2646 23.9941 19.2646Z" fill="url(#paint2_linear_2577_6553)"/>
</g>
<defs>
<linearGradient id="paint0_linear_2577_6553" x1="22.5" y1="0.5" x2="22.5" y2="45.5" gradientUnits="userSpaceOnUse">
<stop stop-color="#FFFFD5"/>
<stop offset="1" stop-color="#FFE59A"/>
</linearGradient>
<linearGradient id="paint1_linear_2577_6553" x1="22.5" y1="45.5" x2="22.5" y2="0.5" gradientUnits="userSpaceOnUse">
<stop stop-color="#D6ADFF"/>
<stop offset="0.5028" stop-color="#F5EAFF"/>
<stop offset="1" stop-color="#F5EAFF"/>
</linearGradient>
<linearGradient id="paint2_linear_2577_6553" x1="22.5" y1="35.7003" x2="22.5" y2="10.2998" gradientUnits="userSpaceOnUse">
<stop stop-color="#C081FF"/>
<stop offset="1" stop-color="#9D3AFF"/>
</linearGradient>
<clipPath id="clip0_2577_6553">
<rect width="45" height="45" fill="white" transform="translate(0 0.5)"/>
</clipPath>
</defs>
</svg>
