<svg width="85" height="129" viewBox="0 0 85 129" fill="none" xmlns="http://www.w3.org/2000/svg">
<g clip-path="url(#clip0_2577_5077)" filter="url(#filter0_dddd_2577_5077)">
<path d="M42.5 35C50.7843 35 57.5 28.2843 57.5 20C57.5 11.7157 50.7843 5 42.5 5C34.2157 5 27.5 11.7157 27.5 20C27.5 28.2843 34.2157 35 42.5 35Z" fill="url(#paint0_linear_2577_5077)"/>
<path d="M48.4099 12.2238H36.5901C35.5419 12.2238 34.6892 13.0765 34.6892 14.1246V23.9745H40.0808C40.2183 23.9745 40.3501 24.0291 40.4473 24.1264L40.9867 24.6657H44.0134L44.5527 24.1264C44.6499 24.0292 44.7818 23.9745 44.9193 23.9745H50.3108V14.1247C50.3108 13.0765 49.4581 12.2238 48.4099 12.2238ZM42.6728 20.864C42.6728 21.8851 41.1949 22.4193 39.7351 22.4193C38.2752 22.4193 36.7974 21.8851 36.7974 20.864V15.3343C36.7974 14.3132 38.2752 13.779 39.7351 13.779C41.1949 13.779 42.6728 14.3132 42.6728 15.3343V20.864ZM47.6842 21.7281H45.9562C45.6699 21.7281 45.4377 21.496 45.4377 21.2096C45.4377 20.9233 45.6698 20.6912 45.9562 20.6912H47.6842C47.9705 20.6912 48.2026 20.9233 48.2026 21.2096C48.2026 21.496 47.9705 21.7281 47.6842 21.7281ZM47.6842 19.6544H44.2281C43.9418 19.6544 43.7097 19.4223 43.7097 19.136C43.7097 18.8497 43.9418 18.6176 44.2281 18.6176H47.6842C47.9705 18.6176 48.2026 18.8497 48.2026 19.136C48.2026 19.4223 47.9705 19.6544 47.6842 19.6544ZM47.6842 17.5807H44.2281C43.9418 17.5807 43.7097 17.3487 43.7097 17.0623C43.7097 16.776 43.9418 16.5439 44.2281 16.5439H47.6842C47.9705 16.5439 48.2026 16.776 48.2026 17.0623C48.2026 17.3487 47.9705 17.5807 47.6842 17.5807ZM47.6842 15.5071H44.2281C43.9418 15.5071 43.7097 15.275 43.7097 14.9886C43.7097 14.7023 43.9418 14.4702 44.2281 14.4702H47.6842C47.9705 14.4702 48.2026 14.7023 48.2026 14.9886C48.2026 15.275 47.9705 15.5071 47.6842 15.5071ZM37.8412 15.3343C37.8764 15.2836 38.0089 15.1556 38.3369 15.0346C38.7191 14.8935 39.2156 14.8158 39.7351 14.8158C40.2545 14.8158 40.751 14.8935 41.1333 15.0346C41.4613 15.1556 41.5938 15.2836 41.6289 15.3343C41.5938 15.3849 41.4613 15.5129 41.1333 15.634C40.7511 15.775 40.2545 15.8527 39.7351 15.8527C39.2156 15.8527 38.7191 15.775 38.3369 15.634C38.009 15.513 37.8764 15.3849 37.8412 15.3343ZM39.7351 16.8895C40.4152 16.8895 41.0993 16.7735 41.6359 16.5463V20.8527C41.6151 20.8926 41.4894 21.0323 41.1332 21.1638C40.751 21.3048 40.2545 21.3825 39.735 21.3825C39.2156 21.3825 38.7191 21.3048 38.3368 21.1638C37.9806 21.0323 37.8549 20.8926 37.8341 20.8527V16.5463C38.371 16.7735 39.0549 16.8895 39.7351 16.8895ZM45.134 25.0114H50.8293C51.1156 25.0114 51.3477 25.2435 51.3477 25.5298V25.8754C51.3477 26.9252 50.4966 27.7762 49.4469 27.7762H35.5532C34.5034 27.7762 33.6523 26.9252 33.6523 25.8754V25.5298C33.6523 25.2435 33.8844 25.0114 34.1708 25.0114H39.866L40.4054 25.5508C40.5027 25.648 40.6346 25.7026 40.772 25.7026H44.2281C44.3656 25.7026 44.4975 25.648 44.5947 25.5508L45.134 25.0114Z" fill="url(#paint1_linear_2577_5077)"/>
</g>
<defs>
<filter id="filter0_dddd_2577_5077" x="0.5" y="0" width="84" height="129" filterUnits="userSpaceOnUse" color-interpolation-filters="sRGB">
<feFlood flood-opacity="0" result="BackgroundImageFix"/>
<feColorMatrix in="SourceAlpha" type="matrix" values="0 0 0 0 0 0 0 0 0 0 0 0 0 0 0 0 0 0 127 0" result="hardAlpha"/>
<feOffset dy="4"/>
<feGaussianBlur stdDeviation="4.5"/>
<feColorMatrix type="matrix" values="0 0 0 0 0 0 0 0 0 0 0 0 0 0 0 0 0 0 0.1 0"/>
<feBlend mode="normal" in2="BackgroundImageFix" result="effect1_dropShadow_2577_5077"/>
<feColorMatrix in="SourceAlpha" type="matrix" values="0 0 0 0 0 0 0 0 0 0 0 0 0 0 0 0 0 0 127 0" result="hardAlpha"/>
<feOffset dy="17"/>
<feGaussianBlur stdDeviation="8.5"/>
<feColorMatrix type="matrix" values="0 0 0 0 0 0 0 0 0 0 0 0 0 0 0 0 0 0 0.09 0"/>
<feBlend mode="normal" in2="effect1_dropShadow_2577_5077" result="effect2_dropShadow_2577_5077"/>
<feColorMatrix in="SourceAlpha" type="matrix" values="0 0 0 0 0 0 0 0 0 0 0 0 0 0 0 0 0 0 127 0" result="hardAlpha"/>
<feOffset dy="37"/>
<feGaussianBlur stdDeviation="11"/>
<feColorMatrix type="matrix" values="0 0 0 0 0 0 0 0 0 0 0 0 0 0 0 0 0 0 0.05 0"/>
<feBlend mode="normal" in2="effect2_dropShadow_2577_5077" result="effect3_dropShadow_2577_5077"/>
<feColorMatrix in="SourceAlpha" type="matrix" values="0 0 0 0 0 0 0 0 0 0 0 0 0 0 0 0 0 0 127 0" result="hardAlpha"/>
<feOffset dy="67"/>
<feGaussianBlur stdDeviation="13.5"/>
<feColorMatrix type="matrix" values="0 0 0 0 0 0 0 0 0 0 0 0 0 0 0 0 0 0 0.01 0"/>
<feBlend mode="normal" in2="effect3_dropShadow_2577_5077" result="effect4_dropShadow_2577_5077"/>
<feBlend mode="normal" in="SourceGraphic" in2="effect4_dropShadow_2577_5077" result="shape"/>
</filter>
<linearGradient id="paint0_linear_2577_5077" x1="42.5" y1="35" x2="42.5" y2="5" gradientUnits="userSpaceOnUse">
<stop stop-color="#ADDCFF"/>
<stop offset="0.5028" stop-color="#EAF6FF"/>
<stop offset="1" stop-color="#EAF6FF"/>
</linearGradient>
<linearGradient id="paint1_linear_2577_5077" x1="42.5" y1="27.7763" x2="42.5" y2="12.2238" gradientUnits="userSpaceOnUse">
<stop stop-color="#388AF5"/>
<stop offset="1" stop-color="#3B85F9"/>
</linearGradient>
<clipPath id="clip0_2577_5077">
<rect width="30" height="30" fill="white" transform="translate(27.5 5)"/>
</clipPath>
</defs>
</svg>
