<svg width="31" height="30" viewBox="0 0 31 30" fill="none" xmlns="http://www.w3.org/2000/svg">
<g style="mix-blend-mode:luminosity" clip-path="url(#clip0_2577_5084)">
<path d="M15.5 30C23.7843 30 30.5 23.2843 30.5 15C30.5 6.71573 23.7843 0 15.5 0C7.21573 0 0.5 6.71573 0.5 15C0.5 23.2843 7.21573 30 15.5 30Z" fill="url(#paint0_linear_2577_5084)"/>
<path d="M17.5818 18.6431C17.5818 17.495 16.6481 16.5613 15.5 16.5613C14.3519 16.5613 13.4182 17.495 13.4182 18.6431C13.4182 19.7913 14.3519 20.725 15.5 20.725C16.6481 20.725 17.5818 19.7913 17.5818 18.6431ZM15.5 20.725C14.0652 20.725 12.8977 21.8924 12.8977 23.3272C12.8977 23.6149 13.1305 23.8477 13.4182 23.8477H17.5818C17.8695 23.8477 18.1022 23.6149 18.1022 23.3272C18.1023 21.8924 16.9348 20.725 15.5 20.725ZM11.3364 18.6431C11.3364 17.495 10.4028 16.5613 9.25455 16.5613C8.10641 16.5613 7.17277 17.495 7.17277 18.6431C7.17277 19.7913 8.10646 20.725 9.25455 20.725C10.4028 20.725 11.3364 19.7913 11.3364 18.6431ZM9.25461 20.725C7.81982 20.725 6.65234 21.8924 6.65234 23.3272C6.65234 23.6149 6.88514 23.8477 7.17277 23.8477H11.3364C11.6241 23.8477 11.8568 23.6149 11.8568 23.3272C11.8568 21.8924 10.6894 20.725 9.25461 20.725ZM23.8272 18.6431C23.8272 17.495 22.8935 16.5613 21.7454 16.5613C20.5973 16.5613 19.6636 17.495 19.6636 18.6431C19.6636 19.7913 20.5972 20.725 21.7454 20.725C22.8935 20.725 23.8272 19.7913 23.8272 18.6431ZM21.7454 20.725C20.3107 20.725 19.1431 21.8924 19.1431 23.3272C19.1431 23.6149 19.3759 23.8477 19.6636 23.8477H23.8272C24.1149 23.8477 24.3476 23.6149 24.3476 23.3272C24.3477 21.8924 23.1802 20.725 21.7454 20.725ZM20.184 13.9591C20.184 14.2465 20.4171 14.4795 20.7045 14.4795C20.9919 14.4795 21.2249 14.2465 21.2249 13.9591C21.2249 13.6716 20.9919 13.4387 20.7045 13.4387C20.4171 13.4387 20.184 13.6717 20.184 13.9591ZM16.0204 15C16.0204 14.7125 15.7874 14.4796 15.5 14.4796C15.2126 14.4796 14.9796 14.7126 14.9796 15C14.9796 15.2874 15.2126 15.5204 15.5 15.5204C15.7874 15.5204 16.0204 15.2875 16.0204 15ZM10.816 13.9591C10.816 13.6716 10.5829 13.4387 10.2955 13.4387C10.0081 13.4387 9.7751 13.6717 9.7751 13.9591C9.7751 14.2465 10.0081 14.4795 10.2955 14.4795C10.5829 14.4795 10.816 14.2465 10.816 13.9591ZM21.225 9.79547C21.225 8.18332 19.7155 6.89186 18.0901 7.25268C17.4044 6.54926 16.4784 6.15234 15.5 6.15234C14.5216 6.15234 13.5956 6.54926 12.9099 7.25268C11.2861 6.89285 9.77504 8.18385 9.77504 9.79547C9.77504 11.4077 11.2851 12.6986 12.9099 12.3383C13.5955 13.0417 14.5216 13.4387 15.5 13.4387C16.4784 13.4387 17.4044 13.0417 18.0901 12.3383C19.7165 12.6997 21.225 11.4082 21.225 9.79547Z" fill="url(#paint1_linear_2577_5084)"/>
</g>
<defs>
<linearGradient id="paint0_linear_2577_5084" x1="15.5" y1="30" x2="15.5" y2="0" gradientUnits="userSpaceOnUse">
<stop stop-color="#ADDCFF"/>
<stop offset="0.5028" stop-color="#EAF6FF"/>
<stop offset="1" stop-color="#EAF6FF"/>
</linearGradient>
<linearGradient id="paint1_linear_2577_5084" x1="15.5" y1="23.8477" x2="15.5" y2="6.15234" gradientUnits="userSpaceOnUse">
<stop stop-color="#00C0FF"/>
<stop offset="1" stop-color="#5558FF"/>
</linearGradient>
<clipPath id="clip0_2577_5084">
<rect width="30" height="30" fill="white" transform="translate(0.5)"/>
</clipPath>
</defs>
</svg>
