<svg width="31" height="30" viewBox="0 0 31 30" fill="none" xmlns="http://www.w3.org/2000/svg">
<g clip-path="url(#clip0_2577_6965)">
<path d="M15.502 29.9993C23.7862 29.9993 30.502 23.2835 30.502 14.9993C30.502 6.715 23.7862 -0.000732422 15.502 -0.000732422C7.21768 -0.000732422 0.501953 6.715 0.501953 14.9993C0.501953 23.2835 7.21768 29.9993 15.502 29.9993Z" fill="url(#paint0_linear_2577_6965)"/>
<path d="M17.5847 18.6424C17.5847 17.4942 16.6511 16.5606 15.5029 16.5606C14.3548 16.5606 13.4212 17.4943 13.4212 18.6424C13.4212 19.7905 14.3548 20.7242 15.5029 20.7242C16.6511 20.7242 17.5847 19.7905 17.5847 18.6424ZM15.5029 20.7242C14.0681 20.7242 12.9007 21.8917 12.9007 23.3265C12.9007 23.6142 13.1335 23.8469 13.4211 23.8469H17.5847C17.8724 23.8469 18.1051 23.6141 18.1051 23.3265C18.1052 21.8917 16.9377 20.7242 15.5029 20.7242ZM11.3393 18.6424C11.3393 17.4942 10.4057 16.5606 9.25748 16.5606C8.10934 16.5606 7.1757 17.4943 7.1757 18.6424C7.1757 19.7905 8.10939 20.7242 9.25748 20.7242C10.4057 20.7242 11.3393 19.7905 11.3393 18.6424ZM9.25754 20.7242C7.82275 20.7242 6.65527 21.8917 6.65527 23.3265C6.65527 23.6142 6.88807 23.8469 7.1757 23.8469H11.3393C11.627 23.8469 11.8597 23.6141 11.8597 23.3265C11.8597 21.8917 10.6923 20.7242 9.25754 20.7242ZM23.8302 18.6424C23.8302 17.4942 22.8965 16.5606 21.7484 16.5606C20.6002 16.5606 19.6665 17.4943 19.6665 18.6424C19.6665 19.7905 20.6002 20.7242 21.7484 20.7242C22.8965 20.7242 23.8302 19.7905 23.8302 18.6424ZM21.7484 20.7242C20.3136 20.7242 19.1461 21.8917 19.1461 23.3265C19.1461 23.6142 19.3788 23.8469 19.6665 23.8469H23.8301C24.1178 23.8469 24.3505 23.6141 24.3505 23.3265C24.3506 21.8917 23.1832 20.7242 21.7484 20.7242ZM20.187 13.9583C20.187 14.2458 20.42 14.4788 20.7074 14.4788C20.9948 14.4788 21.2278 14.2458 21.2278 13.9583C21.2278 13.6709 20.9948 13.4379 20.7074 13.4379C20.42 13.4379 20.187 13.6709 20.187 13.9583ZM16.0234 14.9993C16.0234 14.7118 15.7903 14.4788 15.5029 14.4788C15.2155 14.4788 14.9825 14.7119 14.9825 14.9993C14.9825 15.2867 15.2155 15.5197 15.5029 15.5197C15.7903 15.5197 16.0234 15.2867 16.0234 14.9993ZM10.8189 13.9583C10.8189 13.6709 10.5859 13.4379 10.2985 13.4379C10.0111 13.4379 9.77803 13.6709 9.77803 13.9583C9.77803 14.2458 10.0111 14.4788 10.2985 14.4788C10.5859 14.4788 10.8189 14.2458 10.8189 13.9583ZM21.2279 9.79474C21.2279 8.18259 19.7184 6.89112 18.093 7.25194C17.4073 6.54853 16.4813 6.15161 15.5029 6.15161C14.5245 6.15161 13.5985 6.54853 12.9129 7.25194C11.289 6.89212 9.77797 8.18312 9.77797 9.79474C9.77797 11.4069 11.288 12.6979 12.9129 12.3375C13.5985 13.0409 14.5245 13.4379 15.5029 13.4379C16.4813 13.4379 17.4073 13.0409 18.093 12.3375C19.7194 12.6989 21.2279 11.4075 21.2279 9.79474Z" fill="url(#paint1_linear_2577_6965)"/>
</g>
<defs>
<linearGradient id="paint0_linear_2577_6965" x1="15.502" y1="29.9993" x2="15.502" y2="-0.000732422" gradientUnits="userSpaceOnUse">
<stop stop-color="#D6ADFF"/>
<stop offset="0.5028" stop-color="#F5EAFF"/>
<stop offset="1" stop-color="#F5EAFF"/>
</linearGradient>
<linearGradient id="paint1_linear_2577_6965" x1="15.5029" y1="23.8469" x2="15.5029" y2="6.15161" gradientUnits="userSpaceOnUse">
<stop stop-color="#8000FF"/>
<stop offset="1" stop-color="#AA55FF"/>
</linearGradient>
<clipPath id="clip0_2577_6965">
<rect width="30" height="30" fill="white" transform="translate(0.5)"/>
</clipPath>
</defs>
</svg>
