<svg width="31" height="30" viewBox="0 0 31 30" fill="none" xmlns="http://www.w3.org/2000/svg">
<g clip-path="url(#clip0_2577_7056)">
<path d="M15.4995 30.001C23.7838 30.001 30.4995 23.2852 30.4995 15.001C30.4995 6.7167 23.7838 0.000976562 15.4995 0.000976562C7.21524 0.000976562 0.499512 6.7167 0.499512 15.001C0.499512 23.2852 7.21524 30.001 15.4995 30.001Z" fill="url(#paint0_linear_2577_7056)"/>
<path d="M30.0752 18.5566C28.6191 24.5478 23.5643 29.1322 17.3299 29.8904L8.59473 21.1535L11.9346 11.4269L21.1156 9.59644L30.0752 18.5566Z" fill="url(#paint1_linear_2577_7056)"/>
<path d="M15.0573 7.3252C10.6587 7.3252 7.09326 10.1963 7.09326 13.7318C7.09326 15.1094 7.6335 16.3844 8.55283 17.4291L8.22178 20.4262C8.2045 20.5827 8.23238 20.7409 8.30213 20.8821C8.37188 21.0233 8.48058 21.1416 8.61539 21.223C8.75021 21.3044 8.9055 21.3455 9.06293 21.3414C9.22036 21.3374 9.37334 21.2884 9.50381 21.2002L11.8692 19.6029C12.8942 19.9597 13.9721 20.1404 15.0573 20.1373C19.456 20.1373 23.022 17.2697 23.022 13.7318C23.022 10.1939 19.456 7.3252 15.0573 7.3252Z" fill="url(#paint2_linear_2577_7056)"/>
<path d="M17.919 12.0127C21.27 12.0127 23.9858 14.1971 23.9858 16.8918C23.9858 17.9406 23.5757 18.9121 22.8726 19.7078L23.1245 21.993C23.1378 22.1122 23.1167 22.2328 23.0637 22.3404C23.0106 22.448 22.9279 22.5382 22.8252 22.6003C22.7225 22.6624 22.6042 22.6937 22.4842 22.6907C22.3643 22.6876 22.2477 22.6502 22.1483 22.583L20.3466 21.366C19.5658 21.638 18.7446 21.7757 17.9179 21.7732C14.5675 21.7732 11.8511 19.5889 11.8511 16.8941C11.8511 14.1994 14.5687 12.0127 17.919 12.0127Z" fill="url(#paint3_linear_2577_7056)"/>
<path d="M20.1346 14.9724H15.6855C15.4364 14.9724 15.2344 15.1744 15.2344 15.4236C15.2344 15.6728 15.4364 15.8748 15.6855 15.8748H20.1346C20.3837 15.8748 20.5857 15.6728 20.5857 15.4236C20.5857 15.1744 20.3837 14.9724 20.1346 14.9724Z" fill="url(#paint4_linear_2577_7056)"/>
<path d="M20.1438 16.5671H15.6948C15.4456 16.5671 15.2437 16.7691 15.2437 17.0183C15.2437 17.2675 15.4456 17.4695 15.6948 17.4695H20.1438C20.393 17.4695 20.595 17.2675 20.595 17.0183C20.595 16.7691 20.393 16.5671 20.1438 16.5671Z" fill="url(#paint5_linear_2577_7056)"/>
<path d="M20.1551 18.1619H15.7061C15.4569 18.1619 15.2549 18.3639 15.2549 18.613C15.2549 18.8622 15.4569 19.0642 15.7061 19.0642H20.1551C20.4043 19.0642 20.6063 18.8622 20.6063 18.613C20.6063 18.3639 20.4043 18.1619 20.1551 18.1619Z" fill="url(#paint6_linear_2577_7056)"/>
</g>
<defs>
<linearGradient id="paint0_linear_2577_7056" x1="4.89287" y1="4.39434" x2="26.1062" y2="25.6076" gradientUnits="userSpaceOnUse">
<stop stop-color="#FFEAEA"/>
<stop offset="1" stop-color="#FFBCBC"/>
</linearGradient>
<linearGradient id="paint1_linear_2577_7056" x1="11.4213" y1="11.9425" x2="25.5963" y2="26.1169" gradientUnits="userSpaceOnUse">
<stop stop-color="#A01C52"/>
<stop offset="1" stop-color="#A01C52" stop-opacity="0"/>
</linearGradient>
<linearGradient id="paint2_linear_2577_7056" x1="9.01045" y1="9.5582" x2="19.2315" y2="19.7793" gradientUnits="userSpaceOnUse">
<stop stop-color="#FEE1E1"/>
<stop offset="1" stop-color="#F82626"/>
</linearGradient>
<linearGradient id="paint3_linear_2577_7056" x1="14.0267" y1="13.0006" x2="23.2388" y2="22.2133" gradientUnits="userSpaceOnUse">
<stop stop-color="#FA8383"/>
<stop offset="1" stop-color="#F61717"/>
</linearGradient>
<linearGradient id="paint4_linear_2577_7056" x1="16.4789" y1="13.9921" x2="19.3412" y2="16.8544" gradientUnits="userSpaceOnUse">
<stop stop-color="#FEE1E1"/>
<stop offset="1" stop-color="#FC8383"/>
</linearGradient>
<linearGradient id="paint5_linear_2577_7056" x1="16.4882" y1="15.5869" x2="19.3505" y2="18.4492" gradientUnits="userSpaceOnUse">
<stop stop-color="#FEE1E1"/>
<stop offset="1" stop-color="#FC8383"/>
</linearGradient>
<linearGradient id="paint6_linear_2577_7056" x1="16.4994" y1="17.1816" x2="19.3617" y2="20.0439" gradientUnits="userSpaceOnUse">
<stop stop-color="#FEE1E1"/>
<stop offset="1" stop-color="#FC8383"/>
</linearGradient>
<clipPath id="clip0_2577_7056">
<rect width="30" height="30" fill="white" transform="translate(0.5)"/>
</clipPath>
</defs>
</svg>
