<svg width="31" height="30" viewBox="0 0 31 30" fill="none" xmlns="http://www.w3.org/2000/svg">
<g clip-path="url(#clip0_2577_7149)">
<path d="M15.4983 29.9993C23.7826 29.9993 30.4983 23.2835 30.4983 14.9993C30.4983 6.715 23.7826 -0.000732422 15.4983 -0.000732422C7.21402 -0.000732422 0.498291 6.715 0.498291 14.9993C0.498291 23.2835 7.21402 29.9993 15.4983 29.9993Z" fill="url(#paint0_linear_2577_7149)"/>
<path d="M15.4987 8.23424C16.1401 8.23424 16.7255 7.83223 16.9563 7.23452C17.0905 6.88641 17.0892 6.51786 16.9726 6.15247H14.0295C13.8849 6.61266 13.9216 7.07842 14.1574 7.47288C14.4425 7.94965 14.9437 8.23424 15.4987 8.23424ZM10.2941 12.3979H11.8555V14.4797H19.1418V12.3979H20.7031C20.9908 12.3979 21.2236 12.1651 21.2236 11.8774V8.75473C21.2236 7.31995 20.0561 6.15247 18.6213 6.15247H18.0424C18.1395 6.64073 18.1097 7.13579 17.9275 7.60864C17.5433 8.60532 16.5669 9.27522 15.4986 9.27522C14.5878 9.27522 13.7314 8.7893 13.2638 8.00661C12.9256 7.44053 12.836 6.79448 12.9628 6.15252H12.3759C10.9411 6.15252 9.77363 7.32 9.77363 8.75479V11.8775C9.77369 12.1651 10.0065 12.3979 10.2941 12.3979ZM24.2589 18.875L22.1771 15.7524C22.0727 15.6564 21.9851 15.5206 21.744 15.5206H9.25326C9.01391 15.5206 8.92455 15.6565 8.82025 15.7524L6.73848 18.875C6.57887 19.1145 6.64344 19.4372 6.88279 19.5967C7.12631 19.7582 7.4477 19.688 7.60449 19.4524L8.73283 17.7599V22.2864C8.73283 23.1474 9.4332 23.8477 10.2942 23.8477H20.7032C21.5642 23.8477 22.2645 23.1474 22.2645 22.2864V17.7599L23.3929 19.4524C23.5497 19.6881 23.8712 19.7581 24.1146 19.5967C24.3539 19.4372 24.4185 19.1144 24.2589 18.875ZM20.1827 21.2455C20.1827 21.5332 19.9499 21.7659 19.6623 21.7659H16.5396C16.2519 21.7659 16.0191 21.5332 16.0191 21.2455V19.1637C16.0191 18.876 16.2519 18.6433 16.5396 18.6433H19.6623C19.95 18.6433 20.1827 18.8761 20.1827 19.1637V21.2455ZM17.06 20.7251H19.1418V19.6842H17.06V20.7251Z" fill="url(#paint1_linear_2577_7149)"/>
</g>
<defs>
<linearGradient id="paint0_linear_2577_7149" x1="15.4983" y1="29.9993" x2="15.4983" y2="-0.000732422" gradientUnits="userSpaceOnUse">
<stop stop-color="#FFBEF9"/>
<stop offset="1" stop-color="#FFF1FF"/>
</linearGradient>
<linearGradient id="paint1_linear_2577_7149" x1="15.4987" y1="23.8478" x2="15.4987" y2="6.15247" gradientUnits="userSpaceOnUse">
<stop stop-color="#FF81FF"/>
<stop offset="1" stop-color="#A93AFF"/>
</linearGradient>
<clipPath id="clip0_2577_7149">
<rect width="30" height="30" fill="white" transform="translate(0.5)"/>
</clipPath>
</defs>
</svg>
