<svg width="31" height="30" viewBox="0 0 31 30" fill="none" xmlns="http://www.w3.org/2000/svg">
<g opacity="0.84" clip-path="url(#clip0_2577_7159)">
<path d="M15.5 30C23.7843 30 30.5 23.2843 30.5 15C30.5 6.71573 23.7843 0 15.5 0C7.21573 0 0.5 6.71573 0.5 15C0.5 23.2843 7.21573 30 15.5 30Z" fill="url(#paint0_linear_2577_7159)"/>
<path d="M15.8333 6.50391H15.1665C13.2961 6.50391 11.7798 8.02019 11.7798 9.89063V14.2629C11.7798 16.1333 13.2961 17.6496 15.1665 17.6496H15.8333C17.7037 17.6496 19.22 16.1333 19.22 14.2629V9.89063C19.22 8.02019 17.7037 6.50391 15.8333 6.50391Z" fill="url(#paint1_linear_2577_7159)"/>
<path d="M17.8291 8.69006H16.898C16.5806 8.69006 16.3232 8.94728 16.3232 9.26458C16.3232 9.58187 16.5806 9.83909 16.898 9.83909H17.8291C18.1466 9.83909 18.4039 9.58187 18.4039 9.26458C18.4039 8.94728 18.1466 8.69006 17.8291 8.69006Z" fill="url(#paint2_linear_2577_7159)"/>
<path d="M17.8291 10.5222H16.898C16.5806 10.5222 16.3232 10.7794 16.3232 11.0967C16.3232 11.414 16.5806 11.6712 16.898 11.6712H17.8291C18.1466 11.6712 18.4039 11.414 18.4039 11.0967C18.4039 10.7794 18.1466 10.5222 17.8291 10.5222Z" fill="url(#paint3_linear_2577_7159)"/>
<path d="M17.8291 12.3545H16.898C16.5806 12.3545 16.3232 12.6117 16.3232 12.929C16.3232 13.2463 16.5806 13.5035 16.898 13.5035H17.8291C18.1466 13.5035 18.4039 13.2463 18.4039 12.929C18.4039 12.6117 18.1466 12.3545 17.8291 12.3545Z" fill="url(#paint4_linear_2577_7159)"/>
<path d="M17.8291 14.1873H16.898C16.5806 14.1873 16.3232 14.4445 16.3232 14.7618C16.3232 15.0791 16.5806 15.3363 16.898 15.3363H17.8291C18.1466 15.3363 18.4039 15.0791 18.4039 14.7618C18.4039 14.4445 18.1466 14.1873 17.8291 14.1873Z" fill="url(#paint5_linear_2577_7159)"/>
<path d="M14.1021 8.69006H13.171C12.8535 8.69006 12.5962 8.94728 12.5962 9.26458C12.5962 9.58187 12.8535 9.83909 13.171 9.83909H14.1021C14.4195 9.83909 14.6769 9.58187 14.6769 9.26458C14.6769 8.94728 14.4195 8.69006 14.1021 8.69006Z" fill="url(#paint6_linear_2577_7159)"/>
<path d="M14.1021 10.5222H13.171C12.8535 10.5222 12.5962 10.7794 12.5962 11.0967C12.5962 11.414 12.8535 11.6712 13.171 11.6712H14.1021C14.4195 11.6712 14.6769 11.414 14.6769 11.0967C14.6769 10.7794 14.4195 10.5222 14.1021 10.5222Z" fill="url(#paint7_linear_2577_7159)"/>
<path d="M14.1021 12.3545H13.171C12.8535 12.3545 12.5962 12.6117 12.5962 12.929C12.5962 13.2463 12.8535 13.5035 13.171 13.5035H14.1021C14.4195 13.5035 14.6769 13.2463 14.6769 12.929C14.6769 12.6117 14.4195 12.3545 14.1021 12.3545Z" fill="url(#paint8_linear_2577_7159)"/>
<path d="M14.1021 14.1873H13.171C12.8535 14.1873 12.5962 14.4445 12.5962 14.7618C12.5962 15.0791 12.8535 15.3363 13.171 15.3363H14.1021C14.4195 15.3363 14.6769 15.0791 14.6769 14.7618C14.6769 14.4445 14.4195 14.1873 14.1021 14.1873Z" fill="url(#paint9_linear_2577_7159)"/>
<path d="M21.2188 14.117H20.5391C20.423 14.1171 20.311 14.1594 20.2237 14.2361C20.1365 14.3127 20.0802 14.4184 20.0651 14.5336C19.9186 15.64 19.375 16.6556 18.5355 17.3912C17.6961 18.1268 16.618 18.5323 15.5018 18.5323C14.3857 18.5323 13.3075 18.1268 12.4681 17.3912C11.6287 16.6556 11.0851 15.64 10.9385 14.5336C10.9235 14.4184 10.8671 14.3127 10.7799 14.2361C10.6927 14.1594 10.5806 14.1171 10.4645 14.117H9.78131C9.71363 14.1171 9.64674 14.1315 9.58504 14.1593C9.52335 14.1871 9.46824 14.2277 9.42335 14.2783C9.37846 14.329 9.3448 14.3886 9.32459 14.4532C9.30439 14.5177 9.29809 14.5859 9.30612 14.6531C9.46738 16.0175 10.0738 17.2907 11.0315 18.2757C11.9892 19.2607 13.2449 19.9027 14.6042 20.1023V21.7048H12.9635C12.8959 21.7048 12.8289 21.7182 12.7664 21.744C12.704 21.7699 12.6472 21.8079 12.5994 21.8557C12.5515 21.9035 12.5136 21.9603 12.4877 22.0228C12.4618 22.0853 12.4485 22.1522 12.4485 22.2199V22.9816C12.4484 23.0493 12.4617 23.1163 12.4875 23.1788C12.5134 23.2413 12.5513 23.2981 12.5992 23.346C12.647 23.3938 12.7038 23.4317 12.7664 23.4576C12.8289 23.4834 12.8959 23.4967 12.9635 23.4966H18.0401C18.1078 23.4967 18.1748 23.4834 18.2373 23.4576C18.2998 23.4317 18.3566 23.3938 18.4045 23.346C18.4523 23.2981 18.4902 23.2413 18.5161 23.1788C18.5419 23.1163 18.5552 23.0493 18.5551 22.9816V22.2199C18.5551 22.1522 18.5418 22.0853 18.5159 22.0228C18.4901 21.9603 18.4521 21.9035 18.4043 21.8557C18.3565 21.8079 18.2997 21.7699 18.2372 21.744C18.1747 21.7182 18.1077 21.7048 18.0401 21.7048H16.3995V20.1011C17.7588 19.9016 19.0144 19.2596 19.9721 18.2745C20.9299 17.2895 21.5363 16.0163 21.6975 14.6519C21.7054 14.5845 21.6989 14.5162 21.6784 14.4515C21.6579 14.3868 21.6239 14.3272 21.5786 14.2766C21.5334 14.2261 21.4779 14.1857 21.4159 14.1581C21.3538 14.1306 21.2867 14.1166 21.2188 14.117Z" fill="url(#paint10_linear_2577_7159)"/>
</g>
<defs>
<linearGradient id="paint0_linear_2577_7159" x1="4.89336" y1="4.39336" x2="26.1066" y2="25.6066" gradientUnits="userSpaceOnUse">
<stop stop-color="#F3F3F3"/>
<stop offset="1" stop-color="#DADADA"/>
</linearGradient>
<linearGradient id="paint1_linear_2577_7159" x1="11.8454" y1="8.42227" x2="19.1544" y2="15.7312" gradientUnits="userSpaceOnUse">
<stop stop-color="#717171"/>
<stop offset="1" stop-color="#8A8A8A"/>
</linearGradient>
<linearGradient id="paint2_linear_2577_7159" x1="16.724" y1="8.62502" x2="18.0025" y2="9.90354" gradientUnits="userSpaceOnUse">
<stop stop-color="#F2F2F2"/>
<stop offset="1" stop-color="#E6E6E6"/>
</linearGradient>
<linearGradient id="paint3_linear_2577_7159" x1="16.724" y1="10.4572" x2="18.0025" y2="11.7357" gradientUnits="userSpaceOnUse">
<stop stop-color="#F2F2F2"/>
<stop offset="1" stop-color="#E6E6E6"/>
</linearGradient>
<linearGradient id="paint4_linear_2577_7159" x1="16.724" y1="12.2895" x2="18.0025" y2="13.568" gradientUnits="userSpaceOnUse">
<stop stop-color="#F2F2F2"/>
<stop offset="1" stop-color="#E6E6E6"/>
</linearGradient>
<linearGradient id="paint5_linear_2577_7159" x1="16.724" y1="14.1222" x2="18.0025" y2="15.4007" gradientUnits="userSpaceOnUse">
<stop stop-color="#F2F2F2"/>
<stop offset="1" stop-color="#E6E6E6"/>
</linearGradient>
<linearGradient id="paint6_linear_2577_7159" x1="12.997" y1="8.62502" x2="14.2755" y2="9.90354" gradientUnits="userSpaceOnUse">
<stop stop-color="#F2F2F2"/>
<stop offset="1" stop-color="#E6E6E6"/>
</linearGradient>
<linearGradient id="paint7_linear_2577_7159" x1="12.997" y1="10.4572" x2="14.2755" y2="11.7357" gradientUnits="userSpaceOnUse">
<stop stop-color="#F2F2F2"/>
<stop offset="1" stop-color="#E6E6E6"/>
</linearGradient>
<linearGradient id="paint8_linear_2577_7159" x1="12.997" y1="12.2895" x2="14.2755" y2="13.568" gradientUnits="userSpaceOnUse">
<stop stop-color="#F2F2F2"/>
<stop offset="1" stop-color="#E6E6E6"/>
</linearGradient>
<linearGradient id="paint9_linear_2577_7159" x1="12.997" y1="14.1222" x2="14.2755" y2="15.4007" gradientUnits="userSpaceOnUse">
<stop stop-color="#F2F2F2"/>
<stop offset="1" stop-color="#E6E6E6"/>
</linearGradient>
<linearGradient id="paint10_linear_2577_7159" x1="10.9883" y1="12.7125" x2="20.0118" y2="21.7359" gradientUnits="userSpaceOnUse">
<stop stop-color="#8B8B8B"/>
<stop offset="1" stop-color="#818181"/>
</linearGradient>
<clipPath id="clip0_2577_7159">
<rect width="30" height="30" fill="white" transform="translate(0.5)"/>
</clipPath>
</defs>
</svg>
