<svg width="31" height="30" viewBox="0 0 31 30" fill="none" xmlns="http://www.w3.org/2000/svg">
<path fill-rule="evenodd" clip-rule="evenodd" d="M30.5 15C30.5 23.2843 23.7843 30 15.5 30C7.21572 30 0.5 23.2843 0.5 15C0.5 6.71572 7.21572 0 15.5 0C23.7843 0 30.5 6.71572 30.5 15Z" fill="url(#paint0_linear_2577_7352)"/>
<path d="M22.7923 8.57162H22.2393V7.7076C22.2393 6.85002 21.5417 6.15234 20.6841 6.15234C19.8265 6.15234 19.1288 6.85002 19.1288 7.7076V8.57162H20.1656V7.7076C20.1656 7.42172 20.3982 7.18916 20.6841 7.18916C20.97 7.18916 21.2025 7.42172 21.2025 7.7076V8.57162H20.1657V9.78129C20.1657 10.0672 20.3983 10.2997 20.6841 10.2997C20.9704 10.2997 21.2026 10.5318 21.2026 10.8182C21.2026 11.1045 20.9705 11.3366 20.6841 11.3366C19.8266 11.3366 19.1289 10.6389 19.1289 9.78135V8.57168H17.0552V7.70766C17.0552 6.85002 16.3575 6.15234 15.4999 6.15234C14.6424 6.15234 13.9447 6.85002 13.9447 7.7076V8.57162H14.9815V7.7076C14.9815 7.42172 15.2141 7.18916 15.4999 7.18916C15.7858 7.18916 16.0184 7.42172 16.0184 7.7076V8.57162H14.9816V9.78129C14.9816 10.0672 15.2141 10.2997 15.5 10.2997C15.7863 10.2997 16.0184 10.5318 16.0184 10.8182C16.0184 11.1045 15.7863 11.3366 15.5 11.3366C14.6424 11.3366 13.9447 10.6389 13.9447 9.78135V8.57168H11.8711V7.70766C11.8711 6.85008 11.1734 6.1524 10.3158 6.1524C9.45822 6.1524 8.76055 6.85008 8.76055 7.70766V8.57168H9.79736V7.70766C9.79736 7.42178 10.0299 7.18922 10.3158 7.18922C10.6017 7.18922 10.8342 7.42178 10.8342 7.70766V8.57168H9.79742V9.78135C9.79742 10.0672 10.03 10.2998 10.3159 10.2998C10.6021 10.2998 10.8343 10.5319 10.8343 10.8182C10.8343 11.1046 10.6022 11.3367 10.3159 11.3367C9.45828 11.3367 8.7606 10.639 8.7606 9.78141V8.57174H8.2076C7.35002 8.57174 6.65234 9.26941 6.65234 10.127V22.2925C6.65229 23.15 7.34996 23.8477 8.20754 23.8477H22.7923C23.6499 23.8477 24.3476 23.15 24.3476 22.2924V10.1269C24.3476 9.2693 23.6499 8.57162 22.7923 8.57162ZM21.5482 15.3802C21.5482 16.8094 20.3854 17.9722 18.9561 17.9722H12.0438C11.8664 17.9722 11.693 17.9542 11.5254 17.9201V21.6012C11.5254 21.8875 11.2933 22.1196 11.007 22.1196C10.7206 22.1196 10.4885 21.8875 10.4885 21.6012V17.4524C9.85936 16.9791 9.45172 16.2264 9.45172 15.3802V13.3065C9.45172 13.0202 9.68381 12.7881 9.97016 12.7881H13.4262C14.2732 12.7881 15.0266 13.1964 15.4999 13.8265C15.9733 13.1964 16.7266 12.7881 17.5736 12.7881H21.0297C21.316 12.7881 21.5482 13.0202 21.5482 13.3065V15.3802ZM16.0184 15.3802C16.0184 15.6664 15.7863 15.8986 15.4999 15.8986C15.2137 15.8986 14.9815 15.6665 14.9815 15.3802C14.9815 14.5226 14.2838 13.8249 13.4262 13.8249H10.4885V15.3802C10.4885 16.2377 11.1862 16.9354 12.0438 16.9354H18.956C19.8136 16.9354 20.5113 16.2377 20.5113 15.3802V13.8249H17.5736C16.7161 13.8249 16.0184 14.5226 16.0184 15.3802ZM13.4262 15.8986H12.0438C11.7575 15.8986 11.5254 15.6665 11.5254 15.3802C11.5254 15.0938 11.7574 14.8617 12.0438 14.8617H13.4262C13.7125 14.8617 13.9447 15.0938 13.9447 15.3802C13.9447 15.6665 13.7126 15.8986 13.4262 15.8986ZM19.4745 15.3802C19.4745 15.6664 19.2424 15.8986 18.956 15.8986H17.5736C17.2873 15.8986 17.0551 15.6665 17.0551 15.3802C17.0551 15.0938 17.2872 14.8617 17.5736 14.8617H18.956C19.2424 14.8617 19.4745 15.0939 19.4745 15.3802Z" fill="url(#paint1_linear_2577_7352)"/>
<defs>
<linearGradient id="paint0_linear_2577_7352" x1="15.5" y1="30" x2="15.5" y2="0" gradientUnits="userSpaceOnUse">
<stop stop-color="#FFC3AD"/>
<stop offset="0.5028" stop-color="#FFF0EA"/>
<stop offset="1" stop-color="#FFF0EA"/>
</linearGradient>
<linearGradient id="paint1_linear_2577_7352" x1="15.4999" y1="23.8477" x2="15.4999" y2="6.15234" gradientUnits="userSpaceOnUse">
<stop stop-color="#FF4400"/>
<stop offset="1" stop-color="#FF8255"/>
</linearGradient>
</defs>
</svg>
