<svg width="31" height="30" viewBox="0 0 31 30" fill="none" xmlns="http://www.w3.org/2000/svg">
<g clip-path="url(#clip0_2577_7436)">
<path d="M15.5 30C23.7843 30 30.5 23.2843 30.5 15C30.5 6.71573 23.7843 0 15.5 0C7.21573 0 0.5 6.71573 0.5 15C0.5 23.2843 7.21573 30 15.5 30Z" fill="url(#paint0_linear_2577_7436)"/>
<path d="M8.9852 16.1578C8.9852 14.8694 10.0297 13.825 11.318 13.825C12.6064 13.825 13.6509 14.8695 13.6509 16.1578C13.6509 17.4462 12.6064 18.4907 11.318 18.4907C10.0297 18.4907 8.9852 17.4462 8.9852 16.1578ZM13.6434 18.5944C13.0382 19.1722 12.2189 19.5275 11.3181 19.5275C10.4173 19.5275 9.59797 19.1722 8.99281 18.5944C7.59512 19.4013 6.65234 20.9115 6.65234 22.638V23.3292C6.65234 23.6155 6.88443 23.8477 7.17078 23.8477H15.4654C15.7517 23.8477 15.9839 23.6156 15.9839 23.3292V22.638C15.9839 20.9115 15.0411 19.4013 13.6434 18.5944ZM20.2003 10.1269C20.2003 9.841 19.9678 9.60844 19.6819 9.60844H19.1635V10.6453H19.6819C19.9678 10.6453 20.2003 10.4128 20.2003 10.1269ZM24.3477 11.1637C24.3477 13.87 22.1911 16.0821 19.5064 16.1722L17.2184 17.8066C16.8753 18.0517 16.3987 17.8064 16.3987 17.3847V15.2195C15.0949 14.2762 14.325 12.7806 14.325 11.1637C14.325 8.40041 16.573 6.15234 19.3363 6.15234C22.0996 6.15234 24.3477 8.40041 24.3477 11.1637ZM21.5827 12.2006C21.5827 11.7036 21.3481 11.2606 20.9841 10.9757C21.1438 10.7314 21.2371 10.4399 21.2371 10.1269C21.2371 9.32771 20.6312 8.66771 19.8546 8.58146V8.39883C19.8546 8.11254 19.6225 7.88039 19.3362 7.88039C19.0498 7.88039 18.8178 8.11248 18.8178 8.39883V8.57162H17.9537C17.6674 8.57162 17.4353 8.80371 17.4353 9.09006C17.4353 9.37641 17.6674 9.6085 17.9537 9.6085H18.1265V12.719H17.9537C17.6674 12.719 17.4353 12.9511 17.4353 13.2374C17.4353 13.5238 17.6674 13.7559 17.9537 13.7559H18.8178V13.9287C18.8178 14.215 19.0498 14.4471 19.3362 14.4471C19.6225 14.4471 19.8546 14.215 19.8546 13.9287V13.7559H20.0274C20.8851 13.7558 21.5827 13.0581 21.5827 12.2006ZM20.0275 11.6821H19.1635V12.7189H20.0275C20.3134 12.7189 20.546 12.4864 20.546 12.2005C20.546 11.9146 20.3134 11.6821 20.0275 11.6821Z" fill="url(#paint1_linear_2577_7436)"/>
</g>
<defs>
<linearGradient id="paint0_linear_2577_7436" x1="16" y1="0" x2="16" y2="28.5" gradientUnits="userSpaceOnUse">
<stop stop-color="#EAFFFC"/>
<stop offset="1" stop-color="#BCFFF6"/>
</linearGradient>
<linearGradient id="paint1_linear_2577_7436" x1="9.05816" y1="3.50271" x2="25.4397" y2="15.8961" gradientUnits="userSpaceOnUse">
<stop stop-color="#3FFFE5"/>
<stop offset="1" stop-color="#08C5AC"/>
</linearGradient>
<clipPath id="clip0_2577_7436">
<rect width="30" height="30" fill="white" transform="translate(0.5)"/>
</clipPath>
</defs>
</svg>
