<svg width="40" height="40" viewBox="0 0 40 40" fill="none" xmlns="http://www.w3.org/2000/svg">
<g clip-path="url(#clip0_2577_5428)">
<path d="M0.000244141 34.8892C0.000244141 33.857 0.782374 32.9928 1.80936 32.8901L33.0893 29.7621C34.9481 29.5762 36.3638 28.012 36.3638 26.1438V3.63694C36.3638 1.62864 34.7357 0.000549316 32.7274 0.000549316C32.6065 0.000549316 32.4858 0.00660044 32.3655 0.0186175L1.80936 3.07427C0.782289 3.17696 0.000244141 4.04117 0.000244141 5.07335V34.8892Z" fill="#BC1D37"/>
<path d="M32.7332 0C32.6117 0 32.4891 0.00613635 32.3655 0.0184091L32.1499 0.0399715L32.1493 0.0400568L32.119 0.0431249L32.1179 0.0432102L32.0894 0.0460227L32.0838 0.0466192L31.9329 0.0617044L31.9309 0.0618749C31.9034 0.0646022 31.8751 0.0674147 31.8452 0.0704828L31.8435 0.0706533L31.7744 0.0775567L31.7706 0.0778976L31.7696 0.0779828L31.7596 0.0790056L31.757 0.0792612L31.7414 0.0807953L31.7333 0.0816476L31.7293 0.0820737L31.7253 0.0824999L31.7213 0.082926L31.7187 0.0831817L31.7156 0.0835226L31.7125 0.0838635L31.6883 0.0862499L31.6764 0.087443L31.6721 0.0878692H31.6719L31.6601 0.0890624L31.6561 0.0894885L31.6473 0.0903408L31.6428 0.0907669L31.632 0.0918749L31.5933 0.0957101L31.5877 0.0963067L31.5873 0.0963919L31.5743 0.0976703L31.5727 0.0978408L31.5531 0.099801L31.5524 0.0998862L31.5176 0.103381L31.5095 0.104233L31.4967 0.105511L31.4946 0.105682L7.40023 2.51488C6.9008 2.56679 6.53807 3.01372 6.58989 3.51306C6.63796 3.97585 7.0277 4.32766 7.49304 4.32826C7.5233 4.32826 7.55389 4.32673 7.58457 4.32366L32.5463 1.82753C32.6091 1.82122 32.6714 1.81807 32.7331 1.81815C33.7353 1.82096 34.546 2.63454 34.5454 3.63664V6.09749C34.5454 6.59956 34.9525 7.00661 35.4545 7.00661C35.9566 7.00661 36.3637 6.59956 36.3637 6.09749V3.63673C36.3636 1.63065 34.7391 0.00349431 32.7332 0Z" fill="#FF4957"/>
<path d="M32.57 3.44184L7.14618 5.82325C6.18592 5.91939 5.45468 6.72743 5.45459 7.69246V25.5058C5.45459 26.5099 6.26859 27.3239 7.27274 27.3239C7.33121 27.3239 7.38959 27.3211 7.4478 27.3155L32.8968 24.9644C33.8317 24.8781 34.5472 24.0939 34.5477 23.155L34.5577 5.24567C34.5541 4.24144 33.7371 3.43033 32.7329 3.43391C32.6785 3.43417 32.6242 3.43681 32.57 3.44184Z" fill="#19E77C"/>
<path d="M32.742 3.43378C32.6851 3.43378 32.6277 3.4365 32.5698 3.44187L7.3979 5.7996C6.89796 5.84639 6.53071 6.28965 6.5775 6.78951C6.62123 7.2563 7.01276 7.61332 7.48159 7.61383C7.50997 7.61383 7.53861 7.61246 7.56742 7.60982L32.7392 5.2521L32.742 5.25193C33.2488 5.21784 33.6441 4.79963 33.6497 4.29167C33.6552 3.87423 33.356 3.51491 32.9444 3.44503C32.8772 3.43753 32.8097 3.43378 32.742 3.43378Z" fill="#6DF0AC"/>
<path d="M32.3654 6.94755L1.8092 10.0031C0.78213 10.1059 0 10.9701 0 12.0023V33.2166L33.0891 29.7618C34.948 29.576 36.3636 28.0117 36.3636 26.1436V10.5659C36.3636 8.55758 34.7356 6.92957 32.7273 6.92957C32.6065 6.92948 32.4857 6.93553 32.3654 6.94755Z" fill="#D7E816"/>
<path d="M20.0001 34.5454L28.0278 17.1598C28.6666 15.7764 28.3751 14.1416 27.2977 13.0641L16.4143 2.18064C14.9943 0.760587 12.6919 0.760587 11.2717 2.18064C10.9686 2.48379 10.7213 2.83825 10.5416 3.22749L3.63647 18.1817L20.0001 34.5454Z" fill="#EBD5FF"/>
<path d="M17.4288 4.38946C16.4246 3.3854 14.7967 3.3854 13.7926 4.38946L6.75604 11.4259L3.63647 18.1819L5.07076 19.6161C5.59866 19.5386 6.11335 19.3411 6.51962 18.9349L17.4288 8.02585C18.4328 7.0217 18.4328 5.39369 17.4288 4.38946Z" fill="#E1C0F6"/>
<path d="M3.63647 18.1818L20.7532 1.0651C22.1733 -0.354953 24.4757 -0.354953 25.8958 1.0651L37.1169 12.2861C38.5369 13.7062 38.5369 16.0086 37.1169 17.4287L20.0001 34.5454L3.63647 18.1818Z" fill="#F6EDFF"/>
<path d="M31.9744 11.9741L26.2078 6.20758C24.7878 7.62764 22.4855 7.62772 21.0655 6.20775L21.0653 6.20758L6.36377 20.909L8.60422 23.1495C10.3786 21.3737 13.2566 21.3725 15.0324 23.1468C16.8082 24.9212 16.8094 27.7992 15.035 29.575C15.0342 29.5758 15.0332 29.5768 15.0324 29.5776L17.2728 31.8181L31.9743 17.1167C30.5542 15.6966 30.5541 13.3943 31.9742 11.9741L31.9744 11.9741Z" fill="#00BC6E"/>
<path d="M39.9999 36.3632C39.9999 38.3715 38.3718 39.9996 36.3635 39.9996C36.2541 39.9996 36.1448 39.9947 36.0358 39.9848L1.80912 36.8881C0.782044 36.7854 0 35.9212 0 34.889V5.07312C0 6.10531 0.78213 6.96951 1.80912 7.07221L36.6912 10.2283C38.5649 10.3978 39.9999 11.9685 39.9999 13.8498V36.3632Z" fill="#FF4957"/>
<path d="M33.6362 30.9091C36.1465 30.9091 38.1814 28.8741 38.1814 26.3639C38.1814 23.8537 36.1465 21.8187 33.6362 21.8187C31.126 21.8187 29.0911 23.8537 29.0911 26.3639C29.0911 28.8741 31.126 30.9091 33.6362 30.9091Z" fill="#E62939"/>
<path d="M2.72637 7.27271C2.2243 7.2733 1.81776 7.68077 1.81836 8.18293C1.81887 8.65287 2.17751 9.04492 2.64557 9.08728L36.5275 12.0391C37.4664 12.1197 38.1861 12.9076 38.1819 13.8499V35.4545C38.1819 35.9566 38.5889 36.3636 39.091 36.3636C39.5931 36.3636 40.0001 35.9566 40.0001 35.4545V13.8499C40.0001 11.9686 38.5651 10.3978 36.6914 10.2283L2.8093 7.27645C2.78143 7.27398 2.75381 7.27271 2.72637 7.27271Z" fill="#FF7983"/>
<path d="M31.8184 29.0903C34.3286 29.0903 36.3635 27.0554 36.3635 24.5452C36.3635 22.0349 34.3286 20 31.8184 20C29.3081 20 27.2732 22.0349 27.2732 24.5452C27.2732 27.0554 29.3081 29.0903 31.8184 29.0903Z" fill="#F6EDFF"/>
<path d="M30.909 25.4548C31.9131 25.4548 32.7271 24.6408 32.7271 23.6366C32.7271 22.6325 31.9131 21.8185 30.909 21.8185C29.9048 21.8185 29.0908 22.6325 29.0908 23.6366C29.0908 24.6408 29.9048 25.4548 30.909 25.4548Z" fill="#FBF7FF"/>
<path d="M35.0323 27.7595C36.8074 25.9844 36.8074 23.1064 35.0323 21.3312L35.0269 21.3259L35.0251 21.3241L35.0215 21.3204L35.0192 21.3183L35.016 21.3151L35.0138 21.3128L35.0105 21.3097L35.0082 21.3074L35.0051 21.3043L35.0028 21.302C35.0017 21.301 35.0007 21.3 34.9996 21.2989L34.9973 21.2966C34.9962 21.2956 34.9953 21.2947 34.9942 21.2937L34.9918 21.2913C34.9908 21.2903 34.9898 21.2893 34.9887 21.2883L34.9862 21.2858L34.9832 21.2829L34.9807 21.2805C34.9797 21.2796 34.9787 21.2785 34.9777 21.2776L34.9752 21.2752L34.972 21.2722L34.9697 21.27L34.9664 21.2667L34.9642 21.2647C34.9628 21.2633 34.9615 21.2621 34.9602 21.2608L34.9588 21.2594L34.9534 21.2542L34.9516 21.2525C34.9504 21.2513 34.9491 21.2501 34.9478 21.2489L34.9456 21.2468L34.9424 21.2438L34.9398 21.2412C34.9388 21.2403 34.9378 21.2394 34.9368 21.2384L34.9344 21.2361C34.9333 21.2352 34.9323 21.2343 34.9313 21.2332L34.9288 21.2309L34.9257 21.228L34.9232 21.2257L34.9202 21.2229L34.9176 21.2204L34.9146 21.2176L34.9121 21.2153L34.909 21.2125L34.9066 21.2101L34.9035 21.2072L34.901 21.2049L34.8981 21.2023L34.8953 21.1997L34.8926 21.1973L34.8898 21.1946L34.8868 21.1918L34.8842 21.1895L34.8788 21.1845L34.8769 21.1828L34.8732 21.1794L34.8708 21.1772C34.8698 21.1762 34.8687 21.1752 34.8676 21.1743L34.8652 21.1721L34.862 21.1692L34.8594 21.167L34.8565 21.1643C34.8555 21.1635 34.8545 21.1626 34.8536 21.1618L34.8509 21.1593L34.848 21.1567L34.8453 21.1542L34.8425 21.1518L34.8397 21.1492L34.8368 21.1466L34.834 21.1443L34.8311 21.1416L34.8284 21.1393L34.8254 21.1367L34.8227 21.1342C34.8218 21.1334 34.8208 21.1325 34.8199 21.1317L34.8168 21.1291L34.8142 21.1268L34.8111 21.1241L34.8086 21.1218L34.8055 21.1191C34.8039 21.1178 34.8022 21.1161 34.8005 21.1148L34.7974 21.112L34.7949 21.1099L34.7917 21.1071L34.7891 21.1049L34.786 21.1022L34.7833 21.0999L34.7804 21.0973L34.7777 21.0949L34.7746 21.0923L34.7719 21.09L34.769 21.0875C34.768 21.0866 34.7671 21.0859 34.7661 21.085L34.7633 21.0827L34.7603 21.0802L34.7577 21.0779L34.7546 21.0753L34.7518 21.073L34.7489 21.0705L34.7461 21.0681L34.7432 21.0657L34.7402 21.0631L34.7375 21.0608L34.7342 21.0582L34.7317 21.056L34.7276 21.0526L34.726 21.0513L34.7203 21.0466L34.718 21.0446L34.7146 21.0418L34.7121 21.0397C34.711 21.0388 34.7099 21.0379 34.7088 21.037C34.708 21.0364 34.7069 21.0355 34.7061 21.0348C34.7051 21.0341 34.7041 21.0331 34.7031 21.0323L34.7003 21.0301L34.6973 21.0276L34.6944 21.0253L34.6915 21.0229L34.6886 21.0206L34.6856 21.0181L34.6828 21.0159L34.6797 21.0133L34.6771 21.0112L34.6739 21.0087L34.6712 21.0064L34.6682 21.004L34.6654 21.0017L34.6626 20.9995L34.6595 20.997L34.6567 20.9948L34.6537 20.9925C34.6526 20.9915 34.6514 20.9906 34.6503 20.9897L34.6478 20.9879C34.6459 20.9863 34.6441 20.9848 34.6421 20.9833L34.6396 20.9813L34.6363 20.9787L34.6334 20.9764C34.6324 20.9757 34.6315 20.9749 34.6304 20.9741L34.6276 20.9718L34.6246 20.9695L34.6217 20.9672L34.6188 20.9649L34.6159 20.9626L34.613 20.9603L34.61 20.958L34.607 20.9557L34.6042 20.9535L34.601 20.951L34.5984 20.9489C34.5973 20.9481 34.5962 20.9472 34.5951 20.9464L34.5924 20.9443C34.5914 20.9435 34.5904 20.9427 34.5894 20.9419L34.5865 20.9396L34.5836 20.9374L34.5806 20.9351L34.5776 20.9328L34.5747 20.9306L34.5715 20.9282L34.5687 20.9261L34.5663 20.9243L34.5596 20.9193L34.5571 20.9173L34.5542 20.9152L34.5511 20.9128L34.5482 20.9106L34.5452 20.9083L34.5421 20.906L34.5392 20.9039L34.5362 20.9016L34.5332 20.8995L34.5303 20.8973L34.5273 20.8951L34.5242 20.8928L34.5214 20.8906L34.5184 20.8883L34.5155 20.8862L34.5124 20.8839L34.5094 20.8817L34.5066 20.8796L34.5033 20.8772L34.5006 20.8752C34.4994 20.8744 34.4984 20.8737 34.4974 20.8729L34.4946 20.8708L34.4917 20.8687L34.4885 20.8665L34.4857 20.8645C34.4816 20.8615 34.4773 20.8583 34.4732 20.8553L34.4709 20.8537L34.4672 20.8511L34.465 20.8495L34.4614 20.8469L34.4589 20.8451L34.4555 20.8427L34.4529 20.8408L34.4496 20.8385L34.4469 20.8365L34.4435 20.8341L34.441 20.8323L34.4375 20.8299L34.4349 20.828L34.4315 20.8256L34.429 20.8238L34.4255 20.8214L34.4228 20.8195L34.4195 20.8172L34.4169 20.8154L34.4135 20.8131L34.4109 20.8112L34.4075 20.8089L34.4054 20.8074C34.4008 20.8043 34.3961 20.801 34.3916 20.7979L34.3897 20.7965C34.3883 20.7956 34.3873 20.7948 34.3859 20.794L34.3836 20.7924L34.38 20.79L34.3776 20.7883L34.3742 20.786L34.3715 20.7842L34.3682 20.7819L34.3655 20.7801L34.362 20.7777L34.3594 20.776L34.356 20.7737L34.3534 20.7719L34.3499 20.7696L34.3471 20.7678L34.3438 20.7656L34.3411 20.7637L34.3376 20.7614L34.335 20.7597C34.3338 20.7589 34.3328 20.7582 34.3315 20.7574L34.3289 20.7556L34.3255 20.7533L34.3229 20.7516L34.3194 20.7493L34.3182 20.7485C34.3151 20.7464 34.3124 20.7446 34.3093 20.7426L34.3075 20.7414L34.3035 20.7387L34.3015 20.7374L34.2977 20.7349L34.2952 20.7333L34.2916 20.7309L34.2892 20.7294L34.2854 20.7269L34.2831 20.7254L34.2793 20.723L34.2769 20.7214C34.2757 20.7206 34.2744 20.7198 34.2733 20.7191L34.2708 20.7174C34.2696 20.7166 34.2683 20.7158 34.267 20.7151L34.2648 20.7136L34.2609 20.711L34.2588 20.7097L34.2548 20.7072L34.2527 20.7058C34.2513 20.705 34.25 20.7041 34.2486 20.7033L34.2466 20.702L34.2424 20.6994L34.2412 20.6986C34.2341 20.6941 34.2268 20.6896 34.2197 20.6851L34.2183 20.6842L34.2138 20.6815L34.2121 20.6805C34.2107 20.6796 34.2092 20.6787 34.2077 20.6778L34.2058 20.6766L34.2018 20.6741L34.1996 20.6728L34.1956 20.6703L34.1936 20.669C34.1922 20.6682 34.1908 20.6674 34.1895 20.6666L34.1873 20.6653C34.186 20.6644 34.1846 20.6636 34.1832 20.6627L34.1812 20.6615L34.177 20.659L34.175 20.6577L34.1708 20.6551L34.169 20.654L34.1646 20.6514L34.163 20.6505L34.1582 20.6476L34.158 20.6475C34.1483 20.6417 34.1389 20.6361 34.1293 20.6303L34.1277 20.6294C34.1263 20.6285 34.1247 20.6276 34.1232 20.6268L34.1215 20.6257L34.1171 20.6232L34.1152 20.6222C34.1139 20.6213 34.1123 20.6204 34.1109 20.6196L34.1091 20.6186L34.1047 20.616L34.1029 20.6149C34.1013 20.6141 34.1 20.6133 34.0984 20.6124L34.0967 20.6113C34.0952 20.6106 34.0935 20.6095 34.0921 20.6087L34.0905 20.6078L34.0859 20.6051L34.0844 20.6043C34.0829 20.6034 34.0812 20.6025 34.0797 20.6016L34.0782 20.6008L34.0735 20.598L34.0727 20.5976C34.061 20.591 34.0491 20.5842 34.0373 20.5777L34.0366 20.5772L34.0315 20.5743L34.0303 20.5737C34.0286 20.5727 34.027 20.5718 34.0253 20.5709L34.024 20.5702C34.0224 20.5692 34.0209 20.5684 34.0192 20.5675L34.0178 20.5668L34.0129 20.564L34.0117 20.5633L34.0067 20.5605L34.0055 20.5599L34.0004 20.557L33.9995 20.5565L33.9941 20.5536L33.9934 20.5532C33.9915 20.5522 33.9897 20.5512 33.9877 20.5502L33.9877 20.5501C33.9734 20.5424 33.9593 20.5348 33.945 20.5273L33.9444 20.527C33.9427 20.5259 33.9409 20.525 33.9391 20.5241L33.9381 20.5236L33.9331 20.521L33.9317 20.5202L33.9266 20.5176L33.9256 20.517L33.9202 20.5143L33.9194 20.5137L33.9139 20.5109L33.9133 20.5106L33.9076 20.5077L33.9071 20.5074C33.8824 20.4947 33.8577 20.4821 33.8328 20.4699L33.8326 20.4698C33.6924 20.4005 33.5486 20.3384 33.402 20.2841C32.9307 20.1109 32.4083 20.3526 32.2351 20.8239C32.0625 21.2937 32.3022 21.8148 32.7714 21.9895C33.1381 22.1257 33.4709 22.34 33.7468 22.6175C34.8102 23.6833 34.8102 25.4087 33.7468 26.4744C32.6791 27.5395 30.9501 27.5373 29.885 26.4696C29.6851 26.2693 29.5177 26.0391 29.3885 25.7873C29.1601 25.3402 28.6125 25.163 28.1654 25.3914C27.719 25.6194 27.5414 26.1658 27.7685 26.6127C27.7807 26.6366 27.7932 26.6605 27.8059 26.6844L27.806 26.6846L27.8092 26.6905L27.8093 26.6906C27.8114 26.6946 27.8136 26.6987 27.8158 26.7026L27.8162 26.7035L27.8187 26.7081L27.8197 26.7098L27.822 26.7141L27.8228 26.7156C27.8239 26.7174 27.8249 26.7193 27.8258 26.7211L27.8266 26.7225L27.8289 26.7266L27.83 26.7287L27.8319 26.7321L27.8332 26.7346L27.8349 26.7376L27.8373 26.742L27.8389 26.745L27.8406 26.748L27.842 26.7503C27.8426 26.7514 27.8432 26.7525 27.8439 26.7537L27.8448 26.7553L27.8516 26.7675L27.8524 26.7689L27.8546 26.7728L27.8552 26.7739C27.8586 26.7801 27.8622 26.7861 27.8657 26.7923V26.7923C27.9934 27.0166 28.14 27.2295 28.3039 27.4287L28.304 27.429C28.3088 27.4347 28.3135 27.4404 28.3183 27.4462L28.3217 27.4504L28.322 27.4508C28.3266 27.4563 28.3312 27.4618 28.3358 27.4673L28.3366 27.4681L28.3397 27.4719L28.3402 27.4725C28.3435 27.4764 28.3467 27.4802 28.35 27.484L28.3511 27.4852C28.352 27.4863 28.3529 27.4875 28.354 27.4887L28.3551 27.4899C28.356 27.491 28.357 27.4922 28.3579 27.4933L28.3587 27.4941C28.3607 27.4966 28.3628 27.499 28.3649 27.5014L28.3654 27.502L28.3684 27.5054L28.3696 27.5069C28.3705 27.5079 28.3714 27.509 28.3724 27.51L28.3737 27.5116L28.3828 27.5221L28.3841 27.5238L28.3868 27.5267L28.3883 27.5285C28.3893 27.5296 28.3901 27.5306 28.391 27.5316L28.3919 27.5326C28.3937 27.5348 28.3956 27.5368 28.3974 27.5389L28.3988 27.5406L28.4014 27.5435L28.4031 27.5453L28.4057 27.5484L28.4071 27.5499C28.4088 27.5517 28.4103 27.5536 28.4119 27.5553L28.4136 27.5572L28.4158 27.5596L28.4181 27.5621L28.4202 27.5646L28.4222 27.5669L28.4246 27.5694L28.4266 27.5717C28.4279 27.5732 28.4293 27.5747 28.4307 27.5763C28.4314 27.577 28.4321 27.578 28.4327 27.5787L28.4351 27.5812L28.4371 27.5834L28.4395 27.5861L28.4414 27.5883C28.4426 27.5896 28.4438 27.5909 28.445 27.5923L28.4477 27.5953L28.4498 27.5976L28.452 27.6L28.4542 27.6025L28.4564 27.605L28.4586 27.6073L28.4615 27.6105L28.464 27.6132L28.4672 27.6165L28.4689 27.6185L28.4718 27.6215L28.4735 27.6234L28.4766 27.6268L28.4779 27.6282L28.4822 27.6329L28.4838 27.6346L28.4868 27.6377L28.4885 27.6397L28.4914 27.6427L28.4931 27.6445L28.4967 27.6485L28.4985 27.6504L28.5018 27.654L28.5038 27.656L28.5064 27.6588L28.5083 27.6609C28.5093 27.6619 28.5104 27.6631 28.5114 27.6641L28.5129 27.6658L28.5173 27.6704L28.5186 27.6719C28.5197 27.673 28.5208 27.6741 28.5218 27.6752L28.5236 27.6771L28.5266 27.6802L28.5282 27.6819C28.5295 27.6834 28.5312 27.6851 28.5325 27.6865L28.533 27.6871C28.5344 27.6884 28.5359 27.69 28.5373 27.6915L28.5387 27.6929L28.542 27.6964L28.5436 27.698L28.5471 27.7016L28.5482 27.7027C28.5496 27.7043 28.5512 27.7059 28.5527 27.7074L28.5541 27.7089L28.5575 27.7124L28.559 27.714L28.5622 27.7172L28.5638 27.7188L28.5683 27.7235L28.5686 27.7238L28.5731 27.7284L28.5745 27.7298C28.5756 27.731 28.5768 27.7321 28.5778 27.7332L28.5793 27.7348L28.5827 27.7382L28.5841 27.7396C28.5855 27.7411 28.5872 27.7428 28.5887 27.7442L28.5896 27.7452C28.5909 27.7465 28.5921 27.7477 28.5933 27.7489L28.5949 27.7506L28.5982 27.7539L28.5998 27.7554L28.6045 27.7601C30.3792 29.5346 33.2572 29.5346 35.0323 27.7595Z" fill="#E6CCFF"/>
<path d="M11.8183 39.9994C17.341 39.9994 21.818 35.5224 21.818 29.9997C21.818 24.477 17.341 20 11.8183 20C6.29562 20 1.8186 24.477 1.8186 29.9997C1.8186 35.5224 6.29562 39.9994 11.8183 39.9994Z" fill="#19E77C"/>
<path d="M23.0935 24.6296C22.0885 24.6303 21.2744 25.4455 21.2751 26.4504C21.2752 26.6349 21.3034 26.8182 21.3587 26.9942C21.5855 27.7156 21.7296 28.4606 21.7879 29.2146L21.7879 29.2149C21.7885 29.2227 21.7891 29.2305 21.7897 29.2383L21.7898 29.2387C21.7904 29.2465 21.791 29.2541 21.7915 29.2619L21.7916 29.263C21.792 29.2679 21.7923 29.2729 21.7926 29.2778L21.7927 29.2782C21.7929 29.2807 21.7931 29.2833 21.7933 29.2858L21.7934 29.2868L21.7944 29.301L21.7945 29.3023L21.795 29.3097L21.7951 29.3107C21.7954 29.3153 21.7957 29.3199 21.796 29.3245L21.7961 29.3266L21.7966 29.3336L21.7966 29.3349L21.7975 29.3478L21.7977 29.3508L21.7981 29.3572L21.7983 29.3602C21.7985 29.364 21.7988 29.3678 21.7989 29.3717L21.7992 29.3748C21.7993 29.377 21.7994 29.3792 21.7996 29.3813L21.7998 29.3842L21.8005 29.3955L21.8007 29.399C21.8008 29.4011 21.801 29.4032 21.8012 29.4053L21.8013 29.4084C21.8016 29.412 21.8017 29.4155 21.8019 29.4191L21.8022 29.4236L21.8024 29.4292L21.8029 29.4376L21.8032 29.443L21.8035 29.4479L21.8037 29.4532C21.8039 29.4559 21.8041 29.4591 21.8041 29.4618C21.8042 29.4635 21.8044 29.4653 21.8044 29.467L21.8046 29.4724L21.8049 29.4773C21.8051 29.4803 21.8052 29.4832 21.8053 29.4861L21.8056 29.4908L21.8059 29.4968C21.806 29.4983 21.806 29.4998 21.8062 29.5012C21.8063 29.5042 21.8064 29.5072 21.8066 29.5102L21.8069 29.5149L21.8071 29.5211L21.8073 29.5253C21.8075 29.5283 21.8076 29.5315 21.8077 29.5345L21.808 29.539L21.8082 29.5456L21.8084 29.5495C21.8086 29.5524 21.8087 29.5558 21.8088 29.5588L21.809 29.5632C21.8091 29.5652 21.8092 29.5677 21.8092 29.5697L21.8095 29.5748L21.8098 29.583L21.81 29.5875L21.8103 29.5942L21.8105 29.5991C21.8106 29.6014 21.8108 29.6048 21.8108 29.6072L21.811 29.6116C21.811 29.6139 21.8112 29.6168 21.8112 29.6191L21.8114 29.6234L21.8117 29.6314L21.8119 29.6358C21.812 29.6384 21.8121 29.6413 21.8121 29.644L21.8122 29.6474C21.8123 29.65 21.8125 29.6531 21.8125 29.6558L21.8127 29.6598L21.8129 29.6695L21.813 29.6715L21.8133 29.6803L21.8134 29.684C21.8135 29.6874 21.8136 29.6906 21.8137 29.6939L21.8138 29.6965C21.8139 29.6991 21.8139 29.7019 21.814 29.7046L21.8141 29.7082C21.8142 29.7116 21.8143 29.715 21.8144 29.7183L21.8144 29.7205L21.8147 29.7291L21.8148 29.7324C21.8149 29.7361 21.815 29.739 21.815 29.7428L21.8151 29.7448C21.8152 29.7474 21.8153 29.7509 21.8154 29.7535L21.8155 29.7567C21.8156 29.7601 21.8156 29.7636 21.8157 29.767L21.8158 29.7693L21.816 29.7778L21.8161 29.7811L21.8162 29.7912L21.8163 29.7941L21.8165 29.8022L21.8166 29.8054C21.8167 29.8087 21.8167 29.8123 21.8168 29.8156L21.8169 29.8184C21.817 29.821 21.817 29.8244 21.817 29.827L21.8171 29.8296L21.8173 29.8401L21.8173 29.8426C21.8174 29.8456 21.8174 29.8484 21.8174 29.8515L21.8175 29.8541L21.8177 29.8645V29.8671C21.8178 29.8701 21.8178 29.8732 21.8178 29.8762L21.8179 29.8785C21.8179 29.8822 21.8179 29.8853 21.8179 29.889L21.818 29.8917C21.818 29.8948 21.8181 29.8977 21.8181 29.9008L21.8182 29.9029C21.8182 29.9066 21.8183 29.9098 21.8183 29.9135L21.8184 29.9161C21.8184 29.9192 21.8185 29.9227 21.8185 29.9257V29.9272C21.8185 29.9306 21.8185 29.9346 21.8185 29.938V29.9405C21.8185 29.9436 21.8186 29.9472 21.8186 29.9503V29.9516C21.8186 29.9551 21.8186 29.959 21.8187 29.9623V29.976C21.8188 29.9797 21.8188 29.9831 21.8188 29.9868V30V30.0136C21.8188 30.0173 21.8188 30.0209 21.8187 30.0245V30.0383C21.8186 30.0417 21.8186 30.0456 21.8186 30.0489V30.0508C21.8185 30.0542 21.8185 30.0568 21.8185 30.0601V30.0628C21.8185 30.0664 21.8185 30.0698 21.8185 30.0734V30.0755C21.8185 30.0785 21.8184 30.0817 21.8184 30.0847L21.8183 30.0872C21.8183 30.0909 21.8182 30.0941 21.8182 30.0979L21.8181 30.1003C21.8181 30.1034 21.818 30.1064 21.818 30.1095V30.1117C21.8179 30.115 21.8179 30.119 21.8179 30.1224L21.8179 30.1247C21.8179 30.1277 21.8178 30.1311 21.8178 30.1341V30.1362L21.8176 30.1469L21.8175 30.1495C21.8174 30.1529 21.8174 30.1555 21.8174 30.1589L21.8173 30.1607L21.8172 30.1714L21.8171 30.1741L21.8169 30.1835V30.1853C21.8168 30.1886 21.8167 30.1923 21.8167 30.1957L21.8166 30.1989L21.8164 30.2084L21.8163 30.2097C21.8162 30.213 21.8162 30.2169 21.8161 30.2202L21.816 30.2234C21.8159 30.227 21.8158 30.2303 21.8157 30.2339L21.8156 30.2348C21.8156 30.2381 21.8155 30.2414 21.8154 30.2448L21.8153 30.2478C21.8152 30.2511 21.815 30.2552 21.815 30.2586V30.2594C21.815 30.2627 21.8148 30.266 21.8148 30.2695L21.8147 30.2723L21.8144 30.2828L21.8143 30.2846C21.8142 30.2876 21.8141 30.2908 21.814 30.2937L21.8139 30.2968L21.8137 30.3071L21.8136 30.3095C21.8135 30.3125 21.8134 30.3153 21.8133 30.3183L21.8133 30.321L21.8129 30.3315L21.8128 30.334C21.8127 30.3366 21.8127 30.34 21.8126 30.3427L21.8125 30.3455L21.8121 30.3558L21.8121 30.3586L21.8118 30.367L21.8117 30.3699C21.8116 30.3735 21.8115 30.3764 21.8113 30.3801L21.8112 30.3829L21.8109 30.3918L21.8108 30.3941C21.8106 30.3974 21.8105 30.4011 21.8104 30.4044L21.8103 30.4074L21.8099 30.4164L21.8098 30.4184C21.8098 30.4217 21.8096 30.4253 21.8094 30.4287L21.8093 30.4318C21.8092 30.4351 21.8091 30.4383 21.8089 30.4416L21.8088 30.4428C21.8087 30.4465 21.8086 30.4496 21.8084 30.4534L21.8083 30.4561L21.8078 30.4668L21.8077 30.4677C21.8076 30.471 21.8075 30.4743 21.8073 30.4777L21.8072 30.4804L21.8067 30.491L21.8066 30.4928L21.8062 30.5022L21.8061 30.5047C21.8058 30.5084 21.8057 30.5118 21.8055 30.5154L21.8054 30.517C21.8052 30.5204 21.8052 30.5233 21.8049 30.5266L21.8048 30.529C21.8046 30.5326 21.8045 30.5358 21.8042 30.5395L21.8041 30.542L21.8036 30.5507L21.8035 30.5534C21.8033 30.5568 21.8031 30.5603 21.8029 30.5637L21.8028 30.5666L21.8023 30.5749L21.8021 30.5777C21.8019 30.581 21.8017 30.5843 21.8015 30.5876L21.8012 30.5914C21.8012 30.5937 21.801 30.5966 21.8008 30.5989L21.8006 30.6021C21.8005 30.6051 21.8002 30.609 21.8 30.612L21.7998 30.6156L21.7994 30.6235L21.7991 30.6262C21.7989 30.6295 21.7987 30.6328 21.7985 30.6361C21.7984 30.6372 21.7984 30.6386 21.7983 30.6397L21.7977 30.648L21.7976 30.6508L21.797 30.6601L21.7967 30.664C21.7966 30.667 21.7963 30.6698 21.7961 30.6728L21.7959 30.6757L21.7953 30.6842L21.795 30.6883C21.7948 30.6912 21.7946 30.6942 21.7944 30.6972L21.7942 30.7005C21.7939 30.7032 21.7937 30.7059 21.7936 30.7085L21.7933 30.7124L21.7926 30.7219L21.7924 30.7254L21.7919 30.7326L21.7916 30.7365L21.7909 30.7461L21.7907 30.7495L21.7901 30.7569L21.7898 30.7606L21.7891 30.7703L21.7888 30.7736L21.7882 30.7808L21.7879 30.7848C21.7876 30.7882 21.7874 30.7908 21.7872 30.7941L21.7869 30.7981C21.7867 30.8004 21.7865 30.8027 21.7863 30.8051L21.786 30.8089L21.7853 30.8183L21.785 30.8223C21.7847 30.8246 21.7845 30.827 21.7844 30.8293L21.7841 30.8328C21.7839 30.8358 21.7836 30.8393 21.7833 30.8423L21.783 30.8463L21.7824 30.8534L21.7821 30.8577L21.7813 30.8663L21.781 30.8706L21.7804 30.8774L21.7799 30.8826L21.7792 30.8903L21.7788 30.8943L21.7781 30.9026L21.7778 30.9065C21.7775 30.9092 21.7773 30.9116 21.7771 30.9143L21.7767 30.9184L21.7759 30.9271L21.7755 30.931C21.7752 30.9336 21.7751 30.9358 21.7748 30.9384L21.7745 30.9422C21.7741 30.9455 21.7739 30.9485 21.7736 30.9518L21.7733 30.9549C21.773 30.9576 21.7729 30.9598 21.7726 30.9624L21.7723 30.9662C21.772 30.9692 21.7717 30.9727 21.7713 30.9757L21.771 30.9793L21.7703 30.9863L21.7699 30.9901L21.7689 30.9994L21.7685 31.0033C21.7683 31.0059 21.7681 31.0078 21.7678 31.0104L21.7675 31.014L21.7666 31.0236L21.7661 31.0272C21.7659 31.0295 21.7656 31.0322 21.7654 31.0345L21.765 31.0379C21.7648 31.0409 21.7643 31.0444 21.7641 31.0473L21.7637 31.0512L21.763 31.0583L21.7625 31.0619C21.7622 31.0649 21.7619 31.0681 21.7616 31.071L21.7611 31.0754C21.7608 31.0777 21.7606 31.0804 21.7603 31.0827L21.76 31.0857C21.7596 31.0889 21.7593 31.0918 21.759 31.0951L21.7585 31.0991L21.7577 31.1067L21.7572 31.1112L21.7563 31.1188L21.7558 31.1233L21.755 31.1309C21.7547 31.1325 21.7545 31.1343 21.7544 31.1359L21.7536 31.1425L21.7531 31.1471L21.7522 31.1547L21.7516 31.1603L21.7509 31.1662C21.7506 31.168 21.7504 31.1694 21.7503 31.1712C21.7498 31.1741 21.7496 31.177 21.7492 31.1799L21.7487 31.184L21.7481 31.1903C21.7479 31.1918 21.7477 31.1932 21.7475 31.1948C21.7471 31.1978 21.7468 31.2007 21.7464 31.2036L21.7459 31.2081L21.7452 31.214L21.7446 31.2187C21.7442 31.2216 21.744 31.2246 21.7435 31.2275L21.743 31.2319C21.7428 31.2339 21.7425 31.2358 21.7423 31.2378L21.7417 31.2424C21.7414 31.2453 21.7411 31.2481 21.7407 31.251L21.7401 31.256C21.7399 31.2576 21.7396 31.2597 21.7394 31.2613C21.7392 31.2632 21.7389 31.2651 21.7388 31.267L21.7377 31.275L21.7371 31.2794C21.7369 31.2814 21.7366 31.2834 21.7364 31.2854C21.7361 31.2873 21.736 31.2892 21.7357 31.2912C21.7354 31.2935 21.7351 31.2961 21.7348 31.2984L21.7342 31.3033L21.7334 31.309C21.7331 31.3114 21.7328 31.3137 21.7325 31.3162L21.7318 31.3219C21.7315 31.3236 21.7313 31.3253 21.7311 31.3271L21.7304 31.3326C21.7301 31.3352 21.7297 31.3378 21.7294 31.3403L21.7287 31.3454C21.7285 31.3472 21.7283 31.3489 21.728 31.3508L21.7273 31.3556L21.7262 31.3643L21.7255 31.3691L21.7248 31.3744L21.724 31.38C21.7237 31.3827 21.7233 31.3853 21.723 31.388C21.7227 31.3896 21.7225 31.3912 21.7223 31.3928C21.7221 31.3945 21.7219 31.3963 21.7216 31.398C21.7214 31.3999 21.721 31.402 21.7208 31.404C21.7204 31.4066 21.7201 31.4092 21.7197 31.4118L21.7191 31.4164C21.7188 31.4181 21.7185 31.42 21.7183 31.4218C21.7179 31.4244 21.7175 31.4274 21.7171 31.4301C21.7169 31.4318 21.7165 31.4338 21.7164 31.4355C21.7161 31.4368 21.7159 31.4384 21.7158 31.4398L21.7149 31.4455L21.7137 31.4535C21.7135 31.4552 21.7131 31.4573 21.7129 31.459L21.7123 31.4636C21.7119 31.466 21.7116 31.4688 21.7112 31.4712L21.7103 31.4771L21.7095 31.4826C21.7093 31.4842 21.7091 31.4856 21.7089 31.4872C21.7084 31.4899 21.7081 31.4923 21.7077 31.495C21.7074 31.497 21.7071 31.4987 21.7068 31.5006C21.7065 31.5023 21.7062 31.5043 21.706 31.506C21.7057 31.5076 21.7055 31.5093 21.7053 31.5109C21.7048 31.5134 21.7046 31.5158 21.7042 31.5183C21.7038 31.5203 21.7036 31.5223 21.7033 31.5242L21.7025 31.5294C21.7022 31.5313 21.702 31.5324 21.7017 31.5344L21.7003 31.543C21.7002 31.5443 21.6999 31.5459 21.6996 31.5473L21.6988 31.5532L21.6982 31.5571L21.6967 31.5669L21.6961 31.5707C21.6958 31.5727 21.6955 31.5746 21.6951 31.5766L21.6944 31.5809C21.6939 31.584 21.6934 31.5871 21.693 31.5901L21.6923 31.5941C21.692 31.5961 21.6916 31.5982 21.6914 31.6001L21.6908 31.6039C21.6902 31.6072 21.6898 31.6103 21.6892 31.6136C21.689 31.6152 21.6888 31.616 21.6886 31.6176L21.6875 31.6235L21.6869 31.6282C21.6864 31.6311 21.6858 31.634 21.6854 31.637C21.6852 31.6383 21.6849 31.6397 21.6847 31.641L21.6837 31.6468C21.6833 31.6494 21.6829 31.6522 21.6824 31.6547L21.6815 31.6603L21.6808 31.6646L21.6796 31.6715L21.6785 31.6782L21.6775 31.6839C21.6773 31.6852 21.6771 31.6864 21.6769 31.6877C21.6763 31.6911 21.6758 31.6944 21.6752 31.6978L21.6746 31.7014L21.6736 31.7072L21.6729 31.7113C21.6723 31.7144 21.6718 31.7178 21.6712 31.7209L21.6705 31.7248L21.6695 31.7307C21.6692 31.732 21.669 31.7331 21.6688 31.7343L21.667 31.7446L21.6664 31.7479C21.666 31.7499 21.6657 31.7519 21.6654 31.7539L21.6647 31.7576C21.6641 31.7608 21.6635 31.764 21.663 31.7672L21.6623 31.7715C21.6619 31.7735 21.6616 31.7753 21.6613 31.7772L21.6606 31.7809C21.66 31.7843 21.6594 31.7879 21.6587 31.7913L21.6581 31.7945C21.6578 31.7965 21.6575 31.7986 21.657 31.8006L21.6564 31.8041C21.6558 31.8075 21.6552 31.8108 21.6546 31.8143L21.6539 31.818C21.6535 31.8199 21.6532 31.822 21.6528 31.824L21.6523 31.8265L21.6502 31.8382L21.6497 31.8407C21.6485 31.8474 21.6471 31.8543 21.646 31.8611L21.6454 31.8641C21.6442 31.8707 21.6428 31.8776 21.6416 31.8842L21.641 31.8874C21.6397 31.8941 21.6385 31.9008 21.6371 31.9074L21.6366 31.9103C21.6357 31.9146 21.6348 31.9193 21.6339 31.9236L21.6339 31.924L21.6326 31.9308L21.6321 31.9331C21.6313 31.9373 21.6305 31.9412 21.6297 31.9454L21.6292 31.9472L21.6281 31.9535L21.6274 31.9568C21.6267 31.9605 21.6258 31.9643 21.6252 31.968L21.6247 31.9703L21.6234 31.977L21.6229 31.9793C21.6222 31.983 21.6213 31.9869 21.6206 31.9906L21.62 31.9936C21.6195 31.9957 21.6191 31.9978 21.6187 31.9998L21.6181 32.0029C21.6174 32.0063 21.6166 32.0099 21.616 32.0133L21.6153 32.0168L21.6141 32.0229L21.6135 32.0256C21.6127 32.0292 21.6119 32.033 21.6112 32.0366L21.6105 32.0397C21.6101 32.0418 21.6096 32.0439 21.6092 32.046L21.6088 32.048C21.6079 32.052 21.6071 32.0557 21.6063 32.0597L21.6057 32.0627C21.6044 32.0694 21.6029 32.076 21.6015 32.0828L21.601 32.0856L21.5966 32.106L21.5961 32.1083L21.5916 32.1289L21.5911 32.1313C21.5902 32.1354 21.5893 32.1396 21.5883 32.1437L21.588 32.1452C21.5876 32.1474 21.5871 32.1496 21.5866 32.1517L21.586 32.1543C21.5851 32.1584 21.5842 32.1623 21.5834 32.1664L21.583 32.1682L21.5814 32.1748L21.581 32.1767C21.5801 32.181 21.5792 32.1851 21.5782 32.1895L21.5779 32.1908C21.5773 32.1931 21.5769 32.1953 21.5764 32.1976L21.576 32.1993L21.5732 32.212L21.5727 32.2137C21.5721 32.216 21.5717 32.2183 21.5712 32.2207L21.571 32.2215C21.5699 32.2259 21.569 32.2302 21.568 32.2345L21.5675 32.2367C21.5669 32.239 21.5664 32.2412 21.5659 32.2435L21.5658 32.2437C21.5648 32.2482 21.5638 32.2527 21.5628 32.2571L21.5622 32.2598C21.5606 32.2666 21.559 32.2734 21.5575 32.2803L21.557 32.2823C21.5554 32.2893 21.5537 32.2962 21.5521 32.3033L21.5517 32.3049C21.55 32.3119 21.5484 32.319 21.5467 32.3261L21.5464 32.3274C21.5447 32.3345 21.543 32.3415 21.5413 32.3486L21.5409 32.3504C21.5392 32.3574 21.5375 32.3643 21.5358 32.3712L21.5354 32.373L21.5321 32.3867L21.532 32.3869L21.5303 32.3941L21.53 32.3952C21.529 32.3995 21.5278 32.4041 21.5268 32.4084L21.5265 32.4098L21.5247 32.4169L21.5246 32.4171L21.521 32.4313L21.5208 32.4323L21.519 32.4393L21.5188 32.44L21.5155 32.4534L21.515 32.4552C21.5133 32.4623 21.5115 32.4693 21.5097 32.4763L21.5094 32.4775C21.5076 32.4844 21.5058 32.4912 21.5041 32.4982L21.5034 32.5007C21.5017 32.5075 21.4999 32.5144 21.4981 32.5212L21.4977 32.5227C21.4959 32.5296 21.494 32.5367 21.4922 32.5436L21.4917 32.5455C21.4899 32.5524 21.4879 32.5594 21.4862 32.5665L21.4859 32.5674C21.484 32.5745 21.4821 32.5818 21.4802 32.5888L21.4798 32.59C21.4787 32.5946 21.4774 32.5991 21.4762 32.6037L21.476 32.6043L21.4741 32.6115L21.474 32.6118L21.4701 32.6262L21.47 32.6266C21.4694 32.6291 21.4687 32.6314 21.4681 32.6339L21.468 32.6341C21.4667 32.6389 21.4654 32.6436 21.4641 32.6483L21.4638 32.6491C21.4619 32.6564 21.4598 32.6637 21.4578 32.671L21.4577 32.6712L21.4517 32.6927L21.4515 32.6938C21.4495 32.7009 21.4475 32.7081 21.4455 32.7152L21.4452 32.716C21.4433 32.7231 21.4413 32.73 21.4393 32.737L21.4388 32.7388C21.4368 32.7458 21.4348 32.7527 21.4328 32.7596L21.4325 32.7606C21.4305 32.7677 21.4284 32.775 21.4263 32.782L21.4262 32.7826C21.4221 32.7971 21.4177 32.812 21.4135 32.8265L21.4134 32.8267C21.4119 32.8316 21.4106 32.8363 21.4091 32.8411L21.409 32.8414C21.407 32.8485 21.4048 32.8558 21.4027 32.8628L21.4025 32.8639C21.4003 32.871 21.3983 32.878 21.3961 32.8852L21.3958 32.886C21.3937 32.8931 21.3916 32.9002 21.3894 32.9072L21.3891 32.9083C21.3869 32.9153 21.3849 32.9223 21.3827 32.9293L21.3823 32.9305C21.3801 32.9375 21.3781 32.9442 21.3759 32.9512L21.3754 32.9528C21.3733 32.9597 21.3712 32.9664 21.3691 32.9731L21.3685 32.9751C21.3663 32.982 21.3642 32.9888 21.362 32.9957L21.3617 32.9964C21.358 33.0084 21.3541 33.0205 21.3504 33.0325L21.3503 33.0326C21.3457 33.0472 21.3411 33.0615 21.3364 33.076L21.3362 33.0768C21.3339 33.0837 21.3316 33.0909 21.3293 33.0978L21.3291 33.0987L21.3222 33.1198L21.3219 33.1206C21.3196 33.1276 21.3172 33.1348 21.315 33.1417L21.3147 33.1426L21.3077 33.1637L21.3075 33.1642C21.3051 33.1714 21.3028 33.1783 21.3004 33.1855L21.3002 33.1861C21.2978 33.1932 21.2955 33.2002 21.2931 33.2072L21.2927 33.2083C21.2912 33.2128 21.2896 33.2174 21.2881 33.2219L21.288 33.2222L21.2855 33.2293V33.2294L21.2807 33.2437L21.2806 33.244L21.2733 33.2649L21.2729 33.266L21.2657 33.2869L21.2654 33.2877C21.263 33.2946 21.2606 33.3014 21.2582 33.3082L21.2577 33.3097C21.2554 33.3163 21.253 33.3231 21.2506 33.3297L21.2499 33.3316C21.2476 33.3381 21.2452 33.3449 21.2429 33.3514L21.2422 33.3535L21.2351 33.3734L21.2346 33.3748C21.2322 33.3815 21.2297 33.3883 21.2273 33.395L21.2267 33.3967C21.2252 33.4007 21.2237 33.4048 21.2223 33.4088L21.2218 33.4103L21.2195 33.4167L21.2189 33.4183C21.2175 33.422 21.2161 33.426 21.2147 33.4299L21.2139 33.4322C21.2132 33.4342 21.2125 33.4361 21.2117 33.438L21.2107 33.4409C21.2094 33.4445 21.2081 33.4481 21.2068 33.4517L21.206 33.4538L21.2037 33.4602L21.2033 33.4612C21.2018 33.4652 21.2003 33.4693 21.1988 33.4733L21.198 33.4755L21.1957 33.4817L21.195 33.4835C21.1937 33.4872 21.1924 33.4908 21.1909 33.4945L21.1897 33.4975C21.1873 33.5039 21.185 33.5102 21.1827 33.5166L21.1818 33.5187L21.1746 33.5378L21.1735 33.5405C21.1712 33.5469 21.1687 33.5533 21.1663 33.5597L21.1655 33.5617C21.1638 33.566 21.1623 33.5701 21.1607 33.5745L21.1605 33.5748C21.1598 33.5768 21.159 33.5788 21.1582 33.5808L21.157 33.5839C21.1556 33.5873 21.1544 33.5907 21.1531 33.5941L21.1521 33.5965L21.1498 33.6024L21.1487 33.6053L21.1448 33.6152L21.1438 33.6179L21.1416 33.6237L21.1405 33.6266L21.1365 33.6368L21.1354 33.6394L21.1331 33.6455L21.1324 33.6474C21.131 33.6508 21.1296 33.6546 21.1282 33.6581L21.1271 33.6609L21.125 33.6664L21.1234 33.6702C21.1222 33.6733 21.121 33.6763 21.1198 33.6794L21.1187 33.6823C21.1178 33.6843 21.117 33.6863 21.1163 33.6883L21.116 33.6889L21.1112 33.7011L21.1101 33.7036C21.1076 33.7099 21.1051 33.7162 21.1025 33.7225L21.1015 33.7251C21.099 33.7314 21.0965 33.7376 21.0939 33.7439L21.0929 33.7466L21.0884 33.7579L21.0878 33.7594L21.0855 33.765L21.0841 33.7683L21.0806 33.777L21.0789 33.781C21.0783 33.7827 21.0776 33.7845 21.0768 33.7861L21.0753 33.7899C21.0741 33.7927 21.0731 33.7953 21.0719 33.7981L21.0702 33.8022C21.0696 33.8039 21.0688 33.8057 21.0681 33.8074L21.0667 33.811L21.0629 33.82L21.0616 33.8235C21.0608 33.8253 21.06 33.827 21.0593 33.8288L21.0578 33.8326L21.0543 33.841L21.0527 33.8448C21.052 33.8465 21.0512 33.8483 21.0506 33.85L21.0489 33.8539L21.0454 33.8623L21.0437 33.8663L21.0416 33.8713L21.0397 33.8758C21.0387 33.8783 21.0377 33.8808 21.0367 33.8833C21.0361 33.8847 21.0354 33.8863 21.0347 33.8878L21.0329 33.8921L21.0301 33.8986C21.0293 33.9006 21.0286 33.9024 21.0276 33.9044L21.0257 33.909L21.0237 33.9135L21.0205 33.9211L21.0185 33.9256C21.0178 33.9274 21.0173 33.9284 21.0166 33.9301L21.0147 33.9346L21.0114 33.9421L21.0095 33.9467L21.0074 33.9515C21.0068 33.953 21.0062 33.9543 21.0056 33.9558C21.0044 33.9584 21.0035 33.9607 21.0024 33.9633L21.0004 33.9681C20.9997 33.9695 20.9991 33.971 20.9985 33.9724L20.9958 33.9784L20.9933 33.9843C20.9926 33.9858 20.9918 33.9876 20.9912 33.9891C20.9906 33.9906 20.9899 33.9922 20.9892 33.9936C20.9883 33.9958 20.9874 33.9979 20.9864 33.9999C20.9857 34.0016 20.9847 34.0039 20.9839 34.0056L20.9819 34.0102L20.9799 34.0148L20.9768 34.0218L20.9749 34.0264L20.9727 34.0311L20.9705 34.0361C20.9696 34.0383 20.9686 34.0407 20.9675 34.0428C20.9669 34.0445 20.9663 34.0457 20.9655 34.0475L20.9634 34.0523L20.9609 34.0577L20.9582 34.0639L20.9562 34.0684C20.9554 34.0702 20.9548 34.0716 20.9539 34.0734L20.9521 34.0775C20.951 34.0801 20.9498 34.0825 20.9487 34.0851L20.9467 34.0896L20.9447 34.0941C20.9435 34.0968 20.9424 34.0992 20.9412 34.1018C20.9407 34.103 20.94 34.1044 20.9395 34.1056C20.9387 34.1073 20.938 34.1091 20.9371 34.1109C20.9365 34.1123 20.9359 34.1135 20.9353 34.1148L20.9318 34.1227L20.93 34.1267C20.9292 34.1284 20.9283 34.1302 20.9275 34.132C20.9269 34.1334 20.9263 34.1347 20.9257 34.136L20.9221 34.1438C20.9215 34.1451 20.9209 34.1464 20.9203 34.1477C20.9195 34.1494 20.9187 34.1512 20.9179 34.1529L20.9162 34.1569C20.915 34.1595 20.9138 34.1621 20.9126 34.1647C20.912 34.166 20.9114 34.1672 20.9108 34.1685L20.9082 34.1741L20.9062 34.1786L20.9029 34.1856L20.9011 34.1897L20.8986 34.1949C20.8978 34.1967 20.8969 34.1986 20.8961 34.2003L20.8933 34.2064L20.8915 34.2104L20.8887 34.2164L20.8866 34.221L20.8836 34.2274L20.8818 34.2312L20.879 34.2371C20.8781 34.239 20.8772 34.241 20.8764 34.2428L20.8739 34.2481L20.872 34.2521C20.871 34.2544 20.8698 34.2569 20.8687 34.2592L20.8667 34.2635L20.864 34.2693L20.8623 34.2728L20.8585 34.2809L20.8568 34.2843L20.8541 34.29L20.8524 34.2936L20.8486 34.3017L20.847 34.305C20.846 34.3069 20.8451 34.3091 20.8441 34.311L20.8425 34.3143L20.8386 34.3224L20.8369 34.3259C20.8359 34.3279 20.8349 34.3301 20.8339 34.3321L20.8325 34.3349C20.8312 34.3377 20.8299 34.3405 20.8285 34.3433L20.8269 34.3465C20.8259 34.3488 20.8249 34.3507 20.8238 34.353L20.8225 34.3557C20.8213 34.3582 20.8197 34.3615 20.8184 34.364L20.8169 34.3673L20.8137 34.3737L20.8124 34.3764L20.8083 34.3847L20.8067 34.3879C20.8055 34.3904 20.8046 34.3923 20.8033 34.3949L20.8019 34.3978C20.8008 34.4003 20.7996 34.4026 20.7984 34.4051L20.7966 34.4089L20.7932 34.4158L20.7916 34.4188L20.7882 34.4258L20.7865 34.4292L20.7824 34.4376L20.7815 34.4395L20.7779 34.4467L20.7764 34.4497C20.775 34.4525 20.7736 34.4555 20.7721 34.4583L20.7713 34.4602C20.7701 34.4625 20.7687 34.4653 20.7675 34.4676L20.7662 34.4702L20.7619 34.4789L20.7609 34.4811L20.7573 34.4883L20.7559 34.4909C20.7546 34.4937 20.7529 34.4969 20.7516 34.4997L20.7506 34.5017L20.7468 34.5092L20.7456 34.5114C20.7443 34.5142 20.7426 34.5173 20.7412 34.5201L20.7401 34.5224C20.7387 34.5249 20.7375 34.5273 20.7362 34.5299L20.7352 34.5318C20.7337 34.5349 20.7322 34.5377 20.7306 34.5409L20.7298 34.5427L20.7254 34.5512L20.725 34.5521C20.7234 34.5552 20.7218 34.5583 20.7203 34.5613L20.7193 34.5634C20.7179 34.5659 20.7165 34.5688 20.7152 34.5714L20.7144 34.5728L20.7098 34.5818L20.7088 34.5838C20.7073 34.5866 20.7057 34.5898 20.7043 34.5926L20.704 34.5931C20.7025 34.5962 20.701 34.5991 20.6993 34.6022L20.6981 34.6044C20.6966 34.6074 20.6951 34.6103 20.6935 34.6134L20.693 34.6143L20.6887 34.6227L20.6876 34.6248L20.6827 34.634L20.6825 34.6345L20.6778 34.6433L20.6769 34.6451C20.6752 34.6482 20.6737 34.6512 20.6721 34.6542L20.6715 34.6554C20.6699 34.6582 20.6684 34.6611 20.667 34.6639L20.6662 34.6654L20.6613 34.6747L20.6606 34.676L20.6561 34.6844L20.6554 34.6858C20.6538 34.6888 20.6522 34.6918 20.6506 34.6949L20.6497 34.6966L20.6455 34.7046L20.6446 34.7061C20.643 34.7092 20.6414 34.7123 20.6397 34.7153L20.639 34.7167C20.6374 34.7198 20.636 34.7223 20.6343 34.7254L20.6339 34.7262C20.6323 34.7293 20.6306 34.7323 20.629 34.7354L20.628 34.7373C20.6263 34.7404 20.6249 34.743 20.6233 34.746L20.6231 34.7464C20.6213 34.7498 20.6196 34.7527 20.6179 34.756L20.6173 34.7571C20.6139 34.7635 20.6103 34.77 20.6069 34.7763L20.6063 34.7773C20.6027 34.7839 20.5994 34.79 20.5957 34.7966L20.5953 34.7975L20.5847 34.8168L20.5841 34.8177C20.5806 34.824 20.577 34.8306 20.5735 34.837L20.573 34.8378C20.5695 34.8441 20.5658 34.8508 20.5623 34.8572L20.5619 34.8579C20.5582 34.8645 20.5544 34.8711 20.5508 34.8777L20.5507 34.8779C20.5489 34.8812 20.547 34.8844 20.5452 34.8877L20.545 34.8881L20.5396 34.8977L20.5394 34.8981C20.5377 34.901 20.5356 34.9047 20.5339 34.9077L20.5335 34.9085C20.5316 34.9118 20.5299 34.9148 20.528 34.918V34.9181C20.5262 34.9214 20.5243 34.9247 20.5224 34.928L20.5222 34.9282C20.5185 34.9348 20.5148 34.9412 20.5112 34.9477L20.5107 34.9485C20.507 34.9551 20.5035 34.9612 20.4996 34.9678L20.4992 34.9684C20.4955 34.9749 20.4919 34.9812 20.4881 34.9877L20.4877 34.9884L20.4766 35.0077L20.4762 35.0083C20.4725 35.0148 20.4686 35.0212 20.4649 35.0278L20.4647 35.028C20.4628 35.0313 20.461 35.0345 20.459 35.0377L20.4588 35.0381C20.457 35.0411 20.4551 35.0444 20.4534 35.0474L20.4529 35.0481C20.451 35.0513 20.4493 35.0544 20.4473 35.0576L20.447 35.0581C20.4432 35.0646 20.4394 35.0711 20.4356 35.0776L20.4355 35.0777C20.4315 35.0845 20.4278 35.0907 20.4238 35.0974L20.4236 35.0977C20.4198 35.1041 20.4159 35.1107 20.412 35.1172L20.4119 35.1174C20.4079 35.1239 20.4041 35.1305 20.4002 35.137L20.4 35.1373C20.2893 35.3219 20.1729 35.5024 20.0508 35.679C19.4802 36.5052 19.6873 37.6377 20.5135 38.2084C21.3397 38.7791 22.4722 38.5719 23.0429 37.7457C25.4289 34.2832 26.0871 29.9148 24.8274 25.903C24.5888 25.1453 23.8872 24.6302 23.0935 24.6296Z" fill="#E62939"/>
<path d="M11.8183 38.1815C16.337 38.1815 20.0001 34.5184 20.0001 29.9997C20.0001 25.481 16.337 21.8179 11.8183 21.8179C7.29959 21.8179 3.63647 25.481 3.63647 29.9997C3.63647 34.5184 7.29959 38.1815 11.8183 38.1815Z" fill="#4AEC98"/>
<path d="M11.8183 21.8182C7.29962 21.8182 3.63647 25.4813 3.63647 30V30.0206L3.63656 30.0233V30.0342L3.63664 30.0376V30.0445L3.63673 30.0482V30.0551L3.63682 30.0581V30.0623L3.6369 30.0648V30.0694L3.63699 30.0718V30.0765L3.63707 30.0786C3.63707 30.0803 3.63707 30.082 3.63716 30.0836V30.0856L3.63733 30.0994V30.1013L3.63741 30.1063L3.6375 30.109C3.6375 30.1104 3.6375 30.1117 3.63758 30.113L3.63767 30.1164L3.63775 30.12V30.1235L3.63784 30.1266L3.63792 30.1302L3.63801 30.1337L3.63809 30.137L3.63818 30.1404L3.63826 30.1438L3.63835 30.1476L3.63843 30.1505L3.63852 30.1548L3.63861 30.1572L3.63869 30.162L3.63878 30.164L3.63886 30.1686L3.63895 30.171L3.63903 30.1758L3.63912 30.1779L3.63929 30.1842V30.1847L3.63946 30.1917V30.1923L3.63963 30.1985V30.2005L3.6398 30.2054V30.2073L3.63997 30.2123L3.64005 30.2145C3.64005 30.2159 3.64014 30.2176 3.64014 30.219L3.64022 30.2217L3.64031 30.2255L3.6404 30.2291L3.64048 30.2324L3.64057 30.2356L3.64065 30.2394L3.64074 30.2425L3.64082 30.246L3.64091 30.2493C3.64099 30.2506 3.64099 30.2517 3.64099 30.2531L3.64108 30.2561C3.64116 30.2575 3.64116 30.2589 3.64116 30.2604L3.64125 30.2628L3.64133 30.2673L3.64142 30.2698C3.64142 30.2712 3.6415 30.2725 3.6415 30.2738L3.64159 30.2766L3.64167 30.2807L3.64184 30.2855L3.64201 30.2903L3.6421 30.2927L3.64218 30.2968L3.64227 30.3001L3.64244 30.3038L3.64253 30.3069L3.64261 30.3106L3.6427 30.3134L3.64287 30.3177L3.64295 30.3204L3.64312 30.3244L3.64321 30.3274L3.64338 30.3313L3.64346 30.3342L3.64363 30.338L3.64372 30.3411L3.64389 30.3451L3.64397 30.348L3.64415 30.3517L3.64423 30.3548L3.6444 30.3586L3.64449 30.3616C3.64457 30.3632 3.64466 30.3648 3.64474 30.3665L3.64483 30.3682C3.645 30.3729 3.64525 30.3775 3.64542 30.3821L3.64551 30.383C3.64559 30.385 3.64568 30.3869 3.64576 30.3889L3.64585 30.3907C3.64593 30.3923 3.64602 30.394 3.64611 30.3956L3.64628 30.3981L3.64645 30.4025L3.64653 30.4048C3.64662 30.4063 3.6467 30.408 3.64679 30.4095L3.64687 30.4116L3.64713 30.4164L3.64721 30.4185C3.6473 30.4201 3.6473 30.4215 3.64747 30.423L3.64755 30.4259L3.64781 30.4296L3.64798 30.4326L3.64815 30.4366L3.64832 30.4393L3.64858 30.4434L3.64875 30.4461L3.64892 30.45L3.64909 30.4531L3.64934 30.4569L3.64951 30.4598L3.64986 30.4655L3.64994 30.4665C3.6502 30.4711 3.65045 30.4756 3.65071 30.4802L3.65079 30.4823L3.65105 30.4871L3.65122 30.4896L3.65147 30.4938L3.65165 30.4964L3.6519 30.5008L3.65199 30.5033L3.65224 30.5073L3.65241 30.5102L3.65267 30.5145L3.65275 30.5167L3.65309 30.5216L3.65318 30.5234L3.65352 30.5286L3.65361 30.5303L3.65395 30.5353L3.65403 30.5373L3.65437 30.5425L3.65446 30.544L3.65488 30.5503L3.65497 30.5506L3.6554 30.5575V30.5576C3.65574 30.5622 3.65599 30.5669 3.65633 30.5715L3.65642 30.5724L3.65684 30.5783L3.65693 30.5799L3.65727 30.5851L3.65744 30.5869L3.65778 30.5919L3.65795 30.5938L3.65829 30.5989L3.65838 30.6005L3.6588 30.6057L3.65889 30.6075C3.65906 30.6092 3.65915 30.6109 3.65932 30.6125L3.6594 30.6143C3.65957 30.616 3.65966 30.6176 3.65983 30.6193L3.66 30.6212L3.66042 30.6267L3.66051 30.6278C3.66059 30.6297 3.66076 30.6317 3.66093 30.6336L3.66102 30.6348L3.66153 30.6411L3.66162 30.6415L3.66375 30.6693L3.66383 30.6696L3.66434 30.676L3.66443 30.6773C3.6646 30.6792 3.66477 30.6811 3.66486 30.683L3.66494 30.6842C3.66511 30.686 3.66528 30.6879 3.66537 30.6897L3.66554 30.6913L3.66596 30.6966L3.66605 30.6982C3.66622 30.6999 3.66639 30.7017 3.66647 30.7034L3.66665 30.705C3.66673 30.7068 3.6669 30.7086 3.66707 30.7104L3.66716 30.7118L3.66767 30.7173L3.66775 30.7187L3.66826 30.7244L3.66835 30.7253C3.66852 30.7275 3.66869 30.7296 3.66895 30.7317V30.7322C3.66997 30.7438 3.67108 30.7552 3.6721 30.7668L3.67218 30.7671L3.67278 30.7736L3.67287 30.7742C3.67304 30.7763 3.67321 30.7783 3.67346 30.7804L3.67355 30.7813C3.67372 30.7831 3.67389 30.7852 3.67415 30.7871L3.67423 30.7883C3.6744 30.7903 3.67457 30.7921 3.67483 30.794L3.67491 30.795L3.67551 30.801L3.67559 30.8019L3.67619 30.808L3.67628 30.8088C3.67653 30.8109 3.6767 30.8129 3.67687 30.815L3.67696 30.8157C3.67875 30.8339 3.68071 30.8523 3.68258 30.8706L3.68267 30.8716C3.68284 30.8736 3.68309 30.8756 3.68326 30.8776L3.68335 30.8782L3.68403 30.8842L3.68412 30.8852L3.6848 30.8912L3.68488 30.892L3.68557 30.8978L3.68565 30.899L3.68633 30.905L3.68642 30.9056L3.6871 30.9123L3.68718 30.9124C3.68974 30.9354 3.69238 30.9584 3.69511 30.9814V30.9815C3.79082 31.7838 4.00559 32.5673 4.33235 33.3062L4.33261 33.3068C4.33346 33.3087 4.33431 33.3105 4.33508 33.3124L4.33517 33.3126L4.33772 33.3184L4.33789 33.3188L4.34054 33.3246L4.34062 33.3247C4.34147 33.3266 4.34233 33.3284 4.34309 33.3302L4.34352 33.3312L4.34582 33.3364L4.34616 33.3371C4.34693 33.3388 4.3477 33.3406 4.34855 33.3424L4.34889 33.3431L4.35127 33.3486L4.35162 33.3492C4.3523 33.3509 4.35315 33.3526 4.35392 33.3544L4.35434 33.3553C4.35698 33.3613 4.35971 33.3673 4.36244 33.3733L4.36312 33.3748L4.365 33.379L4.36619 33.3816L4.36772 33.3849L4.36892 33.3874L4.37045 33.3907L4.37181 33.3938L4.37301 33.3964L4.37463 33.3999L4.37565 33.402L4.37684 33.4046C4.79522 34.3173 5.87437 34.7182 6.78724 34.2998C7.70002 33.8814 8.10084 32.8023 7.68246 31.8894C7.41101 31.2966 7.27141 30.652 7.27346 30C7.27627 27.4908 9.30962 25.4575 11.8188 25.4546C12.5891 25.4512 13.3472 25.6464 14.02 26.0214C14.8979 26.5087 16.0047 26.1921 16.4921 25.3142C16.9785 24.4378 16.664 23.333 15.7888 22.8443C14.8298 22.3108 13.7726 21.977 12.6811 21.8632H12.681C12.6727 21.8623 12.6642 21.8614 12.6559 21.8606L12.6549 21.8605L12.649 21.8599H12.6487C12.64 21.8591 12.6318 21.8582 12.6232 21.8574H12.623C12.6146 21.8565 12.6062 21.8558 12.5978 21.855L12.5968 21.8549L12.5911 21.8544L12.5901 21.8543C12.584 21.8537 12.5776 21.8531 12.5713 21.8526L12.5656 21.8521L12.5642 21.852L12.5586 21.8515L12.5579 21.8514L12.5398 21.8498L12.5386 21.8497L12.5333 21.8493L12.5313 21.8491L12.5262 21.8487L12.525 21.8486L12.5131 21.8476H12.513L12.5078 21.8472L12.5056 21.847L12.5008 21.8466L12.4985 21.8464L12.4815 21.845L12.4803 21.8449L12.4752 21.8445L12.4731 21.8443L12.4679 21.8439L12.4663 21.8438L12.4499 21.8426L12.4471 21.8423L12.4427 21.842L12.4399 21.8418L12.4353 21.8414L12.4335 21.8413L12.4227 21.8405L12.4219 21.8404L12.4167 21.8401L12.4146 21.8399L12.4098 21.8396L12.4075 21.8394C12.4021 21.839 12.3968 21.8386 12.3913 21.8383L12.389 21.8381L12.3842 21.8378L12.3817 21.8376L12.377 21.8373L12.3747 21.8371L12.3585 21.836L12.3563 21.8358L12.3515 21.8355L12.3489 21.8353L12.3444 21.8351L12.3414 21.8349L12.3332 21.8344L12.3305 21.8342L12.3259 21.8339L12.3233 21.8338L12.3187 21.8335L12.3157 21.8333L12.3008 21.8325L12.2973 21.8323L12.2936 21.8321L12.2899 21.8319L12.2859 21.8316L12.2823 21.8315L12.2765 21.8311L12.2719 21.8309L12.2681 21.8307L12.2642 21.8305L12.2606 21.8304L12.2566 21.8302L12.253 21.83L12.2477 21.8298L12.2439 21.8296L12.2385 21.8293L12.2355 21.8292L12.231 21.8289L12.2277 21.8287L12.2234 21.8285L12.2201 21.8283L12.2131 21.828L12.2103 21.8278L12.2055 21.8276L12.2024 21.8274L12.1977 21.8271L12.1947 21.827L12.1893 21.8267L12.1871 21.8266L12.1801 21.8263L12.1768 21.8261L12.1725 21.8259L12.1691 21.8258L12.1647 21.8256L12.1617 21.8255L12.1562 21.8253L12.1517 21.8251L12.147 21.8249L12.1438 21.8248L12.1394 21.8247L12.1363 21.8246L12.1314 21.8244L12.1286 21.8243L12.1215 21.8241L12.1185 21.824L12.1141 21.8238L12.1109 21.8237L12.1063 21.8235L12.103 21.8235L12.0983 21.8233L12.0944 21.8231L12.0886 21.8229L12.0854 21.8229L12.0809 21.8227L12.0778 21.8226L12.0732 21.8224L12.0701 21.8224L12.0634 21.8222L12.0607 21.8221L12.0554 21.8219L12.0521 21.8218L12.0478 21.8218L12.0446 21.8217L12.0395 21.8215L12.0369 21.8214L12.0295 21.8212L12.0273 21.8212L12.022 21.821L12.0189 21.8209L12.0141 21.8208L12.0111 21.8207L12.0048 21.8206H12.0036L11.9962 21.8204L11.9936 21.8203L11.9884 21.8202L11.9856 21.8201L11.9801 21.8201H11.978L11.9704 21.8199H11.9686L11.9628 21.8198L11.9597 21.8197L11.9553 21.8196L11.9521 21.8195L11.9469 21.8195H11.9444L11.937 21.8194H11.9349L11.9292 21.8193H11.9269L11.9213 21.8192H11.9188L11.9037 21.819H11.9013L11.8958 21.8189H11.8933L11.8878 21.8189H11.8855L11.8779 21.8188H11.8765H11.8702H11.8677H11.8623H11.8598H11.8542H11.852H11.8445H11.8424H11.837H11.834H11.829H11.8263L11.8183 21.8182Z" fill="#9DF4C7"/>
<path d="M11.8182 21.8182H11.8112H11.8089H11.8042H11.8015H11.7972H11.7944H11.7903H11.7871H11.7832H11.7802H11.776H11.7731H11.7683H11.7663H11.7611H11.7591L11.7452 21.8183H11.7428L11.738 21.8183H11.7355L11.7311 21.8184H11.7282L11.7239 21.8185H11.7211L11.717 21.8186H11.714L11.7098 21.8187H11.7069L11.703 21.8188L11.6997 21.8189L11.6961 21.8189L11.691 21.819L11.6859 21.8191L11.6831 21.8192L11.679 21.8193L11.6759 21.8194L11.672 21.8195L11.6687 21.8195L11.6648 21.8196L11.6619 21.8197L11.6577 21.8198L11.6547 21.8199L11.6507 21.82L11.6477 21.8201L11.6438 21.8201L11.6404 21.8202L11.6365 21.8203L11.6337 21.8204L11.629 21.8205L11.6248 21.8206L11.6196 21.8206L11.6175 21.8207L11.6128 21.8208L11.61 21.8209L11.6056 21.821L11.603 21.8211L11.5987 21.8212L11.5957 21.8212L11.5918 21.8213L11.5884 21.8214L11.5852 21.8215L11.5814 21.8216L11.5781 21.8217L11.5745 21.8218L11.5706 21.8218L11.5676 21.8219L11.5607 21.8221L11.5593 21.8222L11.5537 21.8224L11.5512 21.8224L11.5467 21.8226L11.544 21.8227L11.5398 21.8229L11.5367 21.8229L11.5329 21.8231L11.5298 21.8232L11.526 21.8234L11.5225 21.8235L11.5192 21.8235L11.5158 21.8236L11.5119 21.8238L11.5088 21.8239L11.5025 21.8241H11.5022L11.4953 21.8244L11.492 21.8246L11.4882 21.8247L11.485 21.8249L11.4814 21.8251L11.478 21.8253L11.4742 21.8254L11.4709 21.8256L11.4677 21.8258L11.4637 21.8259L11.4606 21.8261L11.4568 21.8263L11.4536 21.8264L11.45 21.8266L11.4457 21.8268L11.4432 21.8269L11.4382 21.8271L11.4359 21.8272L11.4294 21.8276L11.4264 21.8277L11.4225 21.8279L11.4192 21.8281L11.4156 21.8282L11.4122 21.8284L11.4087 21.8286L11.4053 21.8287L11.4017 21.8289L11.3985 21.8291L11.3949 21.8293L11.3911 21.8294L11.3885 21.8296L11.3843 21.8299L11.3818 21.83L11.3774 21.8303H11.3767L11.3592 21.8312L11.3575 21.8313L11.3525 21.8316L11.3507 21.8316L11.346 21.8319L11.3437 21.8321L11.3395 21.8323L11.3369 21.8325L11.3326 21.8327L11.3301 21.8329L11.3256 21.8332L11.3235 21.8333L11.3189 21.8335L11.3169 21.8336L11.301 21.8345L11.2988 21.8347L11.2947 21.835L11.2921 21.8351L11.2877 21.8354L11.2854 21.8356L11.281 21.8358L11.2785 21.836L11.2742 21.8362L11.2719 21.8364L11.2676 21.8367L11.2651 21.8368L11.2606 21.8372L11.2589 21.8373L11.2537 21.8376L11.2531 21.8377C11.2449 21.8383 11.2366 21.8388 11.2284 21.8394L11.2274 21.8395L11.2223 21.8398L11.2206 21.8399L11.2157 21.8403L11.2139 21.8404L11.2088 21.8408L11.2074 21.8408L11.2021 21.8413L11.2007 21.8414L11.1954 21.8418L11.1941 21.8419C11.1857 21.8425 11.1776 21.8431 11.1692 21.8437L11.1636 21.8442L11.1624 21.8443L11.157 21.8447L11.1557 21.8448L11.1505 21.8452L11.149 21.8453L11.1437 21.8457L11.1423 21.8458L11.1371 21.8462L11.1358 21.8463C11.1234 21.8473 11.1107 21.8484 11.0983 21.8495L11.0976 21.8495L11.092 21.8501L11.091 21.8501L11.0856 21.8506L11.0842 21.8507L11.0788 21.8512L11.078 21.8513L11.072 21.8518H11.0719C11.0611 21.8528 11.0508 21.8538 11.04 21.8548H11.0396L11.0339 21.8553L11.0329 21.8554L11.0272 21.8559L11.0264 21.856L11.0207 21.8565L11.0197 21.8566L11.0139 21.8572C10.9988 21.8587 10.9841 21.8602 10.9691 21.8617L10.9685 21.8618L10.9626 21.8624L10.962 21.8625L10.956 21.8631L10.9556 21.8632C10.2437 21.9375 9.54486 22.1056 8.87693 22.3629L8.87591 22.3633L8.87088 22.3652L8.86994 22.3655L8.86517 22.3674L8.86381 22.3679C8.86014 22.3693 8.85665 22.3707 8.85307 22.3721L8.85281 22.3722C8.84548 22.375 8.83815 22.3779 8.83091 22.3807L8.82929 22.3813L8.82554 22.3828L8.82298 22.3838L8.81992 22.385L8.81659 22.3863L8.81361 22.3875L8.81097 22.3885L8.80739 22.39L8.80475 22.391L8.80142 22.3923L8.79827 22.3935L8.79529 22.3947L8.79171 22.3962L8.78762 22.3978L8.7831 22.3996L8.7808 22.4005L8.77688 22.4021L8.77475 22.4029L8.77057 22.4046L8.76861 22.4054L8.76435 22.4071L8.76239 22.4079L8.75804 22.4096L8.75608 22.4103L8.75139 22.4122L8.75003 22.4127L8.74483 22.4149L8.74364 22.4153C8.7352 22.4187 8.72676 22.4222 8.71833 22.4256L8.7179 22.4258L8.71176 22.4282L8.71151 22.4283L8.70571 22.4307L8.70469 22.4311L8.69881 22.4335L8.69872 22.4336C8.56381 22.4893 8.43085 22.5484 8.29969 22.611C7.39347 23.0429 7.0085 24.1278 7.44026 25.0344C7.87202 25.941 8.95696 26.3259 9.86352 25.8942C9.86421 25.8938 9.86489 25.8935 9.86557 25.8931C10.4753 25.6022 11.1426 25.4523 11.8182 25.4545C11.9135 25.4545 12.0081 25.4574 12.1019 25.4631C12.1395 25.4654 12.1769 25.4665 12.2141 25.4665C13.2182 25.4656 14.0315 24.6507 14.0305 23.6466C14.0296 22.686 13.2816 21.8918 12.3228 21.8334L12.3153 21.833H12.3147L12.3083 21.8327L12.3062 21.8326L12.3012 21.8323L12.2987 21.8322L12.2948 21.8319L12.2785 21.831C12.1612 21.8245 12.0434 21.8205 11.9249 21.8189H11.9235L11.9182 21.8189H11.9166L11.9114 21.8188H11.9092L11.9042 21.8187H11.9027L11.8933 21.8186H11.8907H11.8866H11.8832H11.8794H11.8758H11.8724H11.8682H11.865H11.86H11.8559H11.8509H11.8476H11.8433H11.8402H11.836H11.833H11.8282H11.8256L11.8182 21.8182Z" fill="#C1F8DC"/>
<path d="M21.8182 29.958V29.9374C21.8181 29.9359 21.8181 29.9344 21.8181 29.9327V29.9242C21.8181 29.9228 21.8181 29.9219 21.818 29.9205V29.9121C21.818 29.9104 21.818 29.9087 21.8179 29.907V29.8986C21.8179 29.8972 21.8179 29.8965 21.8178 29.8952V29.887C21.8177 29.8841 21.8177 29.8816 21.8177 29.8787C21.8177 29.8773 21.8177 29.8765 21.8176 29.8751V29.8701L21.8176 29.8661V29.862C21.8176 29.8606 21.8175 29.8589 21.8175 29.8575V29.8534C21.8175 29.8521 21.8174 29.851 21.8174 29.8497V29.8449C21.8173 29.8436 21.8173 29.8427 21.8173 29.8413C21.8173 29.8396 21.8173 29.8381 21.8172 29.8365V29.8328C21.8172 29.8314 21.8171 29.8298 21.8171 29.8284V29.8243C21.817 29.8228 21.817 29.8213 21.817 29.8199C21.817 29.8185 21.817 29.8173 21.817 29.8159V29.8116C21.8169 29.8102 21.8169 29.8088 21.8169 29.8075C21.8169 29.806 21.8168 29.8046 21.8168 29.8031C21.8168 29.8017 21.8168 29.8005 21.8167 29.7992V29.7951C21.8166 29.7937 21.8166 29.792 21.8166 29.7906L21.8165 29.7867C21.8165 29.785 21.8165 29.7841 21.8164 29.7824C21.8164 29.7807 21.8164 29.7791 21.8164 29.7775V29.7741C21.8163 29.7715 21.8163 29.7686 21.8161 29.7657C21.8161 29.7648 21.8161 29.7639 21.816 29.7629C21.816 29.7611 21.816 29.7593 21.8159 29.7575C21.8159 29.7561 21.8159 29.755 21.8159 29.7537C21.8159 29.7522 21.8158 29.7505 21.8158 29.749V29.7455C21.8157 29.7438 21.8157 29.7424 21.8157 29.7407C21.8156 29.7393 21.8156 29.7379 21.8156 29.7366C21.8155 29.7351 21.8155 29.734 21.8155 29.7325C21.8154 29.7307 21.8154 29.7297 21.8154 29.7281C21.8153 29.7269 21.8153 29.7256 21.8153 29.7243C21.8153 29.7226 21.8153 29.7213 21.8153 29.7196C21.8152 29.7184 21.8152 29.7171 21.8152 29.7157C21.8151 29.7144 21.8151 29.7128 21.8151 29.7115C21.815 29.7102 21.815 29.7089 21.8148 29.7075C21.8148 29.7062 21.8148 29.7045 21.8147 29.7031C21.8147 29.7017 21.8147 29.7005 21.8147 29.6992C21.8147 29.6975 21.8147 29.6964 21.8146 29.6947L21.8145 29.691C21.8145 29.6893 21.8144 29.688 21.8144 29.6863C21.8143 29.6849 21.8143 29.6838 21.8143 29.6826C21.8142 29.6812 21.8142 29.6796 21.8142 29.6782C21.8141 29.6767 21.8141 29.6753 21.814 29.6739C21.814 29.6724 21.814 29.6711 21.8139 29.6698C21.8139 29.6686 21.8138 29.6671 21.8138 29.6658C21.8138 29.6644 21.8137 29.6628 21.8137 29.6614L21.8136 29.6596C21.8135 29.6556 21.8134 29.6516 21.8132 29.6476V29.6451C21.8131 29.6434 21.8131 29.6417 21.813 29.6399L21.8129 29.6369C21.8129 29.6352 21.8128 29.6335 21.8126 29.6318C21.8126 29.6307 21.8126 29.6296 21.8125 29.6285C21.8125 29.6272 21.8124 29.6251 21.8124 29.6238C21.8124 29.6226 21.8124 29.6215 21.8124 29.6202C21.8123 29.6188 21.8121 29.6171 21.8121 29.6157C21.8121 29.6144 21.812 29.6129 21.812 29.6117C21.8119 29.6103 21.8119 29.6088 21.8118 29.6075C21.8118 29.6063 21.8117 29.6049 21.8117 29.6036C21.8116 29.6022 21.8116 29.6003 21.8114 29.599C21.8114 29.5977 21.8113 29.5966 21.8113 29.5953C21.8112 29.5936 21.8112 29.5923 21.8111 29.5906L21.811 29.5875C21.8109 29.5858 21.8109 29.5838 21.8107 29.5821L21.8107 29.5794C21.8106 29.5777 21.8106 29.5754 21.8104 29.5738L21.8103 29.5716C21.8102 29.5696 21.8102 29.5676 21.8101 29.5656L21.81 29.5633C21.8099 29.5614 21.8097 29.5596 21.8097 29.5574C21.8096 29.5568 21.8095 29.5561 21.8096 29.5553L21.8093 29.5492V29.5484C21.8089 29.5411 21.8086 29.5333 21.8083 29.526V29.5251L21.8079 29.5191L21.8078 29.5168L21.8075 29.511C21.8075 29.5101 21.8075 29.5094 21.8074 29.5085C21.8074 29.5068 21.8073 29.5048 21.8072 29.5031L21.8071 29.5002L21.8067 29.495C21.8067 29.494 21.8067 29.493 21.8066 29.492C21.8066 29.4903 21.8066 29.4886 21.8064 29.4869L21.8061 29.4838C21.806 29.4819 21.806 29.4805 21.8059 29.4784C21.8058 29.4775 21.8057 29.4766 21.8058 29.4756L21.8055 29.4702L21.8054 29.4676L21.805 29.4617L21.8049 29.46L21.8046 29.4535V29.4524C21.8036 29.434 21.8025 29.4161 21.8015 29.3977L21.8014 29.3973L21.8011 29.3904L21.801 29.389C21.8009 29.3867 21.8007 29.3843 21.8006 29.382V29.3811C21.8003 29.3788 21.8003 29.3764 21.8002 29.3741L21.8001 29.3729C21.8 29.371 21.7997 29.3682 21.7997 29.3663L21.7996 29.3647L21.7992 29.3584C21.7991 29.3578 21.7991 29.3571 21.7991 29.3565C21.7989 29.3542 21.7988 29.3524 21.7987 29.35L21.7986 29.3489C21.7985 29.3466 21.7984 29.344 21.7982 29.3417V29.3416C21.7965 29.3154 21.7946 29.2889 21.7928 29.2626V29.2618L21.7922 29.2545L21.7921 29.2539C21.792 29.2513 21.7917 29.249 21.7915 29.2465V29.2461C21.7911 29.2409 21.7907 29.2359 21.7904 29.2306L21.7903 29.2299C21.7016 28.0564 21.4053 26.9081 20.915 25.8382C20.7041 25.3826 20.1638 25.1842 19.7082 25.3951C19.2546 25.605 19.0556 26.1419 19.2627 26.5967C21.1394 30.7103 19.326 35.5664 15.2125 37.4431C14.1473 37.9291 12.9902 38.1809 11.8194 38.1816C9.52516 38.1788 7.33686 37.2155 5.78539 35.5255C5.44618 35.1553 4.87116 35.1302 4.50102 35.4693C4.13181 35.8076 4.10565 36.3808 4.44263 36.7513C4.81252 37.1553 5.21479 37.5284 5.64545 37.8668L5.6457 37.8671C5.64962 37.8702 5.65346 37.8731 5.65738 37.8762L5.65746 37.8763C5.65942 37.8778 5.66121 37.8793 5.66326 37.8807L5.66351 37.881C5.66547 37.8825 5.66692 37.8838 5.66897 37.8853L5.66974 37.8859C5.67144 37.8873 5.67349 37.8888 5.67519 37.8903L5.68107 37.8947L5.6815 37.895C5.68337 37.8966 5.68508 37.8979 5.68704 37.8994L5.68712 37.8997C5.68908 37.9011 5.69087 37.9025 5.69292 37.904L5.69334 37.9044C5.71491 37.921 5.73647 37.9377 5.75812 37.9543L5.75854 37.9546C5.76033 37.956 5.76178 37.9572 5.76357 37.9585L5.76493 37.9594C5.76638 37.9606 5.76826 37.962 5.76979 37.9631L5.7709 37.964C5.77235 37.9651 5.77397 37.9665 5.77559 37.9676L5.77712 37.9687C5.77857 37.9698 5.78019 37.9712 5.78181 37.9723L5.78317 37.9734C5.78471 37.9745 5.78607 37.9755 5.78752 37.9766C5.7882 37.9772 5.78888 37.9777 5.78965 37.9781C5.79084 37.9792 5.79263 37.9804 5.794 37.9815L5.79536 37.9825C5.79689 37.9836 5.7986 37.985 5.80013 37.9861L5.80133 37.9871C5.80312 37.9885 5.80456 37.9894 5.80618 37.9908L5.80721 37.9915C5.809 37.9929 5.81045 37.9938 5.81224 37.9952C5.81266 37.9956 5.81317 37.996 5.81368 37.9963L5.81846 38L5.81871 38.0001C5.82067 38.0016 5.82238 38.0029 5.82434 38.0044L5.82545 38.0052C5.82902 38.0078 5.83269 38.0105 5.8361 38.0132L5.83653 38.0135C5.8401 38.0161 5.8436 38.0187 5.84709 38.0214L5.8488 38.0225C5.85076 38.024 5.85238 38.0252 5.85434 38.0266L5.85468 38.0269C5.85613 38.0281 5.858 38.0295 5.85945 38.0306L5.86099 38.0317L5.8655 38.035L5.86704 38.0362L5.87138 38.0394L5.87326 38.0409C5.87479 38.042 5.87616 38.0428 5.8776 38.0439L5.87939 38.0453C5.88059 38.0462 5.88221 38.0474 5.88349 38.0483L5.88596 38.0502C5.88706 38.0509 5.8886 38.052 5.88962 38.0528C5.89039 38.0534 5.89116 38.0539 5.89192 38.0546C5.89329 38.0554 5.89456 38.0565 5.89584 38.0574C5.89653 38.058 5.89755 38.0586 5.89814 38.0591C5.89934 38.0601 5.90104 38.0612 5.90224 38.0622L5.90403 38.0634L5.9082 38.0666C5.90888 38.067 5.90991 38.0677 5.9105 38.0683C5.9117 38.0692 5.91306 38.0702 5.91442 38.0711L5.91664 38.0729C5.918 38.0738 5.91928 38.0748 5.92056 38.0757L5.92312 38.0776L5.92678 38.0802C5.92763 38.0808 5.92857 38.0814 5.92934 38.082C5.93053 38.083 5.93172 38.0839 5.933 38.0847C5.93402 38.0854 5.93513 38.0864 5.93624 38.0872L5.93922 38.0893C5.93999 38.09 5.94101 38.0906 5.94178 38.0912C5.94689 38.0949 5.95184 38.0985 5.95687 38.1022L5.95763 38.1027C5.95908 38.1039 5.96087 38.1051 5.96241 38.1062L5.96385 38.1073C5.96505 38.1081 5.96616 38.109 5.96752 38.1098C5.96846 38.1106 5.96939 38.1113 5.97042 38.112L5.97348 38.1143L5.97655 38.1165L5.97954 38.1186L5.98286 38.1211C5.98388 38.1218 5.98499 38.1225 5.98593 38.1233L5.989 38.1255C5.99019 38.1264 5.99079 38.1269 5.99206 38.1277L5.9953 38.13C5.99633 38.1308 5.99726 38.1315 5.99837 38.1322C5.99948 38.1331 6.0005 38.1338 6.0017 38.1347L6.00451 38.1366C6.0057 38.1374 6.00672 38.1383 6.00792 38.1391L6.01099 38.1414C6.01201 38.142 6.01312 38.1429 6.01405 38.1436L6.01704 38.1457L6.02062 38.1483C6.02164 38.1489 6.02232 38.1494 6.02326 38.1501C6.02471 38.1512 6.02607 38.1521 6.0276 38.1532L6.02939 38.1544C6.03084 38.1555 6.03238 38.1565 6.03383 38.1576L6.03596 38.1591C6.03732 38.1601 6.03877 38.161 6.04005 38.162C6.04081 38.1626 6.0415 38.1631 6.04226 38.1635L6.04635 38.1665L6.04866 38.168L6.05479 38.1725C6.05692 38.1739 6.0588 38.1753 6.06076 38.1766L6.06289 38.1781C6.06459 38.1793 6.06613 38.1804 6.06775 38.1815L6.06732 38.1818L6.07294 38.1858L6.07414 38.1866L6.07951 38.1904L6.08053 38.191L6.08573 38.1947L6.08752 38.1959C6.08922 38.197 6.0905 38.198 6.09221 38.1991L6.094 38.2005C6.09553 38.2015 6.09706 38.2026 6.09851 38.2036L6.10039 38.2049L6.10491 38.2082L6.10687 38.2095C6.10831 38.2106 6.10976 38.2115 6.11121 38.2126L6.11317 38.214C6.11488 38.2152 6.11624 38.2161 6.11786 38.2172L6.11956 38.2184C6.12127 38.2195 6.12297 38.2207 6.12468 38.222L6.12579 38.2227L6.13133 38.2266L6.13218 38.2272C6.13405 38.2285 6.13584 38.2298 6.13772 38.2312L6.13857 38.2318C6.14045 38.2331 6.14266 38.2347 6.14454 38.2359L6.14488 38.2362C6.16448 38.2498 6.18408 38.2631 6.20377 38.2765L6.20411 38.2768C6.20598 38.2781 6.2082 38.2796 6.21025 38.2809L6.21101 38.2815C6.21289 38.2828 6.21476 38.284 6.21664 38.2854L6.21749 38.286C6.21945 38.2874 6.22141 38.2886 6.22337 38.29L6.22371 38.2902C6.22593 38.2917 6.2278 38.2931 6.23002 38.2944L6.23027 38.2947C6.23249 38.2961 6.23445 38.2975 6.23675 38.299L6.23684 38.2991C6.23897 38.3005 6.24093 38.3019 6.24306 38.3032L6.24366 38.3036C6.26999 38.3213 6.2965 38.3389 6.32292 38.3563L6.323 38.3564C6.32743 38.3593 6.33178 38.3622 6.33621 38.3651C6.34056 38.3679 6.34499 38.3709 6.34934 38.3736L6.34976 38.3739C6.35189 38.3753 6.35411 38.3768 6.35607 38.378L6.35616 38.3781C6.35837 38.3796 6.3605 38.381 6.36272 38.3825C7.21934 38.9416 8.15718 39.3651 9.143 39.6384L9.14325 39.6385L9.15058 39.6404L9.15135 39.6407L9.15868 39.6426L9.15902 39.6427C9.16149 39.6434 9.16388 39.6441 9.16644 39.6447L9.16686 39.6448C9.16933 39.6455 9.17189 39.6462 9.17428 39.6469L9.1747 39.647C9.17726 39.6477 9.17956 39.6483 9.18212 39.6489L9.18246 39.649C9.25592 39.669 9.32965 39.6882 9.40362 39.7066L9.40405 39.7067C9.40661 39.7073 9.40908 39.7079 9.41163 39.7085L9.41197 39.7086L9.41956 39.7105L9.41999 39.7106C9.42254 39.7112 9.42501 39.7118 9.4274 39.7123L9.42783 39.7124L9.43524 39.7143L9.43592 39.7144C9.4384 39.7151 9.44104 39.7156 9.44351 39.7163C9.44615 39.717 9.44879 39.7175 9.45135 39.7181H9.45161C9.48612 39.7266 9.52055 39.7347 9.55516 39.7428C9.55771 39.7434 9.56036 39.744 9.56291 39.7446L9.56359 39.7447C9.56615 39.7452 9.56845 39.7458 9.57101 39.7464H9.57135C9.57391 39.7471 9.57638 39.7476 9.57893 39.7482L9.57953 39.7483C9.58209 39.7489 9.58464 39.7494 9.58712 39.7501H9.58737C9.58993 39.7507 9.59249 39.7512 9.59496 39.7519L9.59564 39.752C9.62232 39.7579 9.64882 39.7638 9.67558 39.7697C9.67823 39.7703 9.68078 39.7708 9.68342 39.7715L9.68402 39.7716C9.68632 39.772 9.68854 39.7726 9.69092 39.773L9.69288 39.7735L9.69885 39.7748L9.70064 39.7752L9.70686 39.7765C9.70737 39.7767 9.70797 39.7768 9.70857 39.7769C9.7107 39.7775 9.713 39.7779 9.71521 39.7783L9.71624 39.7786C9.71845 39.7792 9.72075 39.7796 9.72297 39.78L9.72442 39.7804C9.72672 39.7808 9.72911 39.7814 9.73141 39.7818L9.73209 39.7821C9.73473 39.7827 9.7372 39.7831 9.73984 39.7838C9.76652 39.7893 9.79345 39.795 9.82013 39.8003L9.82115 39.8006L9.82814 39.802L9.82916 39.8023C9.83146 39.8027 9.83368 39.8031 9.83615 39.8036L9.83734 39.804C9.83965 39.8044 9.84178 39.8048 9.84425 39.8053L9.84527 39.8056L9.852 39.807L9.85345 39.8073L9.86036 39.8087L9.86112 39.8089L9.8682 39.8103L9.86939 39.8105C9.87169 39.811 9.87408 39.8116 9.87646 39.812L9.87714 39.8121C9.8797 39.8127 9.88183 39.8129 9.88422 39.8135L9.88533 39.8138C9.90663 39.8179 9.92803 39.822 9.94959 39.8261L9.95044 39.8264C9.953 39.8268 9.95521 39.8272 9.95777 39.8277L9.9582 39.8278C9.96067 39.8283 9.96322 39.8287 9.96553 39.8292L9.96689 39.8295C9.96902 39.8299 9.97141 39.8303 9.97362 39.8308L9.97482 39.8311C9.97703 39.8315 9.97925 39.8318 9.98146 39.8323L9.983 39.8326C9.98521 39.8329 9.98734 39.8334 9.98956 39.8338L9.99101 39.8341C9.99322 39.8345 9.99536 39.8348 9.99757 39.8352L9.9991 39.8355C10.0012 39.8359 10.0035 39.8364 10.0058 39.8367L10.0071 39.837C10.0092 39.8374 10.0113 39.8378 10.0136 39.8381L10.0153 39.8385C10.0175 39.8389 10.0198 39.8393 10.022 39.8397L10.0231 39.8399L10.0304 39.8413L10.0312 39.8414C10.0502 39.8448 10.0689 39.8481 10.0878 39.8514C10.0906 39.8519 10.0931 39.8523 10.0958 39.8528L10.0966 39.8529L10.1038 39.8543L10.1049 39.8543C10.1073 39.8548 10.1093 39.8551 10.1116 39.8555L10.1135 39.8559L10.1196 39.8569L10.1215 39.8572L10.1276 39.8583L10.1298 39.8587L10.1356 39.8597L10.1379 39.86L10.1437 39.8611L10.1461 39.8614C10.1481 39.8618 10.1499 39.8621 10.1519 39.8624L10.1539 39.8628C10.1561 39.8632 10.1579 39.8635 10.1601 39.8639L10.162 39.8641C10.1642 39.8646 10.1663 39.8649 10.1685 39.8652L10.1699 39.8655C10.1721 39.8658 10.1743 39.8663 10.1765 39.8666L10.178 39.8669C10.1805 39.8673 10.1828 39.8676 10.1852 39.8681L10.186 39.8681C10.1886 39.8686 10.191 39.869 10.1936 39.8693L10.1942 39.8694L10.2268 39.8748H10.2271L10.2349 39.876L10.2356 39.8761C10.2381 39.8765 10.2404 39.8768 10.2429 39.8773L10.2446 39.8775L10.251 39.8785C10.2515 39.8787 10.2521 39.8787 10.2527 39.8788L10.259 39.8798L10.2609 39.8802L10.2672 39.8812L10.2689 39.8814L10.2751 39.8825L10.2773 39.8828L10.2836 39.8838L10.285 39.8841L10.2919 39.8851L10.2931 39.8854L10.3 39.8864L10.3012 39.8866L10.3079 39.8877L10.3094 39.8879C10.3116 39.8883 10.3141 39.8887 10.3163 39.889L10.3174 39.8891C10.3199 39.8895 10.3225 39.8899 10.3248 39.8902L10.3255 39.8903C10.3281 39.8907 10.3306 39.8911 10.3332 39.8914L10.3336 39.8915C10.3446 39.8932 10.3555 39.8947 10.3664 39.8964C10.369 39.8967 10.3718 39.8971 10.3743 39.8975L10.3762 39.8977C10.3781 39.8981 10.3802 39.8984 10.3823 39.8986L10.3844 39.8989C10.3865 39.8993 10.3885 39.8995 10.3906 39.8998C10.3912 39.8998 10.3919 39.8999 10.3925 39.9C10.3944 39.9004 10.3966 39.9007 10.3985 39.9009L10.4008 39.9012C10.4027 39.9016 10.4044 39.9018 10.4063 39.902L10.4093 39.9024C10.411 39.9027 10.4129 39.9028 10.4145 39.9032C10.4154 39.9033 10.4161 39.9033 10.417 39.9035C10.4189 39.9038 10.4207 39.9039 10.4228 39.9043L10.4252 39.9046C10.4271 39.9049 10.4288 39.9052 10.4307 39.9054L10.4335 39.9057C10.4354 39.9061 10.4369 39.9063 10.4389 39.9065L10.4417 39.9068C10.4436 39.9072 10.4454 39.9074 10.4473 39.9076L10.4495 39.9079C10.4514 39.9083 10.4533 39.9085 10.4552 39.9087L10.4578 39.9091C10.4596 39.9094 10.4615 39.9096 10.4632 39.9098L10.4658 39.9102C10.4676 39.9104 10.4692 39.9106 10.471 39.9109L10.4741 39.9113L10.4811 39.9123L10.4817 39.9124C10.4901 39.9135 10.498 39.9145 10.5064 39.9156L10.5075 39.9157L10.5147 39.9167H10.5154L10.5227 39.9177L10.5241 39.918C10.5263 39.9183 10.5288 39.9186 10.531 39.9189L10.5325 39.9189C10.5347 39.9193 10.5367 39.9195 10.5388 39.9198C10.5395 39.9198 10.5406 39.92 10.5411 39.92C10.543 39.9204 10.5452 39.9206 10.547 39.9208L10.5493 39.9212L10.5549 39.9218L10.5578 39.9222L10.5629 39.9229L10.5661 39.9233C10.5677 39.9235 10.5692 39.9236 10.5708 39.9239C10.5722 39.9241 10.5728 39.9241 10.5741 39.9243L10.5792 39.925L10.5821 39.9253C10.5838 39.9256 10.5857 39.9258 10.5873 39.9259C10.5883 39.9261 10.5892 39.9263 10.5902 39.9264L10.5956 39.927L10.5984 39.9274C10.6002 39.9276 10.602 39.9277 10.6038 39.928L10.6066 39.9283C10.6086 39.9287 10.6105 39.9289 10.6124 39.9291C10.6131 39.9291 10.6141 39.9293 10.6147 39.9293C10.6169 39.9297 10.619 39.9299 10.6213 39.9301L10.6227 39.9304C10.6255 39.9307 10.6281 39.931 10.6307 39.9312L10.6308 39.9313C10.6363 39.9319 10.6419 39.9325 10.6473 39.9332H10.6478L10.6554 39.9342C10.6561 39.9342 10.6568 39.9343 10.6574 39.9345L10.6635 39.9351C10.6643 39.9352 10.6651 39.9353 10.6658 39.9354L10.6716 39.9361L10.6745 39.9364L10.6796 39.9371L10.6826 39.9374C10.6844 39.9375 10.6862 39.9378 10.688 39.938L10.6909 39.9384C10.6926 39.9386 10.6943 39.9387 10.6961 39.939L10.6989 39.9393C10.7007 39.9396 10.7025 39.9396 10.7041 39.9399L10.7074 39.9402C10.709 39.9405 10.7107 39.9407 10.7122 39.9408C10.7133 39.941 10.7143 39.9411 10.7154 39.9412C10.7171 39.9414 10.7187 39.9416 10.7205 39.9418C10.7216 39.942 10.7226 39.942 10.7237 39.9421C10.7252 39.9424 10.727 39.9425 10.7286 39.9427L10.7316 39.9431C10.7334 39.9433 10.7349 39.9434 10.7365 39.9437L10.7401 39.944L10.7445 39.9446L10.7482 39.9449C10.7495 39.9452 10.7511 39.9453 10.7526 39.9455L10.7563 39.9459C10.7581 39.9461 10.7598 39.9462 10.7615 39.9465L10.7641 39.9468C10.766 39.9469 10.7681 39.9472 10.7701 39.9474L10.7723 39.9477C10.783 39.9488 10.7942 39.95 10.8049 39.951L10.8074 39.9513C10.8093 39.9514 10.8114 39.9517 10.8133 39.9519C10.814 39.9519 10.8148 39.952 10.8156 39.9522C10.8173 39.9523 10.8195 39.9525 10.8212 39.9528C10.8221 39.9529 10.8231 39.9529 10.824 39.953C10.8259 39.9533 10.8278 39.9535 10.8296 39.9536L10.8319 39.954C10.8338 39.9541 10.8356 39.9543 10.8375 39.9544L10.8405 39.9547L10.8458 39.9553L10.8485 39.9556C10.8503 39.9558 10.8522 39.9559 10.854 39.9562C10.8547 39.9562 10.856 39.9564 10.8567 39.9564C10.8584 39.9567 10.8606 39.9568 10.8623 39.957L10.8648 39.9573C10.8666 39.9575 10.8682 39.9576 10.87 39.9577C10.871 39.9578 10.8724 39.9581 10.8734 39.9581C10.8749 39.9583 10.8767 39.9584 10.8782 39.9587C10.8792 39.9587 10.8803 39.9587 10.8813 39.9589C10.8831 39.9592 10.8847 39.9593 10.8865 39.9593L10.8894 39.9597C10.8912 39.9598 10.893 39.96 10.8948 39.9601L10.8977 39.9604C10.8995 39.9605 10.901 39.9607 10.9028 39.9609C10.9038 39.961 10.905 39.9611 10.9058 39.9611C10.908 39.9614 10.9099 39.9616 10.9121 39.9617L10.9138 39.962L10.9216 39.9627H10.922C10.9276 39.9633 10.9329 39.9637 10.9385 39.9642C10.9395 39.9642 10.9404 39.9643 10.9415 39.9644C10.9433 39.9645 10.945 39.9648 10.9467 39.9649C10.9473 39.9649 10.9488 39.9651 10.9495 39.9651C10.9513 39.9654 10.9531 39.9655 10.9549 39.9656L10.9582 39.9659C10.9597 39.966 10.9615 39.9662 10.963 39.9663C10.964 39.9663 10.9655 39.9664 10.9664 39.9666C10.9681 39.9667 10.9695 39.9668 10.9711 39.967L10.9749 39.9673L10.9793 39.9677L10.9829 39.9679C10.9844 39.9682 10.9859 39.9683 10.9876 39.9684L10.9913 39.9687L10.9955 39.9691L10.9994 39.9694L11.0036 39.9697L11.0078 39.9701L11.0118 39.9704C11.0131 39.9705 11.0142 39.9707 11.0155 39.9707C11.0171 39.9709 11.0185 39.971 11.02 39.9711L11.0238 39.9714C11.0253 39.9714 11.0268 39.9717 11.0285 39.9718C11.0295 39.9718 11.0308 39.9719 11.0318 39.972L11.0368 39.9724L11.0401 39.9727C11.0419 39.9728 11.044 39.973 11.0457 39.9731L11.048 39.9732C11.0499 39.9735 11.0519 39.9736 11.0539 39.9737C11.0547 39.9738 11.0556 39.9738 11.0564 39.9739C11.0584 39.974 11.0604 39.9743 11.0626 39.9743C11.0633 39.9744 11.0639 39.9745 11.0645 39.9744C11.0667 39.9747 11.0683 39.9748 11.0704 39.9748L11.0729 39.9751C11.0783 39.9755 11.0836 39.9759 11.0891 39.9763L11.0927 39.9766L11.0974 39.9769C11.0985 39.977 11.0997 39.9772 11.1008 39.9772L11.1055 39.9775C11.1065 39.9776 11.108 39.9777 11.1089 39.9777C11.1105 39.9778 11.1123 39.9781 11.114 39.9782C11.1151 39.9782 11.1161 39.9783 11.1172 39.9784C11.1187 39.9785 11.1203 39.9785 11.1219 39.9787L11.126 39.979C11.1273 39.9791 11.1286 39.9793 11.13 39.9793L11.1343 39.9796C11.1355 39.9797 11.1368 39.9799 11.138 39.9799L11.1424 39.9802C11.1436 39.9803 11.1453 39.9805 11.1465 39.9805L11.1504 39.9808C11.1519 39.9809 11.1533 39.9809 11.1548 39.9811L11.1585 39.9814C11.1602 39.9815 11.1615 39.9815 11.1632 39.9817C11.1642 39.9818 11.1657 39.9819 11.1666 39.9819L11.1713 39.9823L11.175 39.9825L11.1797 39.9829L11.1833 39.9831C11.1848 39.9832 11.1861 39.9832 11.1878 39.9834C11.1891 39.9835 11.1902 39.9836 11.1915 39.9836L11.1957 39.984C11.1971 39.9841 11.1983 39.9841 11.1997 39.9842C11.2009 39.9843 11.2023 39.9843 11.2036 39.9845C11.2053 39.9846 11.2063 39.9847 11.208 39.9847L11.2124 39.9851L11.2161 39.9853C11.2175 39.9854 11.2194 39.9856 11.2208 39.9856C11.2228 39.9857 11.2252 39.9859 11.2271 39.986C11.2289 39.9861 11.2307 39.9863 11.2325 39.9863L11.2354 39.9865L11.2406 39.9869C11.242 39.9869 11.2433 39.987 11.2446 39.9871C11.2461 39.9871 11.2474 39.9872 11.2488 39.9874C11.2502 39.9875 11.2516 39.9875 11.2529 39.9876C11.2542 39.9878 11.2555 39.9877 11.257 39.9879C11.2583 39.988 11.2599 39.988 11.2611 39.9881L11.2652 39.9884C11.2665 39.9885 11.268 39.9885 11.2692 39.9887C11.2704 39.9887 11.2721 39.9887 11.2733 39.9889L11.2776 39.9892L11.2816 39.9894C11.283 39.9895 11.2842 39.9895 11.2856 39.9897L11.29 39.9899L11.2939 39.9902C11.2952 39.9902 11.2969 39.9903 11.2983 39.9904C11.2997 39.9904 11.3006 39.9905 11.302 39.9907C11.3035 39.9907 11.305 39.9908 11.3065 39.991C11.3079 39.991 11.309 39.991 11.3104 39.991C11.3119 39.9911 11.3132 39.9913 11.3148 39.9913C11.3158 39.9914 11.3176 39.9916 11.3185 39.9916C11.3199 39.9916 11.3216 39.9916 11.3229 39.9918L11.3269 39.9921C11.3284 39.9921 11.3298 39.9921 11.3314 39.9923C11.3327 39.9923 11.3336 39.9924 11.335 39.9924C11.3365 39.9925 11.3382 39.9927 11.3397 39.9927C11.3408 39.9927 11.3423 39.9927 11.3433 39.9929C11.3451 39.9929 11.347 39.993 11.3487 39.9932L11.3513 39.9933L11.3575 39.9936H11.3598C11.3652 39.9939 11.3708 39.9942 11.3763 39.9944L11.378 39.9945C11.3801 39.9945 11.3824 39.9945 11.3846 39.9947L11.3882 39.995C11.3898 39.995 11.3911 39.995 11.3927 39.995L11.3966 39.9953C11.3981 39.9953 11.3995 39.9954 11.4011 39.9956L11.4048 39.9956C11.4063 39.9956 11.4077 39.9957 11.4092 39.9959C11.4106 39.9959 11.4117 39.9959 11.4129 39.996C11.4146 39.996 11.416 39.9961 11.4176 39.9962C11.419 39.9962 11.4198 39.9962 11.421 39.9963C11.4228 39.9963 11.4241 39.9964 11.4259 39.9964L11.4291 39.9967C11.4309 39.9967 11.4327 39.9968 11.4345 39.9968C11.4355 39.9968 11.4365 39.9969 11.4375 39.9968C11.4393 39.9969 11.4406 39.9969 11.4423 39.9971C11.4437 39.9972 11.4448 39.9972 11.4461 39.9972C11.4475 39.9973 11.4491 39.9973 11.4505 39.9974C11.4519 39.9974 11.453 39.9975 11.4543 39.9975C11.4558 39.9976 11.4573 39.9976 11.459 39.9978C11.46 39.9978 11.4614 39.9978 11.4624 39.9979C11.4642 39.9979 11.4657 39.9979 11.4675 39.9979C11.4686 39.998 11.4696 39.9981 11.4707 39.998C11.4723 39.9981 11.4737 39.9981 11.4752 39.9983C11.4766 39.9983 11.4779 39.9983 11.4792 39.9984C11.4808 39.9984 11.4821 39.9985 11.4837 39.9985C11.485 39.9985 11.486 39.9985 11.4873 39.9985C11.4889 39.9986 11.491 39.9986 11.4925 39.9988C11.4936 39.9988 11.4945 39.9988 11.4955 39.9989C11.4972 39.9989 11.4992 39.999 11.501 39.999L11.5039 39.9991C11.5056 39.9991 11.5071 39.9991 11.5086 39.9991C11.5101 39.9992 11.5109 39.9992 11.5123 39.9992C11.5178 39.9995 11.5233 39.9996 11.5288 39.9998H11.5306C11.5328 39.9999 11.535 39.9999 11.5371 40.0001H11.5404C11.5421 40.0002 11.5434 40.0002 11.5452 40.0003C11.5462 40.0003 11.5481 40.0003 11.5491 40.0004C11.5506 40.0004 11.5522 40.0004 11.5536 40.0005H11.5567C11.5585 40.0006 11.5603 40.0006 11.5621 40.0008H11.5651C11.5669 40.0008 11.5686 40.0008 11.5704 40.0008C11.5715 40.0009 11.5726 40.001 11.5737 40.0009C11.5754 40.001 11.577 40.001 11.5785 40.001L11.5822 40.0011C11.5837 40.0011 11.5853 40.0012 11.5869 40.0012C11.5883 40.0012 11.5891 40.0012 11.5906 40.0013C11.5919 40.0013 11.5936 40.0013 11.5951 40.0014H11.599C11.6004 40.0014 11.6019 40.0014 11.6032 40.0014C11.6044 40.0014 11.606 40.0015 11.6073 40.0015C11.6087 40.0015 11.6099 40.0015 11.6113 40.0016C11.6131 40.0016 11.6139 40.0016 11.6155 40.0017H11.62C11.6213 40.0018 11.6223 40.0018 11.6236 40.0018C11.6252 40.0018 11.6269 40.0019 11.6286 40.0019H11.632C11.6338 40.002 11.6354 40.002 11.6372 40.002L11.6402 40.002H11.6455C11.6465 40.0021 11.6476 40.0022 11.6486 40.0021C11.6505 40.0021 11.6526 40.0022 11.6546 40.0022H11.6568C11.6594 40.0023 11.6618 40.0023 11.6644 40.0023H11.6651C11.6679 40.0024 11.6707 40.0024 11.6735 40.0024C11.6748 40.0025 11.6765 40.0025 11.6778 40.0025H11.6816C11.6829 40.0025 11.6845 40.0025 11.6858 40.0025H11.6901C11.6911 40.0026 11.693 40.0026 11.694 40.0026H11.6982C11.6996 40.0026 11.7012 40.0027 11.7025 40.0027H11.7066C11.708 40.0027 11.7093 40.0027 11.7106 40.0028H11.7188C11.7203 40.0028 11.7219 40.0029 11.7233 40.0029H11.7317C11.7331 40.003 11.7342 40.003 11.7354 40.003H11.7439C11.7453 40.003 11.7467 40.003 11.7481 40.0031H11.765C11.7664 40.0031 11.7672 40.0031 11.7687 40.0031H11.7936C11.7954 40.0032 11.7969 40.0032 11.7987 40.0032H11.8186C17.3414 40.0032 21.8186 35.5261 21.8186 30.0033V29.9657C21.8186 29.9642 21.8186 29.9628 21.8185 29.9613L21.8182 29.958Z" fill="#00BC6E"/>
<path d="M13.6364 29.0909H9.99997C9.4979 29.0909 9.09086 28.6838 9.09086 28.1818C9.09086 27.6797 9.4979 27.2726 9.99997 27.2726H15.4545C15.9566 27.2726 16.3636 26.8656 16.3636 26.3635C16.3636 25.8615 15.9566 25.4544 15.4545 25.4544H9.99997C8.49375 25.4544 7.27271 26.6755 7.27271 28.1817C7.27271 29.6879 8.49375 30.9089 9.99997 30.9089H13.6364C14.1384 30.9089 14.5455 31.316 14.5455 31.8181C14.5455 32.3201 14.1384 32.7272 13.6364 32.7272H8.18182C7.67975 32.7272 7.27271 33.1342 7.27271 33.6363C7.27271 34.1384 7.67975 34.5454 8.18182 34.5454H13.6364C15.1426 34.5454 16.3636 33.3244 16.3636 31.8181C16.3636 30.3119 15.1426 29.0909 13.6364 29.0909Z" fill="#F6EDFF"/>
<path d="M11.8179 23.6367C12.32 23.6367 12.7269 24.0437 12.7269 24.5458V26.3639C12.7269 26.866 12.3199 27.273 11.8178 27.273C11.3157 27.273 10.9087 26.866 10.9087 26.3639V24.5458C10.9088 24.0436 11.3158 23.6367 11.8179 23.6367Z" fill="#F6EDFF"/>
<path d="M11.8179 32.727C12.32 32.727 12.7269 33.134 12.7269 33.6361V35.4543C12.7269 35.9563 12.3199 36.3634 11.8178 36.3634C11.3157 36.3634 10.9087 35.9563 10.9087 35.4543V33.6361C10.9088 33.1339 11.3158 32.727 11.8179 32.727Z" fill="#F6EDFF"/>
<path d="M0.909118 7.27301C1.41119 7.27301 1.81824 7.68006 1.81824 8.18213V33.6366C1.81824 34.1387 1.41119 34.5457 0.909118 34.5457C0.407045 34.5457 0 34.1387 0 33.6366V8.18213C0 7.67997 0.407045 7.27301 0.909118 7.27301Z" fill="#E62939"/>
<path d="M4.54559 10.9088H9.99979C10.5019 10.9088 10.9089 11.3159 10.9089 11.8179C10.9089 12.32 10.5019 12.727 9.99979 12.727H4.54559C4.04352 12.727 3.63647 12.32 3.63647 11.8179C3.63647 11.3158 4.04352 10.9088 4.54559 10.9088Z" fill="#FF3646"/>
<path d="M11.8181 14.5455H17.2723C17.7743 14.5455 18.1814 14.9525 18.1814 15.4546C18.1814 15.9567 17.7743 16.3637 17.2723 16.3637H11.8181C11.316 16.3637 10.9089 15.9567 10.9089 15.4546C10.9089 14.9524 11.316 14.5455 11.8181 14.5455Z" fill="#FF3646"/>
<path d="M4.54559 18.1821H9.99979C10.5019 18.1821 10.9089 18.5892 10.9089 19.0912C10.9089 19.5933 10.5019 20.0004 9.99979 20.0004H4.54559C4.04352 20.0004 3.63647 19.5933 3.63647 19.0912C3.63647 18.5891 4.04352 18.1821 4.54559 18.1821Z" fill="#FF3646"/>
<path d="M22.727 18.1821H28.1812C28.6833 18.1821 29.0903 18.5892 29.0903 19.0912C29.0903 19.5933 28.6833 20.0004 28.1812 20.0004H22.727C22.2249 20.0004 21.8179 19.5933 21.8179 19.0912C21.8179 18.5891 22.2249 18.1821 22.727 18.1821Z" fill="#FF3646"/>
<path d="M28.1816 34.5457H33.6358C34.1378 34.5457 34.5449 34.9528 34.5449 35.4548C34.5449 35.9569 34.1378 36.364 33.6358 36.364H28.1816C27.6795 36.364 27.2725 35.9569 27.2725 35.4548C27.2725 34.9527 27.6795 34.5457 28.1816 34.5457Z" fill="#FF3646"/>
<path d="M28.1816 14.5455H33.6358C34.1378 14.5455 34.5449 14.9525 34.5449 15.4546C34.5449 15.9567 34.1378 16.3637 33.6358 16.3637H28.1816C27.6795 16.3637 27.2725 15.9567 27.2725 15.4546C27.2725 14.9524 27.6795 14.5455 28.1816 14.5455Z" fill="#FF3646"/>
<path d="M17.2726 10.9088H22.7268C23.2289 10.9088 23.636 11.3159 23.636 11.8179C23.636 12.32 23.2289 12.727 22.7268 12.727H17.2726C16.7706 12.727 16.3635 12.32 16.3635 11.8179C16.3635 11.3158 16.7706 10.9088 17.2726 10.9088Z" fill="#FF3646"/>
</g>
<defs>
<clipPath id="clip0_2577_5428">
<rect width="40" height="40" fill="white"/>
</clipPath>
</defs>
</svg>
