<svg width="40" height="41" viewBox="0 0 40 41" fill="none" xmlns="http://www.w3.org/2000/svg">
<path d="M25.8616 17.1155H16.3059L23.447 38.6029L25.5598 37.383C25.7466 37.2751 25.8616 37.0759 25.8616 36.8603V17.1155Z" fill="#FF8B47"/>
<path d="M14.4951 17.1155L19.9999 40.4997C20.1042 40.4997 20.2086 40.4728 20.302 40.4188L23.4471 38.6029V17.1155H14.4951Z" fill="#F9B348"/>
<path d="M14.1382 17.1155V36.8603C14.1382 37.0759 14.2532 37.2752 14.44 37.383L19.6985 40.4189C19.7917 40.4727 19.8958 40.4997 19.9999 40.4997V17.1156H14.1382V17.1155Z" fill="#F3DA49"/>
<path d="M19.6985 13.557L14.4397 16.5928C14.0373 16.8251 14.0373 17.406 14.4397 17.6382L19.6985 20.674C19.8852 20.7818 20.1153 20.7818 20.302 20.674L25.5601 17.6381C25.9624 17.4059 25.9624 16.8251 25.5601 16.5928L20.302 13.5569C20.1153 13.4491 19.8852 13.4491 19.6985 13.557Z" fill="#F9EDA4"/>
<path d="M11.7237 30.0948H2.16797L9.30908 38.6027L11.4219 37.3829C11.6086 37.275 11.7237 37.0757 11.7237 36.8601V30.0948Z" fill="#5515A6"/>
<path d="M0.357178 30.0948L5.862 40.4995C5.96631 40.4995 6.07061 40.4727 6.16405 40.4186L9.30914 38.6027V30.0948H0.357178Z" fill="#793BCC"/>
<path d="M0.000244141 30.0948V36.8601C0.000244141 37.0757 0.115253 37.2751 0.302053 37.3829L5.56052 40.4187C5.6538 40.4726 5.75786 40.4995 5.86201 40.4996V30.0949L0.000244141 30.0948Z" fill="#9255E3"/>
<path d="M5.56052 26.5363L0.301808 29.5721C-0.100603 29.8044 -0.100603 30.3853 0.301808 30.6175L5.56052 33.6533C5.74724 33.7611 5.97734 33.7611 6.16405 33.6533L11.4221 30.6175C11.8245 30.3853 11.8245 29.8045 11.4221 29.5721L6.16405 26.5363C5.97734 26.4285 5.74724 26.4285 5.56052 26.5363Z" fill="#AE7DF0"/>
<path d="M39.9999 4.13928H30.4441L37.5852 38.6027L39.698 37.3829C39.8847 37.275 39.9998 37.0758 39.9998 36.8601L39.9999 4.13928Z" fill="#3B88F5"/>
<path d="M28.6333 4.13928L34.1381 40.4996C34.2424 40.4996 34.3467 40.4727 34.4402 40.4187L37.5853 38.6027V4.13928H28.6333Z" fill="#28ABFA"/>
<path d="M28.2764 4.13928V36.8601C28.2764 37.0758 28.3914 37.2751 28.5782 37.3829L33.8366 40.4188C33.9299 40.4726 34.034 40.4996 34.1381 40.4996V4.13928H28.2764Z" fill="#14CFFF"/>
<path d="M33.8366 0.580753L28.5779 3.61662C28.1755 3.8489 28.1755 4.42974 28.5779 4.66201L33.8366 7.69788C34.0234 7.80564 34.2535 7.80564 34.4402 7.69788L39.6982 4.66209C40.1006 4.42982 40.1006 3.84906 39.6982 3.6167L34.4402 0.580834C34.2534 0.472987 34.0234 0.472987 33.8366 0.580753Z" fill="#8AE7FF"/>
</svg>
