<svg width="32" height="40" viewBox="0 0 32 40" fill="none" xmlns="http://www.w3.org/2000/svg">
<path d="M31.0938 16.6828L17.7578 0.745295C17.0234 -0.129705 15.7188 -0.246893 14.8438 0.487482C14.75 0.565607 14.6641 0.651545 14.5859 0.745295L1.25 16.6828V36.8312H31.0938V16.6828Z" fill="url(#paint0_linear_2577_5484)"/>
<path d="M6.24219 5.50311H26.0938C27.4297 5.50311 28.5156 6.58905 28.5156 7.92499V31.4094C28.5156 32.7453 27.4297 33.8312 26.0938 33.8312H6.24219C4.90625 33.8312 3.82031 32.7453 3.82031 31.4094V7.92499C3.82812 6.58905 4.91406 5.50311 6.24219 5.50311Z" fill="url(#paint1_linear_2577_5484)"/>
<path d="M32 18.9641V36.675C32 38.5109 30.5078 39.9953 28.6719 39.9953H3.66406C1.82813 39.9953 0.34375 38.5031 0.335938 36.675V18.9641C0.335938 18.1125 0.65625 17.3 1.24219 16.6828L14.6641 32.0344C15.3906 32.8625 16.6484 32.9484 17.4844 32.2297C17.5547 32.1672 17.6172 32.1047 17.6797 32.0344L31.0938 16.6828C31.6797 17.3 32 18.1203 32 18.9641Z" fill="url(#paint2_linear_2577_5484)"/>
<path d="M8.14062 8.01093H11.2734C11.7266 8.01093 12.0938 8.37811 12.0938 8.83124V11.9562C12.0938 12.4094 11.7266 12.7766 11.2734 12.7766H8.14062C7.6875 12.7766 7.32031 12.4094 7.32031 11.9562V8.83124C7.32812 8.37811 7.6875 8.01093 8.14062 8.01093Z" fill="url(#paint3_linear_2577_5484)"/>
<path d="M15.6406 9.22186H23.8438C24.4922 9.22186 25.0156 9.7453 25.0156 10.3937C25.0156 11.0422 24.4922 11.5656 23.8438 11.5656H15.6406C14.9922 11.5656 14.4688 11.0422 14.4688 10.3937C14.4688 9.7453 15 9.22186 15.6406 9.22186Z" fill="url(#paint4_linear_2577_5484)"/>
<path d="M8.51563 14.8469H23.8438C24.4922 14.8469 25.0156 15.3703 25.0156 16.0187C25.0156 16.6672 24.4922 17.1906 23.8438 17.1906H8.51563C7.86719 17.1906 7.34375 16.6672 7.34375 16.0187C7.34375 15.3703 7.86719 14.8469 8.51563 14.8469Z" fill="url(#paint5_linear_2577_5484)"/>
<path d="M8.51563 19.5344H23.8438C24.4922 19.5344 25.0156 20.0578 25.0156 20.7062C25.0156 21.3547 24.4922 21.8781 23.8438 21.8781H8.51563C7.86719 21.8781 7.34375 21.3547 7.34375 20.7062C7.34375 20.0578 7.86719 19.5344 8.51563 19.5344Z" fill="url(#paint6_linear_2577_5484)"/>
<defs>
<linearGradient id="paint0_linear_2577_5484" x1="3.02125" y1="12.298" x2="29.323" y2="38.5989" gradientUnits="userSpaceOnUse">
<stop stop-color="#FEF8D7"/>
<stop offset="1" stop-color="#FDE670"/>
</linearGradient>
<linearGradient id="paint1_linear_2577_5484" x1="3.62891" y1="7.11874" x2="28.7148" y2="32.2047" gradientUnits="userSpaceOnUse">
<stop stop-color="#E1F8FE"/>
<stop offset="1" stop-color="#83E2FC"/>
</linearGradient>
<linearGradient id="paint2_linear_2577_5484" x1="3.14234" y1="14.7937" x2="29.2018" y2="40.854" gradientUnits="userSpaceOnUse">
<stop stop-color="#F8DA30"/>
<stop offset="1" stop-color="#FDAB22"/>
</linearGradient>
<linearGradient id="paint3_linear_2577_5484" x1="7.56359" y1="8.2503" x2="11.8505" y2="12.5372" gradientUnits="userSpaceOnUse">
<stop stop-color="#83DEFA"/>
<stop offset="1" stop-color="#17ADF6"/>
</linearGradient>
<linearGradient id="paint4_linear_2577_5484" x1="16.8666" y1="7.51428" x2="22.6255" y2="13.2732" gradientUnits="userSpaceOnUse">
<stop stop-color="#AE71FD"/>
<stop offset="1" stop-color="#974DF5"/>
</linearGradient>
<linearGradient id="paint5_linear_2577_5484" x1="11.5203" y1="11.357" x2="20.843" y2="20.6804" gradientUnits="userSpaceOnUse">
<stop stop-color="#AE71FD"/>
<stop offset="1" stop-color="#974DF5"/>
</linearGradient>
<linearGradient id="paint6_linear_2577_5484" x1="11.5203" y1="16.0445" x2="20.843" y2="25.3679" gradientUnits="userSpaceOnUse">
<stop stop-color="#AE71FD"/>
<stop offset="1" stop-color="#974DF5"/>
</linearGradient>
</defs>
</svg>
