<svg width="40" height="40" viewBox="0 0 40 40" fill="none" xmlns="http://www.w3.org/2000/svg">
<g clip-path="url(#clip0_2577_5499)">
<path d="M4.57957 1.81763H33.6608C35.6685 1.81763 37.296 3.44509 37.296 5.45287V29.0812C37.296 31.089 35.6685 32.7164 33.6608 32.7164H4.57957C2.5718 32.7164 0.944336 31.089 0.944336 29.0812V5.45287C0.944336 3.44509 2.5718 1.81763 4.57957 1.81763Z" fill="#FFA300"/>
<path d="M33.6608 1.81763H5.48839C4.98633 1.81714 4.5791 2.22364 4.57861 2.72547C4.57813 3.22729 4.98439 3.63476 5.48645 3.63525C5.48694 3.63525 5.48767 3.63525 5.48839 3.63525H33.6608C34.6642 3.63622 35.4772 4.44946 35.4784 5.45287V6.36143C35.4784 6.8635 35.8851 7.27024 36.3872 7.27024C36.889 7.27024 37.296 6.8635 37.296 6.36143V5.45262C37.296 3.44509 35.6685 1.81763 33.6608 1.81763Z" fill="#FFD700"/>
<path d="M4.57958 3.63525C5.58347 3.63525 6.3972 4.44899 6.3972 5.45263V7.27025C6.3972 8.27414 5.58347 9.08787 4.57958 9.08787C3.57594 9.08787 2.76196 8.27414 2.76196 7.27025V5.45263C2.76196 4.44899 3.5757 3.63525 4.57958 3.63525Z" fill="#F98B00"/>
<path d="M33.6606 5.45264C34.6645 5.45264 35.4783 6.26637 35.4783 7.27026V30.8988C35.4783 31.9025 34.6645 32.7162 33.6606 32.7162C32.657 32.7162 31.8433 31.9025 31.8433 30.8988V7.27026C31.843 6.26661 32.6568 5.45264 33.6606 5.45264Z" fill="#F98B00"/>
<path d="M9.12341 1.81763C9.62548 1.81763 10.0322 2.22437 10.0322 2.72644V8.17905C10.0322 8.68112 9.62548 9.08786 9.12341 9.08786C8.62159 9.08786 8.21484 8.68112 8.21484 8.17905V2.72644C8.21484 2.22437 8.62159 1.81763 9.12341 1.81763Z" fill="#FFA300"/>
<path d="M12.7587 1.81763C13.2605 1.81763 13.6675 2.22437 13.6675 2.72644V8.17905C13.6675 8.68112 13.2605 9.08786 12.7587 9.08786C12.2568 9.08786 11.8499 8.68112 11.8499 8.17905V2.72644C11.8499 2.22437 12.2568 1.81763 12.7587 1.81763Z" fill="#FFA300"/>
<path d="M6.3972 3.63525H28.2079C30.2157 3.63525 31.8431 5.26272 31.8431 7.27025V30.8988C31.8431 32.9063 30.2157 34.5338 28.2079 34.5338H6.3972C4.38943 34.5338 2.76196 32.9063 2.76196 30.8988V7.27025C2.76196 5.26272 4.38943 3.63525 6.3972 3.63525Z" fill="#B8C2FF"/>
<path d="M8.21483 5.45264H30.0255C32.0333 5.45264 33.6608 7.0801 33.6608 9.08787V32.7162C33.6608 34.724 32.0333 36.3514 30.0255 36.3514H8.21483C6.20705 36.3514 4.57959 34.724 4.57959 32.7162V9.08787C4.57959 7.08034 6.20705 5.45264 8.21483 5.45264Z" fill="#CCD4FF"/>
<path d="M10.0322 7.27026H31.8432C33.8509 7.27026 35.4784 8.89773 35.4784 10.9055V34.5338C35.4784 36.5416 33.8509 38.1691 31.8432 38.1691H10.0322C8.02468 38.1691 6.39722 36.5416 6.39722 34.5338V10.9055C6.39722 8.89773 8.02468 7.27026 10.0322 7.27026Z" fill="#DFE5FF"/>
<path d="M30.0256 9.08789C31.0295 9.08789 31.8432 9.90162 31.8432 10.9055V34.5338C31.8432 35.5377 31.0295 36.3514 30.0256 36.3514C29.022 36.3514 28.2083 35.5377 28.2083 34.5338V10.9055C28.208 9.90162 29.0217 9.08789 30.0256 9.08789Z" fill="#CCD4FF"/>
<path d="M30.0256 25.4459H33.6609C34.6648 25.4459 35.4785 26.2597 35.4785 27.2635C35.4785 28.2674 34.6648 29.0812 33.6609 29.0812H30.0256C29.022 29.0812 28.2083 28.2674 28.2083 27.2635C28.208 26.2597 29.0217 25.4459 30.0256 25.4459Z" fill="#CCD4FF"/>
<path d="M26.3905 9.08787H4.57957C2.57204 9.08787 0.944336 7.46041 0.944336 5.45264V36.3514C0.944336 38.3592 2.57204 39.9867 4.57957 39.9867H26.3905C28.398 39.9867 30.0255 38.3592 30.0255 36.3514V12.7231C30.0255 10.7153 28.398 9.08787 26.3905 9.08787Z" fill="#FFEA21"/>
<path d="M26.3905 9.08789H5.48839C4.98633 9.08741 4.5791 9.49391 4.57861 9.99573C4.57813 10.4976 4.98439 10.905 5.48645 10.9055C5.48694 10.9055 5.48767 10.9055 5.48839 10.9055H26.3905C27.3939 10.9067 28.2069 11.7197 28.2081 12.7231V15.4496C28.2081 15.9514 28.6149 16.3581 29.117 16.3581C29.6188 16.3581 30.0255 15.9514 30.0255 15.4496V12.7231C30.0255 10.7156 28.3981 9.08789 26.3905 9.08789Z" fill="#FFFC74"/>
<path d="M5.4884 10.9055C5.99022 10.9055 6.39721 11.3123 6.39721 11.8143V39.0779C6.39721 39.5797 5.99022 39.9867 5.4884 39.9867C4.98633 39.9867 4.57959 39.5797 4.57959 39.0779V11.8143C4.57959 11.3123 4.98633 10.9055 5.4884 10.9055Z" fill="#FFD700"/>
<path d="M9.12341 10.9055C9.62548 10.9055 10.0322 11.3123 10.0322 11.8143V39.0779C10.0322 39.5797 9.62548 39.9867 9.12341 39.9867C8.62159 39.9867 8.21484 39.5797 8.21484 39.0779V11.8143C8.21484 11.3123 8.62159 10.9055 9.12341 10.9055Z" fill="#FFD700"/>
<path d="M7.30578 10.9055C7.80785 10.9055 8.21459 11.3123 8.21459 11.8143V39.0779C8.21459 39.5797 7.80785 39.9867 7.30578 39.9867C6.80396 39.9867 6.39722 39.5797 6.39722 39.0779V11.8143C6.39722 11.3123 6.80396 10.9055 7.30578 10.9055Z" fill="#FFFC74"/>
<path d="M10.941 10.9055C11.4429 10.9055 11.8498 11.3123 11.8498 11.8143V39.0779C11.8498 39.5797 11.4429 39.9867 10.941 39.9867C10.4392 39.9867 10.0322 39.5797 10.0322 39.0779V11.8143C10.0322 11.3123 10.4392 10.9055 10.941 10.9055Z" fill="#FFFC74"/>
<path d="M28.208 29.0812C27.759 29.0815 27.3258 28.9151 26.9923 28.6143L8.81639 12.2562C8.06984 11.5854 8.00872 10.4362 8.67959 9.6899C9.35071 8.94335 10.4996 8.88199 11.2462 9.5531C11.2469 9.55359 11.2476 9.55432 11.2481 9.5548L29.4241 25.9131C30.1699 26.5847 30.2303 27.7339 29.5587 28.48C29.214 28.8627 28.7231 29.0812 28.208 29.0812Z" fill="#FFD700"/>
<path d="M37.296 27.2636H31.4209C30.0728 27.2648 28.7726 26.7659 27.7714 25.8631L11.8375 11.5213C10.6888 10.4873 10.0327 9.0146 10.0322 7.46912V1.81762C10.0322 0.813733 10.846 0 11.8498 0C12.8537 0 13.6675 0.813733 13.6675 1.81762V7.46912C13.6672 7.98355 13.8853 8.47373 14.2675 8.81814L30.205 23.1617C30.538 23.4629 30.9715 23.6293 31.4209 23.6286H37.296C38.2997 23.6281 39.1139 24.4416 39.1141 25.4455C39.1146 26.4491 38.3011 27.2633 37.2975 27.2636C37.2968 27.2636 37.2963 27.2636 37.296 27.2636Z" fill="#14A142"/>
<path d="M30.0255 27.2635C29.5766 27.2638 29.1434 27.0974 28.8099 26.7966L10.6339 10.4386C9.88811 9.76695 9.82796 8.61778 10.4996 7.87196C11.1709 7.12638 12.3199 7.06599 13.0657 7.73711L31.2414 24.0952C31.9874 24.7668 32.0478 25.916 31.376 26.662C31.0313 27.045 30.5407 27.2635 30.0255 27.2635Z" fill="#4CC66E"/>
<path d="M22.7553 20.721C22.3064 20.7212 21.8732 20.5548 21.5395 20.2543L16.0869 15.3464C15.3406 14.6751 15.2799 13.5262 15.951 12.7799C16.6224 12.0338 17.7716 11.9729 18.5176 12.6443C18.5179 12.6445 18.5181 12.6448 18.5184 12.645L23.9712 17.5529C24.7173 18.2245 24.7774 19.3736 24.1058 20.1197C23.7612 20.5024 23.2705 20.721 22.7553 20.721Z" fill="#84D89C"/>
</g>
<defs>
<clipPath id="clip0_2577_5499">
<rect width="40" height="40" fill="white"/>
</clipPath>
</defs>
</svg>
