<svg width="40" height="40" viewBox="0 0 40 40" fill="none" xmlns="http://www.w3.org/2000/svg">
<g clip-path="url(#clip0_2577_5526)">
<path d="M38.1653 12.1569L33.8826 12.549V4.31372H38.1653C38.7455 4.31372 39.2159 4.78407 39.2159 5.36431V11.1063C39.2159 11.6865 38.7455 12.1569 38.1653 12.1569Z" fill="url(#paint0_linear_2577_5526)"/>
<path d="M38.1653 20L33.8826 20.3922V12.1569H38.1653C38.7455 12.1569 39.2159 12.6272 39.2159 13.2074V18.9495C39.2159 19.5296 38.7455 20 38.1653 20Z" fill="url(#paint1_linear_2577_5526)"/>
<path d="M38.1653 27.8431L33.8826 28.2353V20H38.1653C38.7455 20 39.2159 20.4704 39.2159 21.0506V26.7926C39.2159 27.3728 38.7455 27.8431 38.1653 27.8431Z" fill="url(#paint2_linear_2577_5526)"/>
<path d="M38.1653 35.6863H33.8826V27.8431H38.1653C38.7455 27.8431 39.2159 28.3135 39.2159 28.8937V34.6358C39.2159 35.2159 38.7455 35.6863 38.1653 35.6863Z" fill="url(#paint3_linear_2577_5526)"/>
<path d="M34.8499 4.31372H33.8826V12.1569H38.1653C38.7455 12.1569 39.2159 11.6865 39.2159 11.1063V8.67968L34.8499 4.31372Z" fill="url(#paint4_linear_2577_5526)"/>
<path d="M34.8499 12.1569H33.8826V20H38.1653C38.7455 20 39.2159 19.5296 39.2159 18.9494V16.5228L34.8499 12.1569Z" fill="url(#paint5_linear_2577_5526)"/>
<path d="M34.8499 27.8431H33.8826V35.6863H38.1653C38.7455 35.6863 39.2159 35.2159 39.2159 34.6357V32.2091L34.8499 27.8431Z" fill="url(#paint6_linear_2577_5526)"/>
<path d="M33.8826 32.1569V35.6863H38.1653C38.7455 35.6863 39.2159 35.2159 39.2159 34.6357V32.1569H33.8826Z" fill="url(#paint7_linear_2577_5526)"/>
<path d="M34.8499 20H33.8826V27.8431H38.1653C38.7455 27.8431 39.2159 27.3728 39.2159 26.7926V24.366L34.8499 20Z" fill="url(#paint8_linear_2577_5526)"/>
<path d="M33.8826 24.3137V27.8431H38.1653C38.7455 27.8431 39.2159 27.3728 39.2159 26.7925V24.3137H33.8826Z" fill="url(#paint9_linear_2577_5526)"/>
<path d="M33.8826 16.4706V20H38.1653C38.7455 20 39.2159 19.5296 39.2159 18.9494V16.4706H33.8826Z" fill="url(#paint10_linear_2577_5526)"/>
<path d="M33.8826 8.62744V12.1569H38.1653C38.7455 12.1569 39.2159 11.6865 39.2159 11.1063V8.62744H33.8826Z" fill="url(#paint11_linear_2577_5526)"/>
<path d="M0.784424 37.3044V2.69561C0.784424 1.2069 1.99133 0 3.48003 0H32.1918C33.6806 0 34.8874 1.2069 34.8874 2.69561V37.3044C34.8874 38.7932 33.6805 40 32.1918 40H3.48003C1.99133 40 0.784424 38.7931 0.784424 37.3044Z" fill="url(#paint12_linear_2577_5526)"/>
<path d="M3.92334 0H7.06216V40H3.92334V0Z" fill="url(#paint13_linear_2577_5526)"/>
<path d="M0.784424 25.2401V37.3043C0.784424 38.7931 1.99133 40 3.48003 40H32.1918C33.6806 40 34.8874 38.7931 34.8874 37.3043V25.2401H0.784424Z" fill="url(#paint14_linear_2577_5526)"/>
<path d="M20.816 26.9074C26.5335 26.9074 31.1684 22.2725 31.1684 16.555C31.1684 10.8376 26.5335 6.20264 20.816 6.20264C15.0985 6.20264 10.4636 10.8376 10.4636 16.555C10.4636 22.2725 15.0985 26.9074 20.816 26.9074Z" fill="url(#paint15_linear_2577_5526)"/>
<path d="M34.8873 21.3348L23.9332 10.3807C23.2025 9.51913 22.1126 8.97168 20.8943 8.97168C18.6941 8.97168 16.9104 10.7554 16.9104 12.9556C16.9104 14.1738 17.4578 15.2637 18.3193 15.9944L34.8873 32.5624L34.8873 21.3348Z" fill="url(#paint16_linear_2577_5526)"/>
<path d="M29.4695 33.7975H12.1624C11.5141 33.7975 10.9885 33.2719 10.9885 32.6236V30.7603C10.9885 30.112 11.5141 29.5864 12.1624 29.5864H29.4695C30.1178 29.5864 30.6434 30.112 30.6434 30.7603V32.6236C30.6434 33.272 30.1178 33.7975 29.4695 33.7975Z" fill="url(#paint17_linear_2577_5526)"/>
<path d="M26.2843 20.2813C24.8891 18.9311 22.9894 18.0996 20.8945 18.0996C18.7996 18.0996 16.8999 18.9311 15.5047 20.2813C15.0539 20.7175 14.8069 21.3233 14.8069 21.9507C14.8069 22.7164 15.1741 23.3962 15.7419 23.8242L31.9178 40.0001H32.1918C33.6806 40.0001 34.8874 38.7932 34.8874 37.3045V28.8845L26.2843 20.2813Z" fill="url(#paint18_linear_2577_5526)"/>
<path d="M20.816 16.861C23.0162 16.861 24.7999 15.0774 24.7999 12.8771C24.7999 10.6769 23.0162 8.89319 20.816 8.89319C18.6157 8.89319 16.832 10.6769 16.832 12.8771C16.832 15.0774 18.6157 16.861 20.816 16.861Z" fill="url(#paint19_linear_2577_5526)"/>
<path d="M20.816 16.861C23.0162 16.861 24.7999 15.0774 24.7999 12.8771C24.7999 10.6769 23.0162 8.89319 20.816 8.89319C18.6157 8.89319 16.832 10.6769 16.832 12.8771C16.832 15.0774 18.6157 16.861 20.816 16.861Z" fill="url(#paint20_linear_2577_5526)"/>
<path d="M17.0731 24.2168H24.5591C25.854 24.2168 26.9037 23.1671 26.9037 21.8722C26.9037 21.2448 26.6567 20.639 26.2059 20.2028C24.8107 18.8527 22.911 18.0211 20.8161 18.0211C18.7212 18.0211 16.8215 18.8526 15.4263 20.2028C14.9755 20.639 14.7285 21.2448 14.7285 21.8722C14.7285 23.1671 15.7782 24.2168 17.0731 24.2168Z" fill="url(#paint21_linear_2577_5526)"/>
<path d="M14.7285 21.8722C14.7285 23.1671 15.7782 24.2169 17.0731 24.2169H24.5592C25.8541 24.2169 26.9038 23.1671 26.9038 21.8722C26.9038 21.3336 26.7213 20.8114 26.3846 20.3982H15.2477C14.9109 20.8114 14.7285 21.3337 14.7285 21.8722Z" fill="url(#paint22_linear_2577_5526)"/>
</g>
<defs>
<linearGradient id="paint0_linear_2577_5526" x1="32.794" y1="4.98384" x2="39.4113" y2="11.6011" gradientUnits="userSpaceOnUse">
<stop stop-color="#76CCF8"/>
<stop offset="0.833" stop-color="#518EF8"/>
<stop offset="1" stop-color="#4981F8"/>
</linearGradient>
<linearGradient id="paint1_linear_2577_5526" x1="32.794" y1="12.827" x2="39.4113" y2="19.4442" gradientUnits="userSpaceOnUse">
<stop stop-color="#BCE097"/>
<stop offset="1" stop-color="#7DC03A"/>
</linearGradient>
<linearGradient id="paint2_linear_2577_5526" x1="32.794" y1="20.6701" x2="39.4113" y2="27.2874" gradientUnits="userSpaceOnUse">
<stop stop-color="#F7E07D"/>
<stop offset="1" stop-color="#E69642"/>
</linearGradient>
<linearGradient id="paint3_linear_2577_5526" x1="32.8921" y1="28.4152" x2="39.5093" y2="35.0325" gradientUnits="userSpaceOnUse">
<stop stop-color="#DC4955"/>
<stop offset="1" stop-color="#C4237C"/>
</linearGradient>
<linearGradient id="paint4_linear_2577_5526" x1="38.5492" y1="8.23529" x2="34.3515" y2="8.23529" gradientUnits="userSpaceOnUse">
<stop stop-color="#4071F7" stop-opacity="0"/>
<stop offset="1" stop-color="#30569F"/>
</linearGradient>
<linearGradient id="paint5_linear_2577_5526" x1="38.5492" y1="16.0784" x2="34.3515" y2="16.0784" gradientUnits="userSpaceOnUse">
<stop stop-color="#8CC951" stop-opacity="0"/>
<stop offset="1" stop-color="#3E6E66"/>
</linearGradient>
<linearGradient id="paint6_linear_2577_5526" x1="38.5492" y1="31.7647" x2="34.3515" y2="31.7647" gradientUnits="userSpaceOnUse">
<stop stop-color="#8A1958" stop-opacity="0"/>
<stop offset="1" stop-color="#8A1958"/>
</linearGradient>
<linearGradient id="paint7_linear_2577_5526" x1="36.5492" y1="33.6209" x2="36.5492" y2="35.3987" gradientUnits="userSpaceOnUse">
<stop stop-color="#8A1958" stop-opacity="0"/>
<stop offset="1" stop-color="#8A1958"/>
</linearGradient>
<linearGradient id="paint8_linear_2577_5526" x1="38.5492" y1="23.9216" x2="34.3515" y2="23.9216" gradientUnits="userSpaceOnUse">
<stop stop-color="#D52C1C" stop-opacity="0"/>
<stop offset="0.28" stop-color="#D12C1E" stop-opacity="0.28"/>
<stop offset="0.5735" stop-color="#C42C23" stop-opacity="0.574"/>
<stop offset="0.8721" stop-color="#AF2B2C" stop-opacity="0.872"/>
<stop offset="1" stop-color="#A42B31"/>
</linearGradient>
<linearGradient id="paint9_linear_2577_5526" x1="36.5492" y1="25.9869" x2="36.5492" y2="28.2377" gradientUnits="userSpaceOnUse">
<stop stop-color="#D52C1C" stop-opacity="0"/>
<stop offset="0.28" stop-color="#D12C1E" stop-opacity="0.28"/>
<stop offset="0.5735" stop-color="#C42C23" stop-opacity="0.574"/>
<stop offset="0.8721" stop-color="#AF2B2C" stop-opacity="0.872"/>
<stop offset="1" stop-color="#A42B31"/>
</linearGradient>
<linearGradient id="paint10_linear_2577_5526" x1="36.5492" y1="17.9347" x2="36.5492" y2="19.7124" gradientUnits="userSpaceOnUse">
<stop stop-color="#8CC951" stop-opacity="0"/>
<stop offset="1" stop-color="#3E6E66"/>
</linearGradient>
<linearGradient id="paint11_linear_2577_5526" x1="36.5492" y1="10.0915" x2="36.5492" y2="11.8692" gradientUnits="userSpaceOnUse">
<stop stop-color="#4071F7" stop-opacity="0"/>
<stop offset="1" stop-color="#30569F"/>
</linearGradient>
<linearGradient id="paint12_linear_2577_5526" x1="-1.08201" y1="1.08212" x2="36.2923" y2="38.4563" gradientUnits="userSpaceOnUse">
<stop stop-color="#5A5A5A"/>
<stop offset="1" stop-color="#464646"/>
</linearGradient>
<linearGradient id="paint13_linear_2577_5526" x1="7.05903" y1="20" x2="3.60718" y2="20" gradientUnits="userSpaceOnUse">
<stop stop-color="#5A5A5A"/>
<stop offset="1" stop-color="#464646"/>
</linearGradient>
<linearGradient id="paint14_linear_2577_5526" x1="17.836" y1="32.3137" x2="17.836" y2="39.5362" gradientUnits="userSpaceOnUse">
<stop stop-color="#464646" stop-opacity="0"/>
<stop offset="1" stop-color="#202020"/>
</linearGradient>
<linearGradient id="paint15_linear_2577_5526" x1="27.0599" y1="22.799" x2="11.5273" y2="7.26632" gradientUnits="userSpaceOnUse">
<stop stop-color="#5A5A5A"/>
<stop offset="1" stop-color="#464646"/>
</linearGradient>
<linearGradient id="paint16_linear_2577_5526" x1="29.5532" y1="21.128" x2="18.7297" y2="18.3567" gradientUnits="userSpaceOnUse">
<stop stop-color="#464646" stop-opacity="0"/>
<stop offset="1" stop-color="#202020"/>
</linearGradient>
<linearGradient id="paint17_linear_2577_5526" x1="20.816" y1="30.8236" x2="20.816" y2="33.8864" gradientUnits="userSpaceOnUse">
<stop stop-color="#EEF4FF"/>
<stop offset="1" stop-color="#CFE7FD"/>
</linearGradient>
<linearGradient id="paint18_linear_2577_5526" x1="27.4146" y1="31.1975" x2="21.1401" y2="17.7073" gradientUnits="userSpaceOnUse">
<stop stop-color="#464646" stop-opacity="0"/>
<stop offset="1" stop-color="#202020"/>
</linearGradient>
<linearGradient id="paint19_linear_2577_5526" x1="18.6026" y1="10.6638" x2="22.0276" y2="14.0887" gradientUnits="userSpaceOnUse">
<stop stop-color="#EEF4FF"/>
<stop offset="1" stop-color="#CFE7FD"/>
</linearGradient>
<linearGradient id="paint20_linear_2577_5526" x1="20.816" y1="12.2936" x2="20.816" y2="16.0586" gradientUnits="userSpaceOnUse">
<stop stop-color="#8AAADC" stop-opacity="0"/>
<stop offset="1" stop-color="#8AAADC"/>
</linearGradient>
<linearGradient id="paint21_linear_2577_5526" x1="20.8161" y1="19.8752" x2="20.8161" y2="23.6298" gradientUnits="userSpaceOnUse">
<stop stop-color="#EEF4FF"/>
<stop offset="1" stop-color="#CFE7FD"/>
</linearGradient>
<linearGradient id="paint22_linear_2577_5526" x1="20.8161" y1="21.5409" x2="20.8161" y2="23.8551" gradientUnits="userSpaceOnUse">
<stop stop-color="#8AAADC" stop-opacity="0"/>
<stop offset="1" stop-color="#8AAADC"/>
</linearGradient>
<clipPath id="clip0_2577_5526">
<rect width="40" height="40" fill="white"/>
</clipPath>
</defs>
</svg>
