<svg width="40" height="40" viewBox="0 0 40 40" fill="none" xmlns="http://www.w3.org/2000/svg">
<g clip-path="url(#clip0_2577_5560)">
<path d="M23.6115 1.39059C21.5608 -0.463529 18.4392 -0.463529 16.3885 1.39059L1.25647 15.0719C0.456471 15.7952 0 16.8233 0 17.9018V36.692C0 38.519 1.48102 40 3.308 40H36.692C38.519 40 40 38.519 40 36.692V17.9018C40 16.8233 39.5435 15.7952 38.7435 15.0719L23.6115 1.39059Z" fill="url(#paint0_linear_2577_5560)"/>
<path d="M23.6115 1.39059C21.5608 -0.463529 18.4392 -0.463529 16.3885 1.39059L1.25647 15.0719C0.456471 15.7952 0 16.8233 0 17.9018V36.692C0 38.519 1.48102 40 3.308 40H36.692C38.519 40 40 38.519 40 36.692V17.9018C40 16.8233 39.5435 15.7952 38.7435 15.0719L23.6115 1.39059Z" fill="url(#paint1_linear_2577_5560)"/>
<path d="M38.7435 15.0719L27.5479 4.94958V34.0032H40V17.9018C40 16.8233 39.5435 15.7952 38.7435 15.0719Z" fill="url(#paint2_linear_2577_5560)"/>
<path d="M23.0592 4.23672C21.3221 2.66621 18.678 2.66621 16.941 4.23672L4.12315 15.8257C3.4455 16.4383 3.05884 17.3092 3.05884 18.2228V34.1392C3.05884 35.6867 4.31335 36.9412 5.86088 36.9412H34.1391C35.6867 36.9412 36.9412 35.6867 36.9412 34.1392V18.2228C36.9412 17.3092 36.5545 16.4384 35.8769 15.8257L23.0592 4.23672Z" fill="url(#paint3_linear_2577_5560)"/>
<path d="M36.9412 18.2228C36.9412 17.3092 36.5545 16.4384 35.8769 15.8257L27.5479 8.29517V34.0033H36.9412V18.2228Z" fill="url(#paint4_linear_2577_5560)"/>
<path d="M32.3814 18.3948C32.3814 19.9214 31.7927 22.738 31.7927 22.738C30.0249 27.5364 25.412 30.9585 20 30.9585C13.0612 30.9585 7.43628 25.3336 7.43628 18.3948C7.43628 17.7657 7.48255 17.0995 7.57181 16.4081C7.57181 16.4081 8.36514 13.2025 8.95542 11.5435C9.48318 10.0602 10.7578 7.20306 10.7578 7.20306C13.0536 3.17961 16.3445 0 20 0C25.3578 0 29.9324 6.83059 31.7386 13.1376C31.7386 13.1376 32.3814 16.814 32.3814 18.3948Z" fill="url(#paint5_linear_2577_5560)"/>
<path d="M29.9777 8.58846C29.6798 8.77591 29.3817 8.96249 29.0841 9.14689C29.0574 9.16328 29.0152 9.15442 28.9984 9.12979C28.308 8.11128 27.623 7.07316 26.9634 6.04571C26.6693 5.58414 26.0688 5.43881 25.5978 5.71379C24.5382 6.3272 23.4542 6.93693 22.3776 7.52508C22.35 7.54006 22.3087 7.52877 22.2933 7.50344C21.6614 6.45065 21.0346 5.37646 20.4311 4.3123C20.1629 3.83544 19.5715 3.65724 19.0858 3.90587C17.995 4.45975 16.8791 5.00893 15.7705 5.53747C15.742 5.55097 15.7012 5.53732 15.6872 5.51112C15.19 4.56963 14.6992 3.61426 14.2235 2.66516C13.9802 2.89489 13.7414 3.13638 13.5077 3.38861C13.9409 4.24822 14.3856 5.11081 14.8355 5.96281C15.0939 6.44806 15.6856 6.64406 16.184 6.40846C17.3012 5.87575 18.4244 5.32304 19.5238 4.76485C19.5477 4.75269 19.5778 4.76163 19.5917 4.78649C20.1999 5.85904 20.8307 6.94014 21.4677 8.00116C21.6098 8.23622 21.831 8.3945 22.0773 8.4614C22.324 8.5283 22.5958 8.50359 22.8384 8.37214C23.9234 7.77936 25.0144 7.16579 26.0824 6.54751C26.1056 6.5341 26.1361 6.54148 26.1513 6.5654C26.8162 7.601 27.5057 8.64587 28.2014 9.67238C28.5114 10.1263 29.121 10.2563 29.5906 9.96759C29.8576 9.80218 30.1248 9.63544 30.3918 9.46759C30.2589 9.17206 30.1209 8.87881 29.9777 8.58846Z" fill="url(#paint6_linear_2577_5560)"/>
<path d="M28.6323 25.6554C28.3135 25.211 27.7058 25.0987 27.2504 25.3989C26.2265 26.0689 25.177 26.737 24.1329 27.384C24.106 27.4005 24.0639 27.3914 24.0471 27.3669C23.3561 26.3473 22.6711 25.3092 22.0121 24.2827C21.718 23.8213 21.1177 23.6758 20.6465 23.9508C19.587 24.5641 18.5031 25.1738 17.4261 25.7621C17.3986 25.7771 17.3573 25.7658 17.3419 25.7405C16.7098 24.6874 16.083 23.6132 15.4796 22.5492C15.2115 22.0725 14.6199 21.8943 14.1344 22.1428C13.0438 22.6965 11.9279 23.2457 10.8191 23.7744C10.7906 23.7879 10.7498 23.7743 10.7358 23.7481C10.1612 22.66 9.59375 21.5529 9.05014 20.459C8.80834 19.9681 8.22732 19.7577 7.72904 19.9791C7.66842 20.0058 7.60701 20.0322 7.54614 20.0589C7.58983 20.3891 7.64661 20.7152 7.71548 21.0368C7.84991 20.9781 7.98497 20.9198 8.11885 20.8609C8.14355 20.85 8.17344 20.8607 8.18606 20.8865C8.73406 21.989 9.30505 23.1033 9.8841 24.1998C10.1425 24.685 10.7341 24.881 11.2326 24.6454C12.3501 24.1126 13.4732 23.5598 14.5724 23.0017C14.5963 22.9896 14.6264 22.9986 14.6403 23.0234C15.2483 24.0957 15.8792 25.1768 16.5163 26.238C16.6584 26.4731 16.8796 26.6314 17.1259 26.6983C17.3726 26.7652 17.6444 26.7405 17.8869 26.609C18.9723 26.0161 20.0632 25.4025 21.1309 24.7843C21.1541 24.7708 21.1846 24.7783 21.1999 24.8022C21.8641 25.8368 22.5535 26.8816 23.25 27.9092C23.5599 28.3631 24.1696 28.4931 24.6392 28.2043C25.6915 27.5523 26.7476 26.8798 27.7796 26.2046C27.8021 26.1897 27.8333 26.1954 27.8501 26.2189C28.1407 26.6207 28.436 27.0234 28.7331 27.4256C28.9676 27.1988 29.1932 26.9629 29.4095 26.7185C29.1482 26.3641 28.8883 26.0093 28.6323 25.6554Z" fill="url(#paint7_linear_2577_5560)"/>
<path d="M7.66992 15.7421C15.3495 19.1333 23.6165 21.3487 31.9603 22.2495C32.3515 21.0347 32.5636 19.7396 32.5636 18.3948C32.5636 17.0263 32.3447 15.4821 31.9402 13.8847C24.5007 13.1252 17.1496 11.0625 10.4066 7.8396C9.05024 10.3818 8.08827 13.2008 7.66992 15.7421Z" fill="url(#paint8_linear_2577_5560)"/>
<path d="M11.0821 12.569C11.6534 12.4193 11.954 11.836 11.7824 11.2821C11.6108 10.7281 11.0373 10.4023 10.4727 10.5381C10.3481 10.0787 9.94732 9.76293 9.49289 9.72693C9.02222 10.8026 8.62285 11.9018 8.30481 12.9874C8.51563 13.0754 8.75006 13.106 8.97893 13.0592C9.1565 13.6347 9.79752 13.9988 10.3819 13.8561C10.9662 13.7134 11.2668 13.1301 11.0821 12.569Z" fill="url(#paint9_linear_2577_5560)"/>
<path d="M16.3015 14.9678C16.8452 14.7417 17.0646 14.1233 16.8221 13.5983C16.5797 13.0733 15.9712 12.8292 15.4328 13.041C15.2092 12.5073 14.6093 12.2409 14.063 12.4327C13.5167 12.6244 13.2263 13.2128 13.4441 13.7607C12.8844 13.9462 12.5939 14.5345 12.8251 15.0887C13.0563 15.6428 13.7268 15.9406 14.2925 15.7403C14.5432 16.2854 15.2232 16.5582 15.7808 16.3373C16.3383 16.1164 16.5577 15.498 16.3015 14.9678Z" fill="url(#paint10_linear_2577_5560)"/>
<path d="M21.7779 16.6381C22.286 16.341 22.4204 15.6988 22.1101 15.2111C21.7999 14.7234 21.1652 14.5635 20.661 14.8458C20.3686 14.3472 19.7402 14.1643 19.226 14.428C18.7117 14.6918 18.5029 15.3139 18.791 15.8271C18.2627 16.0866 18.0538 16.7085 18.3559 17.2262C18.6581 17.7438 19.3605 17.9483 19.8932 17.6736C20.2138 18.1799 20.9232 18.3587 21.4457 18.065C21.9681 17.7713 22.1025 17.1291 21.7779 16.6381Z" fill="url(#paint11_linear_2577_5560)"/>
<path d="M27.4357 17.5593C27.9007 17.1968 27.9476 16.5423 27.5733 16.1006C27.1989 15.6589 26.5467 15.5854 26.084 15.9327C25.7266 15.4777 25.0783 15.3806 24.6036 15.7109C24.1289 16.0412 24.0054 16.6856 24.3602 17.1557C23.871 17.4835 23.7474 18.128 24.1168 18.6005C24.486 19.073 25.2107 19.1816 25.7027 18.838C26.0893 19.2969 26.8184 19.3791 27.2981 19.018C27.7779 18.6569 27.8248 18.0024 27.4357 17.5593Z" fill="url(#paint12_linear_2577_5560)"/>
<path d="M32.3659 15.9675C32.0981 15.9762 31.8334 16.0811 31.6287 16.2818C31.2104 15.8792 30.5508 15.8702 30.1227 16.2613C29.6945 16.6525 29.6588 17.3076 30.0759 17.7257C29.633 18.1164 29.5973 18.7715 30.0292 19.1901C30.4611 19.6087 31.1984 19.6187 31.6425 19.212C31.881 19.4262 32.2018 19.5204 32.5148 19.499C32.5465 19.1351 32.5636 18.767 32.5636 18.3947C32.5636 17.6332 32.4958 16.8169 32.3659 15.9675Z" fill="url(#paint13_linear_2577_5560)"/>
<path d="M10.2202 8.1956C17.0823 11.5059 24.4642 13.5708 32.0419 14.3014C31.9517 13.9167 31.8504 13.5281 31.7386 13.1376C24.455 12.3874 17.3626 10.3824 10.758 7.20312C10.5721 7.52893 10.3927 7.86007 10.2202 8.1956Z" fill="url(#paint14_linear_2577_5560)"/>
<path d="M7.57202 16.408C15.1543 20.0801 23.3739 22.2297 31.7924 22.7377C31.9258 22.3756 32.0425 22.0054 32.1427 21.6285C23.6588 21.1544 15.3773 18.9846 7.75806 15.244C7.68324 15.6384 7.6212 16.027 7.57202 16.408Z" fill="url(#paint15_linear_2577_5560)"/>
<path d="M7.46545 19.2433C7.90192 25.7862 13.3465 30.9585 20 30.9585C25.4059 30.9585 30.0138 27.544 31.7858 22.7541C31.7858 22.7541 32.2705 20.4701 32.3523 19.2433H7.46545Z" fill="url(#paint16_linear_2577_5560)"/>
<path d="M39.6881 16.3934C39.8911 16.8649 40 17.3773 40 17.9018V36.692C40 38.519 38.519 40 36.692 40H3.30799C2.52171 40 1.79999 39.7252 1.2323 39.2671L39.6881 16.3934Z" fill="url(#paint17_linear_2577_5560)"/>
<path d="M31.6096 21.1986L1.2323 39.2671C1.79991 39.7252 2.52171 40 3.30799 40H36.692C38.519 40 40 38.519 40 36.692V29.589L31.6096 21.1986Z" fill="url(#paint18_linear_2577_5560)"/>
<path d="M0.311843 16.3934C0.0941961 16.8652 0 17.1459 0 17.9018V36.692C0 38.519 1.48102 40 3.308 40H36.692C37.4783 40 38.2 39.7252 38.7677 39.2671L0.311843 16.3934Z" fill="url(#paint19_linear_2577_5560)"/>
<path d="M0 36.6921C0 38.519 1.48102 40.0001 3.308 40.0001H36.692C37.4783 40.0001 38.2 39.7252 38.7677 39.2671L25.7647 31.5328H0V36.6921Z" fill="url(#paint20_linear_2577_5560)"/>
</g>
<defs>
<linearGradient id="paint0_linear_2577_5560" x1="7.45028" y1="14.6422" x2="28.1024" y2="35.2944" gradientUnits="userSpaceOnUse">
<stop stop-color="#FFEFA4"/>
<stop offset="1" stop-color="#FFBE50"/>
</linearGradient>
<linearGradient id="paint1_linear_2577_5560" x1="23.6684" y1="21.7548" x2="17.904" y2="30.3427" gradientUnits="userSpaceOnUse">
<stop stop-color="#FFA100" stop-opacity="0"/>
<stop offset="0.1593" stop-color="#FF9C03" stop-opacity="0.159"/>
<stop offset="0.3553" stop-color="#FF8D0A" stop-opacity="0.355"/>
<stop offset="0.5705" stop-color="#FF7416" stop-opacity="0.571"/>
<stop offset="0.7979" stop-color="#FF5128" stop-opacity="0.798"/>
<stop offset="1" stop-color="#FF2C3A"/>
</linearGradient>
<linearGradient id="paint2_linear_2577_5560" x1="40.8548" y1="16.4262" x2="33.2082" y2="19.7202" gradientUnits="userSpaceOnUse">
<stop stop-color="#FFA100" stop-opacity="0"/>
<stop offset="0.1593" stop-color="#FF9C03" stop-opacity="0.159"/>
<stop offset="0.3553" stop-color="#FF8D0A" stop-opacity="0.355"/>
<stop offset="0.5705" stop-color="#FF7416" stop-opacity="0.571"/>
<stop offset="0.7979" stop-color="#FF5128" stop-opacity="0.798"/>
<stop offset="1" stop-color="#FF2C3A"/>
</linearGradient>
<linearGradient id="paint3_linear_2577_5560" x1="18.6977" y1="12.6599" x2="19.6388" y2="22.4242" gradientUnits="userSpaceOnUse">
<stop stop-color="#B4EBA8"/>
<stop offset="1" stop-color="#24CE20"/>
</linearGradient>
<linearGradient id="paint4_linear_2577_5560" x1="36.4553" y1="20.3836" x2="32.5731" y2="21.0895" gradientUnits="userSpaceOnUse">
<stop stop-color="#007E49" stop-opacity="0"/>
<stop offset="1" stop-color="#007E49"/>
</linearGradient>
<linearGradient id="paint5_linear_2577_5560" x1="15.5757" y1="15.4792" x2="27.1808" y2="15.4792" gradientUnits="userSpaceOnUse">
<stop stop-color="#D9B1EE"/>
<stop offset="0.1735" stop-color="#CFA6E6"/>
<stop offset="0.4762" stop-color="#B789D0"/>
<stop offset="0.8697" stop-color="#905BAD"/>
<stop offset="1" stop-color="#814AA0"/>
</linearGradient>
<linearGradient id="paint6_linear_2577_5560" x1="15.9893" y1="0.890338" x2="27.479" y2="12.38" gradientUnits="userSpaceOnUse">
<stop stop-color="#FFF9F7"/>
<stop offset="1" stop-color="#FFDDCC"/>
</linearGradient>
<linearGradient id="paint7_linear_2577_5560" x1="10.9567" y1="16.6484" x2="25.2349" y2="30.9265" gradientUnits="userSpaceOnUse">
<stop stop-color="#FFF9F7"/>
<stop offset="1" stop-color="#FFDDCC"/>
</linearGradient>
<linearGradient id="paint8_linear_2577_5560" x1="15.1798" y1="15.0445" x2="22.6003" y2="15.0445" gradientUnits="userSpaceOnUse">
<stop stop-color="#FFF9F7"/>
<stop offset="1" stop-color="#FFDDCC"/>
</linearGradient>
<linearGradient id="paint9_linear_2577_5560" x1="9.02967" y1="11.0311" x2="12.1914" y2="14.1929" gradientUnits="userSpaceOnUse">
<stop stop-color="#FFA0AD"/>
<stop offset="1" stop-color="#FF4465"/>
</linearGradient>
<linearGradient id="paint10_linear_2577_5560" x1="13.27" y1="12.8004" x2="15.8039" y2="15.3343" gradientUnits="userSpaceOnUse">
<stop stop-color="#FFA0AD"/>
<stop offset="1" stop-color="#FF4465"/>
</linearGradient>
<linearGradient id="paint11_linear_2577_5560" x1="18.7419" y1="14.7342" x2="21.1124" y2="17.1047" gradientUnits="userSpaceOnUse">
<stop stop-color="#FFA0AD"/>
<stop offset="1" stop-color="#FF4465"/>
</linearGradient>
<linearGradient id="paint12_linear_2577_5560" x1="24.5349" y1="16.0434" x2="26.5417" y2="18.0503" gradientUnits="userSpaceOnUse">
<stop stop-color="#FFA0AD"/>
<stop offset="1" stop-color="#FF4465"/>
</linearGradient>
<linearGradient id="paint13_linear_2577_5560" x1="29.223" y1="15.6044" x2="31.3782" y2="17.7596" gradientUnits="userSpaceOnUse">
<stop stop-color="#FFA0AD"/>
<stop offset="1" stop-color="#FF4465"/>
</linearGradient>
<linearGradient id="paint14_linear_2577_5560" x1="17.7539" y1="10.7523" x2="23.7663" y2="10.7523" gradientUnits="userSpaceOnUse">
<stop stop-color="#FFEFA4"/>
<stop offset="1" stop-color="#FFBE50"/>
</linearGradient>
<linearGradient id="paint15_linear_2577_5560" x1="17.7539" y1="18.9909" x2="23.7663" y2="18.9909" gradientUnits="userSpaceOnUse">
<stop stop-color="#FFEFA4"/>
<stop offset="1" stop-color="#FFBE50"/>
</linearGradient>
<linearGradient id="paint16_linear_2577_5560" x1="19.9088" y1="21.0639" x2="19.9088" y2="29.786" gradientUnits="userSpaceOnUse">
<stop stop-color="#5B3374" stop-opacity="0"/>
<stop offset="1" stop-color="#5B3374"/>
</linearGradient>
<linearGradient id="paint17_linear_2577_5560" x1="20.9609" y1="28.7914" x2="26.8429" y2="40.085" gradientUnits="userSpaceOnUse">
<stop stop-color="#FFEFA4"/>
<stop offset="1" stop-color="#FFBE50"/>
</linearGradient>
<linearGradient id="paint18_linear_2577_5560" x1="26.6454" y1="26.809" x2="23.7044" y2="32.4558" gradientUnits="userSpaceOnUse">
<stop stop-color="#FFA100" stop-opacity="0"/>
<stop offset="0.1593" stop-color="#FF9C03" stop-opacity="0.159"/>
<stop offset="0.3553" stop-color="#FF8D0A" stop-opacity="0.355"/>
<stop offset="0.5705" stop-color="#FF7416" stop-opacity="0.571"/>
<stop offset="0.7979" stop-color="#FF5128" stop-opacity="0.798"/>
<stop offset="1" stop-color="#FF2C3A"/>
</linearGradient>
<linearGradient id="paint19_linear_2577_5560" x1="14.9753" y1="26.8047" x2="20.0339" y2="39.9806" gradientUnits="userSpaceOnUse">
<stop stop-color="#FFEFA4"/>
<stop offset="1" stop-color="#FFBE50"/>
</linearGradient>
<linearGradient id="paint20_linear_2577_5560" x1="19.3838" y1="34.2386" x2="19.3838" y2="41.5361" gradientUnits="userSpaceOnUse">
<stop stop-color="#FFA100" stop-opacity="0"/>
<stop offset="0.1593" stop-color="#FF9C03" stop-opacity="0.159"/>
<stop offset="0.3553" stop-color="#FF8D0A" stop-opacity="0.355"/>
<stop offset="0.5705" stop-color="#FF7416" stop-opacity="0.571"/>
<stop offset="0.7979" stop-color="#FF5128" stop-opacity="0.798"/>
<stop offset="1" stop-color="#FF2C3A"/>
</linearGradient>
<clipPath id="clip0_2577_5560">
<rect width="40" height="40" fill="white"/>
</clipPath>
</defs>
</svg>
